bmp.ufo
<glyph name="uni0022" format="2">
  <advance width="408.0"/>
  <unicode hex="0022"/>
  <outline>
    <contour>
      <point x="160.0" y="714.0" type="line"/>
      <point x="140.0" y="456.0" type="line"/>
      <point x="85.0" y="456.0" type="line"/>
      <point x="65.0" y="714.0" type="line"/>
    </contour>
    <contour>
      <point x="343.0" y="714.0" type="line"/>
      <point x="323.0" y="456.0" type="line"/>
      <point x="268.0" y="456.0" type="line"/>
      <point x="248.0" y="714.0" type="line"/>
    </contour>
  </outline>
</glyph>
<glyph name="uni0023" format="2">
  <advance width="646.0"/>
  <unicode hex="0023"/>
  <outline>
    <contour>
      <point x="480.0" y="436.0" type="line"/>
      <point x="449.0" y="276.0" type="line"/>
      <point x="586.0" y="276.0" type="line"/>
      <point x="586.0" y="209.0" type="line"/>
      <point x="436.0" y="209.0" type="line"/>
      <point x="395.0" y="0.0" type="line"/>
      <point x="324.0" y="0.0" type="line"/>
      <point x="365.0" y="209.0" type="line"/>
      <point x="222.0" y="209.0" type="line"/>
      <point x="183.0" y="0.0" type="line"/>
      <point x="113.0" y="0.0" type="line"/>
      <point x="151.0" y="209.0" type="line"/>
      <point x="25.0" y="209.0" type="line"/>
      <point x="25.0" y="276.0" type="line"/>
      <point x="164.0" y="276.0" type="line"/>
      <point x="196.0" y="436.0" type="line"/>
      <point x="62.0" y="436.0" type="line"/>
      <point x="62.0" y="502.0" type="line"/>
      <point x="208.0" y="502.0" type="line"/>
      <point x="248.0" y="714.0" type="line"/>
      <point x="320.0" y="714.0" type="line"/>
      <point x="280.0" y="502.0" type="line"/>
      <point x="424.0" y="502.0" type="line"/>
      <point x="464.0" y="714.0" type="line"/>
      <point x="533.0" y="714.0" type="line"/>
      <point x="493.0" y="502.0" type="line"/>
      <point x="620.0" y="502.0" type="line"/>
      <point x="620.0" y="436.0" type="line"/>
    </contour>
    <contour>
      <point x="235.0" y="276.0" type="line"/>
      <point x="378.0" y="276.0" type="line"/>
      <point x="409.0" y="436.0" type="line"/>
      <point x="266.0" y="436.0" type="line"/>
    </contour>
  </outline>
</glyph>
<glyph name="uni0024" format="2">
  <advance width="572.0"/>
  <unicode hex="0024"/>
  <outline>
    <contour>
      <point x="253.0" y="49.0" type="line"/>
      <point x="198.0" y="50.0"/>
      <point x="94.0" y="67.0"/>
      <point x="62.0" y="82.0" type="line"/>
      <point x="62.0" y="167.0" type="line"/>
      <point x="96.0" y="151.0"/>
      <point x="202.0" y="127.0"/>
      <point x="253.0" y="126.0" type="line"/>
      <point x="253.0" y="328.0" type="line"/>
      <point x="154.0" y="355.0"/>
      <point x="62.0" y="437.0"/>
      <point x="62.0" y="508.0" type="line"/>
      <point x="62.0" y="582.0"/>
      <point x="165.0" y="666.0"/>
      <point x="253.0" y="671.0" type="line"/>
      <point x="253.0" y="759.0" type="line"/>
      <point x="317.0" y="759.0" type="line"/>
      <point x="317.0" y="672.0" type="line"/>
      <point x="370.0" y="671.0"/>
      <point x="457.0" y="650.0"/>
      <point x="493.0" y="635.0" type="line"/>
      <point x="466.0" y="561.0" type="line"/>
      <point x="434.0" y="574.0"/>
      <point x="357.0" y="593.0"/>
      <point x="317.0" y="596.0" type="line"/>
      <point x="317.0" y="395.0" type="line"/>
      <point x="383.0" y="376.0"/>
      <point x="471.0" y="333.0"/>
      <point x="516.0" y="270.0"/>
      <point x="516.0" y="220.0" type="line"/>
      <point x="516.0" y="150.0"/>
      <point x="412.0" y="63.0"/>
      <point x="317.0" y="53.0" type="line"/>
      <point x="317.0" y="-58.0" type="line"/>
      <point x="253.0" y="-58.0" type="line"/>
    </contour>
    <contour>
      <point x="253.0" y="594.0" type="line"/>
      <point x="199.0" y="590.0"/>
      <point x="148.0" y="548.0"/>
      <point x="148.0" y="515.0" type="line"/>
      <point x="148.0" y="475.0"/>
      <point x="193.0" y="432.0"/>
      <point x="253.0" y="417.0" type="line"/>
    </contour>
    <contour>
      <point x="317.0" y="131.0" type="line"/>
      <point x="376.0" y="137.0"/>
      <point x="430.0" y="180.0"/>
      <point x="430.0" y="214.0" type="line"/>
      <point x="430.0" y="252.0"/>
      <point x="382.0" y="291.0"/>
      <point x="317.0" y="307.0" type="line"/>
    </contour>
  </outline>
</glyph>
<glyph name="uni0026" format="2">
  <advance width="732.0"/>
  <unicode hex="0026"/>
  <outline>
    <contour>
      <point x="304.0" y="725.0" type="line"/>
      <point x="384.0" y="725.0"/>
      <point x="477.0" y="644.0"/>
      <point x="477.0" y="571.0" type="line"/>
      <point x="477.0" y="508.0"/>
      <point x="396.0" y="420.0"/>
      <point x="334.0" y="384.0" type="line"/>
      <point x="527.0" y="198.0" type="line"/>
      <point x="553.0" y="229.0"/>
      <point x="586.0" y="310.0"/>
      <point x="597.0" y="357.0" type="line"/>
      <point x="686.0" y="357.0" type="line"/>
      <point x="670.0" y="293.0"/>
      <point x="622.0" y="183.0"/>
      <point x="584.0" y="142.0" type="line"/>
      <point x="730.0" y="0.0" type="line"/>
      <point x="611.0" y="0.0" type="line"/>
      <point x="524.0" y="84.0" type="line"/>
      <point x="477.0" y="42.0"/>
      <point x="361.0" y="-10.0"/>
      <point x="278.0" y="-10.0" type="line"/>
      <point x="175.0" y="-10.0"/>
      <point x="53.0" y="92.0"/>
      <point x="53.0" y="186.0" type="line"/>
      <point x="53.0" y="263.0"/>
      <point x="136.0" y="356.0"/>
      <point x="207.0" y="396.0" type="line"/>
      <point x="175.0" y="432.0"/>
      <point x="120.0" y="514.0"/>
      <point x="120.0" y="569.0" type="line"/>
      <point x="120.0" y="643.0"/>
      <point x="219.0" y="725.0"/>
    </contour>
    <contour>
      <point x="301.0" y="653.0" type="line"/>
      <point x="259.0" y="653.0"/>
      <point x="206.0" y="609.0"/>
      <point x="206.0" y="570.0" type="line"/>
      <point x="206.0" y="534.0"/>
      <point x="244.0" y="473.0"/>
      <point x="280.0" y="436.0" type="line"/>
      <point x="339.0" y="470.0"/>
      <point x="390.0" y="531.0"/>
      <point x="390.0" y="571.0" type="line"/>
      <point x="390.0" y="607.0"/>
      <point x="342.0" y="653.0"/>
    </contour>
    <contour>
      <point x="260.0" y="341.0" type="line"/>
      <point x="206.0" y="309.0"/>
      <point x="145.0" y="243.0"/>
      <point x="145.0" y="189.0" type="line"/>
      <point x="145.0" y="134.0"/>
      <point x="219.0" y="68.0"/>
      <point x="281.0" y="68.0" type="line"/>
      <point x="345.0" y="68.0"/>
      <point x="437.0" y="110.0"/>
      <point x="468.0" y="139.0" type="line"/>
    </contour>
  </outline>
</glyph>
<glyph name="uni0027" format="2">
  <advance width="225.0"/>
  <unicode hex="0027"/>
  <outline>
    <contour>
      <point x="160.0" y="714.0" type="line"/>
      <point x="140.0" y="456.0" type="line"/>
      <point x="85.0" y="456.0" type="line"/>
      <point x="65.0" y="714.0" type="line"/>
    </contour>
  </outline>
</glyph>
<glyph name="uni0028" format="2">
  <advance width="300.0"/>
  <unicode hex="0028"/>
  <outline>
    <contour>
      <point x="40.0" y="274.0" type="line"/>
      <point x="40.0" y="396.0"/>
      <point x="111.0" y="623.0"/>
      <point x="187.0" y="714.0" type="line"/>
      <point x="270.0" y="714.0" type="line"/>
      <point x="200.0" y="620.0"/>
      <point x="129.0" y="394.0"/>
      <point x="129.0" y="275.0" type="line"/>
      <point x="129.0" y="159.0"/>
      <point x="200.0" y="-64.0"/>
      <point x="269.0" y="-158.0" type="line"/>
      <point x="187.0" y="-158.0" type="line"/>
      <point x="111.0" y="-70.0"/>
      <point x="40.0" y="153.0"/>
    </contour>
  </outline>
</glyph>
<glyph name="uni0029" format="2">
  <advance width="300.0"/>
  <unicode hex="0029"/>
  <outline>
    <contour>
      <point x="260.0" y="274.0" type="line"/>
      <point x="260.0" y="153.0"/>
      <point x="189.0" y="-70.0"/>
      <point x="113.0" y="-158.0" type="line"/>
      <point x="31.0" y="-158.0" type="line"/>
      <point x="100.0" y="-64.0"/>
      <point x="171.0" y="159.0"/>
      <point x="171.0" y="275.0" type="line"/>
      <point x="171.0" y="394.0"/>
      <point x="100.0" y="620.0"/>
      <point x="30.0" y="714.0" type="line"/>
      <point x="113.0" y="714.0" type="line"/>
      <point x="189.0" y="623.0"/>
      <point x="260.0" y="396.0"/>
    </contour>
  </outline>
</glyph>
<glyph name="uni002A" format="2">
  <advance width="551.0"/>
  <unicode hex="002A"/>
  <outline>
    <contour>
      <point x="322.0" y="760.0" type="line"/>
      <point x="302.0" y="568.0" type="line"/>
      <point x="494.0" y="622.0" type="line"/>
      <point x="508.0" y="530.0" type="line"/>
      <point x="324.0" y="515.0" type="line"/>
      <point x="443.0" y="357.0" type="line"/>
      <point x="357.0" y="310.0" type="line"/>
      <point x="272.0" y="485.0" type="line"/>
      <point x="195.0" y="310.0" type="line"/>
      <point x="106.0" y="357.0" type="line"/>
      <point x="223.0" y="515.0" type="line"/>
      <point x="41.0" y="530.0" type="line"/>
      <point x="55.0" y="622.0" type="line"/>
      <point x="245.0" y="568.0" type="line"/>
      <point x="224.0" y="760.0" type="line"/>
    </contour>
  </outline>
</glyph>
<glyph name="uni002B" format="2">
  <advance width="572.0"/>
  <unicode hex="002B"/>
  <outline>
    <contour>
      <point x="321.0" y="388.0" type="line"/>
      <point x="520.0" y="388.0" type="line"/>
      <point x="520.0" y="317.0" type="line"/>
      <point x="321.0" y="317.0" type="line"/>
      <point x="321.0" y="111.0" type="line"/>
      <point x="249.0" y="111.0" type="line"/>
      <point x="249.0" y="317.0" type="line"/>
      <point x="50.0" y="317.0" type="line"/>
      <point x="50.0" y="388.0" type="line"/>
      <point x="249.0" y="388.0" type="line"/>
      <point x="249.0" y="595.0" type="line"/>
      <point x="321.0" y="595.0" type="line"/>
    </contour>
  </outline>
</glyph>
<glyph name="uni002C" format="2">
  <advance width="268.0"/>
  <unicode hex="002C"/>
  <outline>
    <contour>
      <point x="192.0" y="105.0" type="line"/>
      <point x="179.0" y="52.0"/>
      <point x="130.0" y="-75.0"/>
      <point x="106.0" y="-129.0" type="line"/>
      <point x="41.0" y="-129.0" type="line"/>
      <point x="55.0" y="-72.0"/>
      <point x="84.0" y="64.0"/>
      <point x="91.0" y="116.0" type="line"/>
      <point x="185.0" y="116.0" type="line"/>
    </contour>
  </outline>
</glyph>
<glyph name="uni002D" format="2">
  <advance width="322.0"/>
  <unicode hex="002D"/>
  <outline>
    <contour>
      <point x="40.0" y="229.0" type="line"/>
      <point x="40.0" y="307.0" type="line"/>
      <point x="282.0" y="307.0" type="line"/>
      <point x="282.0" y="229.0" type="line"/>
    </contour>
  </outline>
</glyph>
<glyph name="uni002F" format="2">
  <advance width="372.0"/>
  <unicode hex="002F"/>
  <outline>
    <contour>
      <point x="362.0" y="714.0" type="line"/>
      <point x="96.0" y="0.0" type="line"/>
      <point x="10.0" y="0.0" type="line"/>
      <point x="276.0" y="714.0" type="line"/>
    </contour>
  </outline>
</glyph>
<glyph name="uni0030" format="2">
  <advance width="572.0"/>
  <unicode hex="0030"/>
  <outline>
    <contour>
      <point x="523.0" y="358.0" type="line"/>
      <point x="523.0" y="243.0"/>
      <point x="475.0" y="78.0"/>
      <point x="371.0" y="-10.0"/>
      <point x="285.0" y="-10.0" type="line"/>
      <point x="164.0" y="-10.0"/>
      <point x="49.0" y="185.0"/>
      <point x="49.0" y="358.0" type="line"/>
      <point x="49.0" y="474.0"/>
      <point x="96.0" y="638.0"/>
      <point x="200.0" y="725.0"/>
      <point x="285.0" y="725.0" type="line"/>
      <point x="405.0" y="725.0"/>
      <point x="523.0" y="532.0"/>
    </contour>
    <contour>
      <point x="137.0" y="358.0" type="line"/>
      <point x="137.0" y="211.0"/>
      <point x="204.0" y="65.0"/>
      <point x="285.0" y="65.0" type="line"/>
      <point x="365.0" y="65.0"/>
      <point x="434.0" y="210.0"/>
      <point x="434.0" y="358.0" type="line"/>
      <point x="434.0" y="504.0"/>
      <point x="365.0" y="650.0"/>
      <point x="285.0" y="650.0" type="line"/>
      <point x="204.0" y="650.0"/>
      <point x="137.0" y="504.0"/>
    </contour>
  </outline>
</glyph>
<glyph name="uni0031" format="2">
  <advance width="572.0"/>
  <unicode hex="0031"/>
  <outline>
    <contour>
      <point x="355.0" y="0.0" type="line"/>
      <point x="269.0" y="0.0" type="line"/>
      <point x="269.0" y="499.0" type="line"/>
      <point x="269.0" y="542.0"/>
      <point x="271.0" y="594.0"/>
      <point x="273.0" y="622.0" type="line"/>
      <point x="257.0" y="606.0"/>
      <point x="231.0" y="584.0"/>
      <point x="211.0" y="567.0" type="line"/>
      <point x="135.0" y="505.0" type="line"/>
      <point x="89.0" y="564.0" type="line"/>
      <point x="282.0" y="714.0" type="line"/>
      <point x="355.0" y="714.0" type="line"/>
    </contour>
  </outline>
</glyph>
<glyph name="uni0032" format="2">
  <advance width="572.0"/>
  <unicode hex="0032"/>
  <outline>
    <contour>
      <point x="520.0" y="0.0" type="line"/>
      <point x="48.0" y="0.0" type="line"/>
      <point x="48.0" y="73.0" type="line"/>
      <point x="235.0" y="262.0" type="line"/>
      <point x="289.0" y="316.0"/>
      <point x="363.0" y="400.0"/>
      <point x="401.0" y="481.0"/>
      <point x="401.0" y="529.0" type="line"/>
      <point x="401.0" y="588.0"/>
      <point x="331.0" y="649.0"/>
      <point x="275.0" y="649.0" type="line"/>
      <point x="223.0" y="649.0"/>
      <point x="144.0" y="613.0"/>
      <point x="103.0" y="581.0" type="line"/>
      <point x="56.0" y="640.0" type="line"/>
      <point x="98.0" y="675.0"/>
      <point x="207.0" y="724.0"/>
      <point x="275.0" y="724.0" type="line"/>
      <point x="375.0" y="724.0"/>
      <point x="491.0" y="623.0"/>
      <point x="491.0" y="534.0" type="line"/>
      <point x="491.0" y="478.0"/>
      <point x="445.0" y="380.0"/>
      <point x="363.0" y="285.0"/>
      <point x="308.0" y="231.0" type="line"/>
      <point x="159.0" y="84.0" type="line"/>
      <point x="159.0" y="80.0" type="line"/>
      <point x="520.0" y="80.0" type="line"/>
    </contour>
  </outline>
</glyph>
<glyph name="uni0033" format="2">
  <advance width="572.0"/>
  <unicode hex="0033"/>
  <outline>
    <contour>
      <point x="493.0" y="547.0" type="line"/>
      <point x="493.0" y="475.0"/>
      <point x="413.0" y="390.0"/>
      <point x="345.0" y="376.0" type="line"/>
      <point x="345.0" y="372.0" type="line"/>
      <point x="431.0" y="362.0"/>
      <point x="515.0" y="274.0"/>
      <point x="515.0" y="203.0" type="line"/>
      <point x="515.0" y="141.0"/>
      <point x="457.0" y="44.0"/>
      <point x="336.0" y="-10.0"/>
      <point x="241.0" y="-10.0" type="line"/>
      <point x="185.0" y="-10.0"/>
      <point x="89.0" y="7.0"/>
      <point x="45.0" y="29.0" type="line"/>
      <point x="45.0" y="111.0" type="line"/>
      <point x="90.0" y="89.0"/>
      <point x="194.0" y="64.0"/>
      <point x="242.0" y="64.0" type="line"/>
      <point x="338.0" y="64.0"/>
      <point x="423.0" y="139.0"/>
      <point x="423.0" y="205.0" type="line"/>
      <point x="423.0" y="272.0"/>
      <point x="318.0" y="331.0"/>
      <point x="223.0" y="331.0" type="line"/>
      <point x="154.0" y="331.0" type="line"/>
      <point x="154.0" y="406.0" type="line"/>
      <point x="224.0" y="406.0" type="line"/>
      <point x="312.0" y="406.0"/>
      <point x="403.0" y="480.0"/>
      <point x="403.0" y="541.0" type="line"/>
      <point x="403.0" y="593.0"/>
      <point x="333.0" y="650.0"/>
      <point x="273.0" y="650.0" type="line"/>
      <point x="215.0" y="650.0"/>
      <point x="133.0" y="616.0"/>
      <point x="93.0" y="590.0" type="line"/>
      <point x="49.0" y="650.0" type="line"/>
      <point x="87.0" y="680.0"/>
      <point x="200.0" y="724.0"/>
      <point x="272.0" y="724.0" type="line"/>
      <point x="384.0" y="724.0"/>
      <point x="493.0" y="624.0"/>
    </contour>
  </outline>
</glyph>
<glyph name="uni0034" format="2">
  <advance width="572.0"/>
  <unicode hex="0034"/>
  <outline>
    <contour>
      <point x="552.0" y="162.0" type="line"/>
      <point x="448.0" y="162.0" type="line"/>
      <point x="448.0" y="0.0" type="line"/>
      <point x="363.0" y="0.0" type="line"/>
      <point x="363.0" y="162.0" type="line"/>
      <point x="21.0" y="162.0" type="line"/>
      <point x="21.0" y="237.0" type="line"/>
      <point x="357.0" y="718.0" type="line"/>
      <point x="448.0" y="718.0" type="line"/>
      <point x="448.0" y="241.0" type="line"/>
      <point x="552.0" y="241.0" type="line"/>
    </contour>
    <contour>
      <point x="363.0" y="466.0" type="line"/>
      <point x="363.0" y="518.0"/>
      <point x="367.0" y="591.0"/>
      <point x="368.0" y="624.0" type="line"/>
      <point x="364.0" y="624.0" type="line"/>
      <point x="356.0" y="605.0"/>
      <point x="332.0" y="561.0"/>
      <point x="321.0" y="546.0" type="line"/>
      <point x="107.0" y="241.0" type="line"/>
      <point x="363.0" y="241.0" type="line"/>
    </contour>
  </outline>
</glyph>
<glyph name="uni0035" format="2">
  <advance width="572.0"/>
  <unicode hex="0035"/>
  <outline>
    <contour>
      <point x="275.0" y="438.0" type="line"/>
      <point x="385.0" y="438.0"/>
      <point x="515.0" y="328.0"/>
      <point x="515.0" y="228.0" type="line"/>
      <point x="515.0" y="117.0"/>
      <point x="374.0" y="-10.0"/>
      <point x="248.0" y="-10.0" type="line"/>
      <point x="193.0" y="-10.0"/>
      <point x="96.0" y="10.0"/>
      <point x="63.0" y="29.0" type="line"/>
      <point x="63.0" y="112.0" type="line"/>
      <point x="99.0" y="90.0"/>
      <point x="202.0" y="65.0"/>
      <point x="249.0" y="65.0" type="line"/>
      <point x="328.0" y="65.0"/>
      <point x="425.0" y="140.0"/>
      <point x="425.0" y="219.0" type="line"/>
      <point x="425.0" y="289.0"/>
      <point x="339.0" y="364.0"/>
      <point x="246.0" y="364.0" type="line"/>
      <point x="218.0" y="364.0"/>
      <point x="146.0" y="354.0"/>
      <point x="124.0" y="349.0" type="line"/>
      <point x="80.0" y="377.0" type="line"/>
      <point x="107.0" y="714.0" type="line"/>
      <point x="465.0" y="714.0" type="line"/>
      <point x="465.0" y="634.0" type="line"/>
      <point x="182.0" y="634.0" type="line"/>
      <point x="165.0" y="427.0" type="line"/>
      <point x="182.0" y="430.0"/>
      <point x="240.0" y="438.0"/>
    </contour>
  </outline>
</glyph>
<glyph name="uni0036" format="2">
  <advance width="572.0"/>
  <unicode hex="0036"/>
  <outline>
    <contour>
      <point x="55.0" y="305.0" type="line"/>
      <point x="55.0" y="382.0"/>
      <point x="82.0" y="531.0"/>
      <point x="153.0" y="652.0"/>
      <point x="281.0" y="724.0"/>
      <point x="382.0" y="724.0" type="line"/>
      <point x="403.0" y="724.0"/>
      <point x="454.0" y="720.0"/>
      <point x="470.0" y="715.0" type="line"/>
      <point x="470.0" y="640.0" type="line"/>
      <point x="452.0" y="646.0"/>
      <point x="407.0" y="652.0"/>
      <point x="384.0" y="652.0" type="line"/>
      <point x="315.0" y="652.0"/>
      <point x="223.0" y="606.0"/>
      <point x="170.0" y="526.0"/>
      <point x="146.0" y="422.0"/>
      <point x="143.0" y="363.0" type="line"/>
      <point x="149.0" y="363.0" type="line"/>
      <point x="172.0" y="398.0"/>
      <point x="254.0" y="447.0"/>
      <point x="318.0" y="447.0" type="line"/>
      <point x="411.0" y="447.0"/>
      <point x="525.0" y="334.0"/>
      <point x="525.0" y="230.0" type="line"/>
      <point x="525.0" y="118.0"/>
      <point x="402.0" y="-10.0"/>
      <point x="298.0" y="-10.0" type="line"/>
      <point x="230.0" y="-10.0"/>
      <point x="120.0" y="58.0"/>
      <point x="55.0" y="198.0"/>
    </contour>
    <contour>
      <point x="297.0" y="64.0" type="line"/>
      <point x="360.0" y="64.0"/>
      <point x="438.0" y="145.0"/>
      <point x="438.0" y="230.0" type="line"/>
      <point x="438.0" y="298.0"/>
      <point x="369.0" y="378.0"/>
      <point x="300.0" y="378.0" type="line"/>
      <point x="253.0" y="378.0"/>
      <point x="183.0" y="339.0"/>
      <point x="144.0" y="279.0"/>
      <point x="144.0" y="247.0" type="line"/>
      <point x="144.0" y="204.0"/>
      <point x="178.0" y="119.0"/>
      <point x="246.0" y="64.0"/>
    </contour>
  </outline>
</glyph>
<glyph name="uni0037" format="2">
  <advance width="572.0"/>
  <unicode hex="0037"/>
  <outline>
    <contour>
      <point x="136.0" y="0.0" type="line"/>
      <point x="429.0" y="634.0" type="line"/>
      <point x="44.0" y="634.0" type="line"/>
      <point x="44.0" y="714.0" type="line"/>
      <point x="523.0" y="714.0" type="line"/>
      <point x="523.0" y="646.0" type="line"/>
      <point x="233.0" y="0.0" type="line"/>
    </contour>
  </outline>
</glyph>
<glyph name="uni0038" format="2">
  <advance width="572.0"/>
  <unicode hex="0038"/>
  <outline>
    <contour>
      <point x="285.0" y="724.0" type="line"/>
      <point x="379.0" y="724.0"/>
      <point x="499.0" y="636.0"/>
      <point x="499.0" y="553.0" type="line"/>
      <point x="499.0" y="510.0"/>
      <point x="462.0" y="446.0"/>
      <point x="400.0" y="397.0"/>
      <point x="363.0" y="378.0" type="line"/>
      <point x="407.0" y="357.0"/>
      <point x="479.0" y="304.0"/>
      <point x="522.0" y="234.0"/>
      <point x="522.0" y="185.0" type="line"/>
      <point x="522.0" y="95.0"/>
      <point x="395.0" y="-10.0"/>
      <point x="288.0" y="-10.0" type="line"/>
      <point x="173.0" y="-10.0"/>
      <point x="49.0" y="91.0"/>
      <point x="49.0" y="182.0" type="line"/>
      <point x="49.0" y="231.0"/>
      <point x="90.0" y="303.0"/>
      <point x="158.0" y="355.0"/>
      <point x="197.0" y="373.0" type="line"/>
      <point x="145.0" y="403.0"/>
      <point x="72.0" y="488.0"/>
      <point x="72.0" y="554.0" type="line"/>
      <point x="72.0" y="609.0"/>
      <point x="128.0" y="684.0"/>
      <point x="224.0" y="724.0"/>
    </contour>
    <contour>
      <point x="284.0" y="653.0" type="line"/>
      <point x="229.0" y="653.0"/>
      <point x="158.0" y="600.0"/>
      <point x="158.0" y="550.0" type="line"/>
      <point x="158.0" y="513.0"/>
      <point x="193.0" y="463.0"/>
      <point x="253.0" y="428.0"/>
      <point x="289.0" y="412.0" type="line"/>
      <point x="341.0" y="434.0"/>
      <point x="412.0" y="496.0"/>
      <point x="412.0" y="550.0" type="line"/>
      <point x="412.0" y="600.0"/>
      <point x="342.0" y="653.0"/>
    </contour>
    <contour>
      <point x="135.0" y="181.0" type="line"/>
      <point x="135.0" y="129.0"/>
      <point x="209.0" y="60.0"/>
      <point x="286.0" y="60.0" type="line"/>
      <point x="359.0" y="60.0"/>
      <point x="436.0" y="129.0"/>
      <point x="436.0" y="184.0" type="line"/>
      <point x="436.0" y="236.0"/>
      <point x="354.0" y="305.0"/>
      <point x="286.0" y="331.0" type="line"/>
      <point x="270.0" y="337.0" type="line"/>
      <point x="204.0" y="309.0"/>
      <point x="135.0" y="236.0"/>
    </contour>
  </outline>
</glyph>
<glyph name="uni0039" format="2">
  <advance width="572.0"/>
  <unicode hex="0039"/>
  <outline>
    <contour>
      <point x="520.0" y="409.0" type="line"/>
      <point x="520.0" y="332.0"/>
      <point x="493.0" y="183.0"/>
      <point x="422.0" y="62.0"/>
      <point x="293.0" y="-10.0"/>
      <point x="192.0" y="-10.0" type="line"/>
      <point x="172.0" y="-10.0"/>
      <point x="119.0" y="-5.0"/>
      <point x="102.0" y="0.0" type="line"/>
      <point x="102.0" y="75.0" type="line"/>
      <point x="141.0" y="62.0"/>
      <point x="190.0" y="62.0" type="line"/>
      <point x="260.0" y="62.0"/>
      <point x="351.0" y="108.0"/>
      <point x="405.0" y="187.0"/>
      <point x="429.0" y="292.0"/>
      <point x="431.0" y="350.0" type="line"/>
      <point x="425.0" y="350.0" type="line"/>
      <point x="403.0" y="316.0"/>
      <point x="320.0" y="267.0"/>
      <point x="255.0" y="267.0" type="line"/>
      <point x="163.0" y="267.0"/>
      <point x="50.0" y="380.0"/>
      <point x="50.0" y="483.0" type="line"/>
      <point x="50.0" y="558.0"/>
      <point x="107.0" y="666.0"/>
      <point x="209.0" y="724.0"/>
      <point x="278.0" y="724.0" type="line"/>
      <point x="346.0" y="724.0"/>
      <point x="456.0" y="655.0"/>
      <point x="520.0" y="516.0"/>
    </contour>
    <contour>
      <point x="278.0" y="650.0" type="line"/>
      <point x="216.0" y="650.0"/>
      <point x="137.0" y="568.0"/>
      <point x="137.0" y="484.0" type="line"/>
      <point x="137.0" y="415.0"/>
      <point x="204.0" y="336.0"/>
      <point x="274.0" y="336.0" type="line"/>
      <point x="322.0" y="336.0"/>
      <point x="392.0" y="375.0"/>
      <point x="431.0" y="435.0"/>
      <point x="431.0" y="467.0" type="line"/>
      <point x="431.0" y="510.0"/>
      <point x="397.0" y="594.0"/>
      <point x="329.0" y="650.0"/>
    </contour>
  </outline>
</glyph>
<glyph name="uni003C" format="2">
  <advance width="572.0"/>
  <unicode hex="003C"/>
  <outline>
    <contour>
      <point x="521.0" y="116.0" type="line"/>
      <point x="50.0" y="323.0" type="line"/>
      <point x="50.0" y="373.0" type="line"/>
      <point x="521.0" y="608.0" type="line"/>
      <point x="521.0" y="530.0" type="line"/>
      <point x="144.0" y="352.0" type="line"/>
      <point x="521.0" y="194.0" type="line"/>
    </contour>
  </outline>
</glyph>
<glyph name="uni003D" format="2">
  <advance width="572.0"/>
  <unicode hex="003D"/>
  <outline>
    <contour>
      <point x="56.0" y="416.0" type="line"/>
      <point x="56.0" y="487.0" type="line"/>
      <point x="514.0" y="487.0" type="line"/>
      <point x="514.0" y="416.0" type="line"/>
    </contour>
    <contour>
      <point x="56.0" y="217.0" type="line"/>
      <point x="56.0" y="288.0" type="line"/>
      <point x="514.0" y="288.0" type="line"/>
      <point x="514.0" y="217.0" type="line"/>
    </contour>
  </outline>
</glyph>
<glyph name="uni003E" format="2">
  <advance width="572.0"/>
  <unicode hex="003E"/>
  <outline>
    <contour>
      <point x="50.0" y="194.0" type="line"/>
      <point x="427.0" y="351.0" type="line"/>
      <point x="50.0" y="530.0" type="line"/>
      <point x="50.0" y="608.0" type="line"/>
      <point x="521.0" y="373.0" type="line"/>
      <point x="521.0" y="323.0" type="line"/>
      <point x="50.0" y="116.0" type="line"/>
    </contour>
  </outline>
</glyph>
<glyph name="uni003F" format="2">
  <advance width="434.0"/>
  <unicode hex="003F"/>
  <outline>
    <contour>
      <point x="140.0" y="228.0" type="line"/>
      <point x="140.0" y="266.0"/>
      <point x="155.0" y="321.0"/>
      <point x="192.0" y="371.0"/>
      <point x="224.0" y="398.0" type="line"/>
      <point x="263.0" y="431.0"/>
      <point x="306.0" y="475.0"/>
      <point x="324.0" y="517.0"/>
      <point x="324.0" y="547.0" type="line"/>
      <point x="324.0" y="595.0"/>
      <point x="262.0" y="647.0"/>
      <point x="203.0" y="647.0" type="line"/>
      <point x="154.0" y="647.0"/>
      <point x="78.0" y="622.0"/>
      <point x="43.0" y="605.0" type="line"/>
      <point x="12.0" y="675.0" type="line"/>
      <point x="52.0" y="696.0"/>
      <point x="149.0" y="724.0"/>
      <point x="209.0" y="724.0" type="line"/>
      <point x="304.0" y="724.0"/>
      <point x="408.0" y="630.0"/>
      <point x="408.0" y="549.0" type="line"/>
      <point x="408.0" y="504.0"/>
      <point x="379.0" y="441.0"/>
      <point x="326.0" y="388.0"/>
      <point x="290.0" y="358.0" type="line"/>
      <point x="257.0" y="330.0"/>
      <point x="222.0" y="288.0"/>
      <point x="210.0" y="247.0"/>
      <point x="210.0" y="218.0" type="line"/>
      <point x="210.0" y="201.0" type="line"/>
      <point x="140.0" y="201.0" type="line"/>
    </contour>
    <contour>
      <point x="117.0" y="54.0" type="line"/>
      <point x="117.0" y="91.0"/>
      <point x="152.0" y="121.0"/>
      <point x="179.0" y="121.0" type="line"/>
      <point x="204.0" y="121.0"/>
      <point x="240.0" y="91.0"/>
      <point x="240.0" y="54.0" type="line"/>
      <point x="240.0" y="18.0"/>
      <point x="204.0" y="-14.0"/>
      <point x="179.0" y="-14.0" type="line"/>
      <point x="152.0" y="-14.0"/>
      <point x="117.0" y="18.0"/>
    </contour>
  </outline>
</glyph>
<glyph name="uni0040" format="2">
  <advance width="899.0"/>
  <unicode hex="0040"/>
  <outline>
    <contour>
      <point x="841.0" y="357.0" type="line"/>
      <point x="841.0" y="311.0"/>
      <point x="820.0" y="223.0"/>
      <point x="776.0" y="152.0"/>
      <point x="712.0" y="109.0"/>
      <point x="668.0" y="109.0" type="line"/>
      <point x="622.0" y="109.0"/>
      <point x="569.0" y="162.0"/>
      <point x="563.0" y="196.0" type="line"/>
      <point x="558.0" y="196.0" type="line"/>
      <point x="540.0" y="159.0"/>
      <point x="470.0" y="109.0"/>
      <point x="417.0" y="109.0" type="line"/>
      <point x="341.0" y="109.0"/>
      <point x="258.0" y="211.0"/>
      <point x="258.0" y="295.0" type="line"/>
      <point x="258.0" y="361.0"/>
      <point x="310.0" y="462.0"/>
      <point x="405.0" y="520.0"/>
      <point x="470.0" y="520.0" type="line"/>
      <point x="514.0" y="520.0"/>
      <point x="599.0" y="505.0"/>
      <point x="623.0" y="496.0" type="line"/>
      <point x="613.0" y="293.0" type="line"/>
      <point x="612.0" y="275.0"/>
      <point x="612.0" y="260.0"/>
      <point x="612.0" y="257.0" type="line"/>
      <point x="612.0" y="205.0"/>
      <point x="649.0" y="171.0"/>
      <point x="674.0" y="171.0" type="line"/>
      <point x="705.0" y="171.0"/>
      <point x="748.0" y="222.0"/>
      <point x="771.0" y="307.0"/>
      <point x="771.0" y="358.0" type="line"/>
      <point x="771.0" y="451.0"/>
      <point x="696.0" y="580.0"/>
      <point x="565.0" y="648.0"/>
      <point x="482.0" y="648.0" type="line"/>
      <point x="368.0" y="648.0"/>
      <point x="211.0" y="554.0"/>
      <point x="130.0" y="389.0"/>
      <point x="130.0" y="283.0" type="line"/>
      <point x="130.0" y="135.0"/>
      <point x="286.0" y="-23.0"/>
      <point x="433.0" y="-23.0" type="line"/>
      <point x="494.0" y="-23.0"/>
      <point x="605.0" y="4.0"/>
      <point x="648.0" y="20.0" type="line"/>
      <point x="648.0" y="-48.0" type="line"/>
      <point x="605.0" y="-66.0"/>
      <point x="498.0" y="-89.0"/>
      <point x="433.0" y="-89.0" type="line"/>
      <point x="315.0" y="-89.0"/>
      <point x="147.0" y="-1.0"/>
      <point x="58.0" y="164.0"/>
      <point x="58.0" y="280.0" type="line"/>
      <point x="58.0" y="373.0"/>
      <point x="116.0" y="532.0"/>
      <point x="226.0" y="649.0"/>
      <point x="383.0" y="714.0"/>
      <point x="482.0" y="714.0" type="line"/>
      <point x="586.0" y="714.0"/>
      <point x="748.0" y="628.0"/>
      <point x="841.0" y="468.0"/>
    </contour>
    <contour>
      <point x="336.0" y="293.0" type="line"/>
      <point x="336.0" y="229.0"/>
      <point x="387.0" y="171.0"/>
      <point x="430.0" y="171.0" type="line"/>
      <point x="486.0" y="171.0"/>
      <point x="535.0" y="255.0"/>
      <point x="539.0" y="322.0" type="line"/>
      <point x="545.0" y="447.0" type="line"/>
      <point x="532.0" y="451.0"/>
      <point x="492.0" y="457.0"/>
      <point x="471.0" y="457.0" type="line"/>
      <point x="422.0" y="457.0"/>
      <point x="362.0" y="409.0"/>
      <point x="336.0" y="334.0"/>
    </contour>
  </outline>
</glyph>
<glyph name="uni0046" format="2">
  <advance width="519.0"/>
  <unicode hex="0046"/>
  <outline>
    <contour>
      <point x="187.0" y="0.0" type="line"/>
      <point x="97.0" y="0.0" type="line"/>
      <point x="97.0" y="714.0" type="line"/>
      <point x="496.0" y="714.0" type="line"/>
      <point x="496.0" y="635.0" type="line"/>
      <point x="187.0" y="635.0" type="line"/>
      <point x="187.0" y="382.0" type="line"/>
      <point x="477.0" y="382.0" type="line"/>
      <point x="477.0" y="303.0" type="line"/>
      <point x="187.0" y="303.0" type="line"/>
    </contour>
  </outline>
</glyph>
<glyph name="uni004A" format="2">
  <advance width="273.0"/>
  <unicode hex="004A"/>
  <outline>
    <contour>
      <point x="-4.0" y="-190.0" type="line"/>
      <point x="-28.0" y="-190.0"/>
      <point x="-64.0" y="-183.0"/>
      <point x="-78.0" y="-177.0" type="line"/>
      <point x="-78.0" y="-101.0" type="line"/>
      <point x="-62.0" y="-105.0"/>
      <point x="-26.0" y="-111.0"/>
      <point x="-6.0" y="-111.0" type="line"/>
      <point x="19.0" y="-111.0"/>
      <point x="64.0" y="-91.0"/>
      <point x="92.0" y="-41.0"/>
      <point x="92.0" y="4.0" type="line"/>
      <point x="92.0" y="714.0" type="line"/>
      <point x="182.0" y="714.0" type="line"/>
      <point x="182.0" y="11.0" type="line"/>
      <point x="182.0" y="-92.0"/>
      <point x="80.0" y="-190.0"/>
    </contour>
  </outline>
</glyph>
<glyph name="uni0054" format="2">
  <advance width="556.0"/>
  <unicode hex="0054"/>
  <outline>
    <contour>
      <point x="323.0" y="0.0" type="line"/>
      <point x="233.0" y="0.0" type="line"/>
      <point x="233.0" y="635.0" type="line"/>
      <point x="10.0" y="635.0" type="line"/>
      <point x="10.0" y="714.0" type="line"/>
      <point x="545.0" y="714.0" type="line"/>
      <point x="545.0" y="635.0" type="line"/>
      <point x="323.0" y="635.0" type="line"/>
    </contour>
  </outline>
</glyph>
<glyph name="uni0059" format="2">
  <advance width="566.0"/>
  <unicode hex="0059"/>
  <outline>
    <contour>
      <point x="283.0" y="363.0" type="line"/>
      <point x="469.0" y="714.0" type="line"/>
      <point x="566.0" y="714.0" type="line"/>
      <point x="328.0" y="277.0" type="line"/>
      <point x="328.0" y="0.0" type="line"/>
      <point x="238.0" y="0.0" type="line"/>
      <point x="238.0" y="273.0" type="line"/>
      <point x="0.0" y="714.0" type="line"/>
      <point x="98.0" y="714.0" type="line"/>
    </contour>
  </outline>
</glyph>
<glyph name="uni005B" format="2">
  <advance width="329.0"/>
  <unicode hex="005B"/>
  <outline>
    <contour>
      <point x="304.0" y="-158.0" type="line"/>
      <point x="80.0" y="-158.0" type="line"/>
      <point x="80.0" y="714.0" type="line"/>
      <point x="304.0" y="714.0" type="line"/>
      <point x="304.0" y="642.0" type="line"/>
      <point x="166.0" y="642.0" type="line"/>
      <point x="166.0" y="-86.0" type="line"/>
      <point x="304.0" y="-86.0" type="line"/>
    </contour>
  </outline>
</glyph>
<glyph name="uni005C" format="2">
  <advance width="372.0"/>
  <unicode hex="005C"/>
  <outline>
    <contour>
      <point x="96.0" y="714.0" type="line"/>
      <point x="363.0" y="0.0" type="line"/>
      <point x="276.0" y="0.0" type="line"/>
      <point x="10.0" y="714.0" type="line"/>
    </contour>
  </outline>
</glyph>
<glyph name="uni005D" format="2">
  <advance width="329.0"/>
  <unicode hex="005D"/>
  <outline>
    <contour>
      <point x="25.0" y="-86.0" type="line"/>
      <point x="163.0" y="-86.0" type="line"/>
      <point x="163.0" y="642.0" type="line"/>
      <point x="25.0" y="642.0" type="line"/>
      <point x="25.0" y="714.0" type="line"/>
      <point x="249.0" y="714.0" type="line"/>
      <point x="249.0" y="-158.0" type="line"/>
      <point x="25.0" y="-158.0" type="line"/>
    </contour>
  </outline>
</glyph>
<glyph name="uni005E" format="2">
  <advance width="572.0"/>
  <unicode hex="005E"/>
  <outline>
    <contour>
      <point x="38.0" y="267.0" type="line"/>
      <point x="250.0" y="719.0" type="line"/>
      <point x="300.0" y="719.0" type="line"/>
      <point x="534.0" y="267.0" type="line"/>
      <point x="456.0" y="267.0" type="line"/>
      <point x="276.0" y="626.0" type="line"/>
      <point x="116.0" y="267.0" type="line"/>
    </contour>
  </outline>
</glyph>
<glyph name="uni005F" format="2">
  <advance width="444.0"/>
  <unicode hex="005F"/>
  <outline>
    <contour>
      <point x="446.0" y="-154.0" type="line"/>
      <point x="-2.0" y="-154.0" type="line"/>
      <point x="-2.0" y="-90.0" type="line"/>
      <point x="446.0" y="-90.0" type="line"/>
    </contour>
  </outline>
</glyph>
<glyph name="uni0060" format="2">
  <advance width="281.0"/>
  <unicode hex="0060"/>
  <outline>
    <contour>
      <point x="145.0" y="766.0" type="line"/>
      <point x="156.0" y="744.0"/>
      <point x="189.0" y="689.0"/>
      <point x="226.0" y="637.0"/>
      <point x="241.0" y="618.0" type="line"/>
      <point x="241.0" y="606.0" type="line"/>
      <point x="182.0" y="606.0" type="line"/>
      <point x="159.0" y="624.0"/>
      <point x="101.0" y="681.0"/>
      <point x="52.0" y="738.0"/>
      <point x="40.0" y="756.0" type="line"/>
      <point x="40.0" y="766.0" type="line"/>
    </contour>
  </outline>
</glyph>
<glyph name="uni006C" format="2">
  <advance width="258.0"/>
  <unicode hex="006C"/>
  <outline>
    <contour>
      <point x="173.0" y="0.0" type="line"/>
      <point x="85.0" y="0.0" type="line"/>
      <point x="85.0" y="760.0" type="line"/>
      <point x="173.0" y="760.0" type="line"/>
    </contour>
  </outline>
</glyph>
<glyph name="uni006E" format="2">
  <advance width="618.0"/>
  <unicode hex="006E"/>
  <outline>
    <contour>
      <point x="343.0" y="546.0" type="line"/>
      <point x="439.0" y="546.0"/>
      <point x="537.0" y="453.0"/>
      <point x="537.0" y="349.0" type="line"/>
      <point x="537.0" y="0.0" type="line"/>
      <point x="450.0" y="0.0" type="line"/>
      <point x="450.0" y="343.0" type="line"/>
      <point x="450.0" y="472.0"/>
      <point x="330.0" y="472.0" type="line"/>
      <point x="241.0" y="472.0"/>
      <point x="173.0" y="372.0"/>
      <point x="173.0" y="278.0" type="line"/>
      <point x="173.0" y="0.0" type="line"/>
      <point x="85.0" y="0.0" type="line"/>
      <point x="85.0" y="536.0" type="line"/>
      <point x="156.0" y="536.0" type="line"/>
      <point x="169.0" y="463.0" type="line"/>
      <point x="174.0" y="463.0" type="line"/>
      <point x="200.0" y="505.0"/>
      <point x="292.0" y="546.0"/>
    </contour>
  </outline>
</glyph>
<glyph name="uni0070" format="2">
  <advance width="615.0"/>
  <unicode hex="0070"/>
  <outline>
    <contour>
      <point x="340.0" y="546.0" type="line"/>
      <point x="439.0" y="546.0"/>
      <point x="560.0" y="408.0"/>
      <point x="560.0" y="269.0" type="line"/>
      <point x="560.0" y="132.0"/>
      <point x="439.0" y="-10.0"/>
      <point x="339.0" y="-10.0" type="line"/>
      <point x="277.0" y="-10.0"/>
      <point x="196.0" y="37.0"/>
      <point x="173.0" y="68.0" type="line"/>
      <point x="167.0" y="68.0" type="line"/>
      <point x="169.0" y="51.0"/>
      <point x="173.0" y="-1.0"/>
      <point x="173.0" y="-20.0" type="line"/>
      <point x="173.0" y="-240.0" type="line"/>
      <point x="85.0" y="-240.0" type="line"/>
      <point x="85.0" y="536.0" type="line"/>
      <point x="157.0" y="536.0" type="line"/>
      <point x="169.0" y="463.0" type="line"/>
      <point x="173.0" y="463.0" type="line"/>
      <point x="197.0" y="498.0"/>
      <point x="275.0" y="546.0"/>
    </contour>
    <contour>
      <point x="324.0" y="472.0" type="line"/>
      <point x="242.0" y="472.0"/>
      <point x="175.0" y="380.0"/>
      <point x="173.0" y="286.0" type="line"/>
      <point x="173.0" y="269.0" type="line"/>
      <point x="173.0" y="170.0"/>
      <point x="238.0" y="63.0"/>
      <point x="326.0" y="63.0" type="line"/>
      <point x="375.0" y="63.0"/>
      <point x="438.0" y="117.0"/>
      <point x="469.0" y="210.0"/>
      <point x="469.0" y="270.0" type="line"/>
      <point x="469.0" y="362.0"/>
      <point x="398.0" y="472.0"/>
    </contour>
  </outline>
</glyph>
<glyph name="uni007B" format="2">
  <advance width="380.0"/>
  <unicode hex="007B"/>
  <outline>
    <contour>
      <point x="348.0" y="-158.0" type="line"/>
      <point x="256.0" y="-157.0"/>
      <point x="150.0" y="-79.0"/>
      <point x="150.0" y="1.0" type="line"/>
      <point x="150.0" y="148.0" type="line"/>
      <point x="150.0" y="199.0"/>
      <point x="87.0" y="242.0"/>
      <point x="28.0" y="242.0" type="line"/>
      <point x="28.0" y="315.0" type="line"/>
      <point x="87.0" y="316.0"/>
      <point x="150.0" y="358.0"/>
      <point x="150.0" y="408.0" type="line"/>
      <point x="150.0" y="556.0" type="line"/>
      <point x="150.0" y="636.0"/>
      <point x="260.0" y="714.0"/>
      <point x="348.0" y="714.0" type="line"/>
      <point x="348.0" y="642.0" type="line"/>
      <point x="296.0" y="641.0"/>
      <point x="237.0" y="597.0"/>
      <point x="237.0" y="548.0" type="line"/>
      <point x="237.0" y="404.0" type="line"/>
      <point x="237.0" y="301.0"/>
      <point x="128.0" y="282.0" type="line"/>
      <point x="128.0" y="276.0" type="line"/>
      <point x="237.0" y="257.0"/>
      <point x="237.0" y="154.0" type="line"/>
      <point x="237.0" y="7.0" type="line"/>
      <point x="237.0" y="-42.0"/>
      <point x="295.0" y="-85.0"/>
      <point x="348.0" y="-86.0" type="line"/>
    </contour>
  </outline>
</glyph>
<glyph name="uni007C" format="2">
  <advance width="551.0"/>
  <unicode hex="007C"/>
  <outline>
    <contour>
      <point x="239.0" y="760.0" type="line"/>
      <point x="312.0" y="760.0" type="line"/>
      <point x="312.0" y="-241.0" type="line"/>
      <point x="239.0" y="-241.0" type="line"/>
    </contour>
  </outline>
</glyph>
<glyph name="uni007D" format="2">
  <advance width="380.0"/>
  <unicode hex="007D"/>
  <outline>
    <contour>
      <point x="32.0" y="-86.0" type="line"/>
      <point x="84.0" y="-84.0"/>
      <point x="143.0" y="-41.0"/>
      <point x="143.0" y="8.0" type="line"/>
      <point x="143.0" y="153.0" type="line"/>
      <point x="143.0" y="256.0"/>
      <point x="252.0" y="275.0" type="line"/>
      <point x="252.0" y="281.0" type="line"/>
      <point x="143.0" y="300.0"/>
      <point x="143.0" y="403.0" type="line"/>
      <point x="143.0" y="549.0" type="line"/>
      <point x="143.0" y="598.0"/>
      <point x="85.0" y="641.0"/>
      <point x="32.0" y="642.0" type="line"/>
      <point x="32.0" y="714.0" type="line"/>
      <point x="124.0" y="713.0"/>
      <point x="230.0" y="635.0"/>
      <point x="230.0" y="555.0" type="line"/>
      <point x="230.0" y="409.0" type="line"/>
      <point x="230.0" y="358.0"/>
      <point x="293.0" y="315.0"/>
      <point x="352.0" y="315.0" type="line"/>
      <point x="352.0" y="242.0" type="line"/>
      <point x="293.0" y="241.0"/>
      <point x="230.0" y="199.0"/>
      <point x="230.0" y="149.0" type="line"/>
      <point x="230.0" y="0.0" type="line"/>
      <point x="230.0" y="-79.0"/>
      <point x="120.0" y="-158.0"/>
      <point x="32.0" y="-158.0" type="line"/>
    </contour>
  </outline>
</glyph>
<glyph name="uni007E" format="2">
  <advance width="572.0"/>
  <unicode hex="007E"/>
  <outline>
    <contour>
      <point x="269.0" y="319.0" type="line"/>
      <point x="233.0" y="335.0"/>
      <point x="186.0" y="346.0"/>
      <point x="164.0" y="346.0" type="line"/>
      <point x="136.0" y="346.0"/>
      <point x="74.0" y="312.0"/>
      <point x="50.0" y="287.0" type="line"/>
      <point x="50.0" y="365.0" type="line"/>
      <point x="98.0" y="418.0"/>
      <point x="170.0" y="418.0" type="line"/>
      <point x="199.0" y="418.0"/>
      <point x="256.0" y="406.0"/>
      <point x="302.0" y="386.0" type="line"/>
      <point x="338.0" y="370.0"/>
      <point x="385.0" y="359.0"/>
      <point x="406.0" y="359.0" type="line"/>
      <point x="435.0" y="359.0"/>
      <point x="497.0" y="393.0"/>
      <point x="521.0" y="418.0" type="line"/>
      <point x="521.0" y="341.0" type="line"/>
      <point x="472.0" y="287.0"/>
      <point x="401.0" y="287.0" type="line"/>
      <point x="373.0" y="287.0"/>
      <point x="314.0" y="300.0"/>
    </contour>
  </outline>
</glyph>
<glyph name="uni0082" format="2">
  <advance width="500"/>
  <unicode hex="0082"/>
  <unicode hex="201A"/>
  <outline>
    <contour>
      <point x="317" y="-50" type="line"/>
      <point x="317" y="-100"/>
      <point x="274" y="-147" type="line"/>
      <point x="243" y="-182"/>
      <point x="208" y="-199" type="line"/>
      <point x="196" y="-187" type="line"/>
      <point x="277" y="-123"/>
      <point x="277" y="-74" type="line"/>
      <point x="277" y="-53"/>
      <point x="263" y="-53" type="line"/>
      <point x="260" y="-53"/>
      <point x="252" y="-57" type="line"/>
      <point x="245" y="-59"/>
      <point x="239" y="-59" type="line"/>
      <point x="183" y="-59"/>
      <point x="183" y="-8" type="line"/>
      <point x="183" y="54"/>
      <point x="235" y="54" type="line"/>
      <point x="262" y="54"/>
      <point x="284" y="36" type="line"/>
      <point x="317" y="9"/>
    </contour>
  </outline>
</glyph>
<glyph name="uni0083" format="2">
  <advance width="500"/>
  <unicode hex="0083"/>
  <unicode hex="0192"/>
  <outline>
    <contour>
      <point x="477" y="608" type="line"/>
      <point x="477" y="563"/>
      <point x="439" y="563" type="line"/>
      <point x="425" y="563"/>
      <point x="416" y="574" type="line"/>
      <point x="408" y="584"/>
      <point x="408" y="595" type="line"/>
      <point x="408" y="604"/>
      <point x="415" y="618" type="line"/>
      <point x="421" y="631"/>
      <point x="421" y="635" type="line"/>
      <point x="421" y="657"/>
      <point x="394" y="657" type="line"/>
      <point x="349" y="657"/>
      <point x="327" y="577" type="line"/>
      <point x="311" y="517"/>
      <point x="300" y="380" type="line"/>
      <point x="419" y="380" type="line"/>
      <point x="413" y="358" type="line"/>
      <point x="297" y="358" type="line"/>
      <point x="275" y="164"/>
      <point x="257" y="57" type="line"/>
      <point x="234" y="-85"/>
      <point x="197" y="-143" type="line"/>
      <point x="161" y="-199"/>
      <point x="94" y="-199" type="line"/>
      <point x="62" y="-199"/>
      <point x="43" y="-178" type="line"/>
      <point x="24" y="-157"/>
      <point x="24" y="-128" type="line"/>
      <point x="24" y="-111"/>
      <point x="35" y="-99" type="line"/>
      <point x="46" y="-86"/>
      <point x="63" y="-86" type="line"/>
      <point x="91" y="-86"/>
      <point x="91" y="-120" type="line"/>
      <point x="91" y="-132"/>
      <point x="84" y="-146" type="line"/>
      <point x="77" y="-160"/>
      <point x="77" y="-164" type="line"/>
      <point x="77" y="-185"/>
      <point x="100" y="-185" type="line"/>
      <point x="173" y="-185"/>
      <point x="187" y="-13" type="line"/>
      <point x="201" y="157" type="line"/>
      <point x="210" y="214"/>
      <point x="225" y="337" type="line"/>
      <point x="227" y="358" type="line"/>
      <point x="121" y="358" type="line"/>
      <point x="126" y="380" type="line"/>
      <point x="232" y="380" type="line"/>
      <point x="268" y="676"/>
      <point x="403" y="676" type="line"/>
      <point x="436" y="676"/>
      <point x="458" y="652" type="line"/>
      <point x="477" y="633"/>
    </contour>
  </outline>
</glyph>
<glyph name="uni0084" format="2">
  <advance width="500"/>
  <unicode hex="0084"/>
  <unicode hex="201E"/>
  <outline>
    <contour>
      <point x="405" y="-28" type="line"/>
      <point x="405" y="-78"/>
      <point x="366" y="-130" type="line"/>
      <point x="335" y="-171"/>
      <point x="305" y="-188" type="line"/>
      <point x="301" y="-176" type="line"/>
      <point x="378" y="-115"/>
      <point x="378" y="-52" type="line"/>
      <point x="378" y="-31"/>
      <point x="359" y="-31" type="line"/>
      <point x="355" y="-31"/>
      <point x="347" y="-33" type="line"/>
      <point x="339" y="-34"/>
      <point x="334" y="-34" type="line"/>
      <point x="280" y="-34"/>
      <point x="280" y="15" type="line"/>
      <point x="280" y="76"/>
      <point x="331" y="76" type="line"/>
      <point x="356" y="76"/>
      <point x="375" y="58" type="line"/>
      <point x="405" y="31"/>
    </contour>
    <contour>
      <point x="219" y="-28" type="line"/>
      <point x="219" y="-78"/>
      <point x="180" y="-130" type="line"/>
      <point x="149" y="-170"/>
      <point x="120" y="-188" type="line"/>
      <point x="115" y="-176" type="line"/>
      <point x="192" y="-115"/>
      <point x="192" y="-52" type="line"/>
      <point x="192" y="-31"/>
      <point x="173" y="-31" type="line"/>
      <point x="170" y="-31"/>
      <point x="162" y="-33" type="line"/>
      <point x="154" y="-34"/>
      <point x="149" y="-34" type="line"/>
      <point x="96" y="-34"/>
      <point x="96" y="15" type="line"/>
      <point x="96" y="76"/>
      <point x="145" y="76" type="line"/>
      <point x="170" y="76"/>
      <point x="189" y="58" type="line"/>
      <point x="219" y="31"/>
    </contour>
  </outline>
</glyph>
<glyph name="uni0085" format="2">
  <advance width="500"/>
  <unicode hex="0085"/>
  <outline>
    <contour>
      <point x="494" y="-14" type="line"/>
      <point x="494" y="-33"/>
      <point x="479" y="-48" type="line"/>
      <point x="465" y="-63"/>
      <point x="444" y="-63" type="line"/>
      <point x="423" y="-63"/>
      <point x="409" y="-48" type="line"/>
      <point x="395" y="-34"/>
      <point x="395" y="-14" type="line"/>
      <point x="395" y="8"/>
      <point x="410" y="22" type="line"/>
      <point x="424" y="37"/>
      <point x="444" y="37" type="line"/>
      <point x="465" y="37"/>
      <point x="480" y="21" type="line"/>
      <point x="494" y="8"/>
    </contour>
    <contour>
      <point x="298" y="-14" type="line"/>
      <point x="298" y="-33"/>
      <point x="283" y="-48" type="line"/>
      <point x="269" y="-63"/>
      <point x="248" y="-63" type="line"/>
      <point x="227" y="-63"/>
      <point x="213" y="-48" type="line"/>
      <point x="199" y="-34"/>
      <point x="199" y="-14" type="line"/>
      <point x="199" y="8"/>
      <point x="214" y="22" type="line"/>
      <point x="228" y="37"/>
      <point x="248" y="37" type="line"/>
      <point x="269" y="37"/>
      <point x="284" y="21" type="line"/>
      <point x="298" y="8"/>
    </contour>
    <contour>
      <point x="106" y="-13" type="line"/>
      <point x="106" y="-32"/>
      <point x="91" y="-47" type="line"/>
      <point x="77" y="-62"/>
      <point x="56" y="-62" type="line"/>
      <point x="35" y="-62"/>
      <point x="20" y="-46" type="line"/>
      <point x="6" y="-32"/>
      <point x="6" y="-13" type="line"/>
      <point x="6" y="9"/>
      <point x="21" y="23" type="line"/>
      <point x="35" y="38"/>
      <point x="56" y="38" type="line"/>
      <point x="77" y="38"/>
      <point x="92" y="22" type="line"/>
      <point x="106" y="9"/>
    </contour>
  </outline>
</glyph>
<glyph name="uni0086" format="2">
  <advance width="500"/>
  <unicode hex="0086"/>
  <unicode hex="2020"/>
  <outline>
    <contour>
      <point x="415" y="455" type="line"/>
      <point x="415" y="413"/>
      <point x="381" y="413" type="line"/>
      <point x="363" y="413"/>
      <point x="328" y="429" type="line"/>
      <point x="289" y="447"/>
      <point x="239" y="450" type="line"/>
      <point x="239" y="299"/>
      <point x="280" y="250" type="line"/>
      <point x="243" y="161"/>
      <point x="241" y="-50" type="line"/>
      <point x="240" y="-181" type="line"/>
      <point x="232" y="-181" type="line"/>
      <point x="231" y="-50" type="line"/>
      <point x="229" y="145"/>
      <point x="190" y="250" type="line"/>
      <point x="231" y="299"/>
      <point x="231" y="450" type="line"/>
      <point x="181" y="447"/>
      <point x="144" y="430" type="line"/>
      <point x="107" y="413"/>
      <point x="90" y="413" type="line"/>
      <point x="55" y="413"/>
      <point x="55" y="455" type="line"/>
      <point x="55" y="497"/>
      <point x="90" y="497" type="line"/>
      <point x="106" y="497"/>
      <point x="143" y="478" type="line"/>
      <point x="180" y="459"/>
      <point x="231" y="457" type="line"/>
      <point x="232" y="538"/>
      <point x="214" y="587" type="line"/>
      <point x="196" y="635"/>
      <point x="196" y="650" type="line"/>
      <point x="196" y="668"/>
      <point x="208" y="682" type="line"/>
      <point x="220" y="694"/>
      <point x="236" y="694" type="line"/>
      <point x="251" y="694"/>
      <point x="263" y="681" type="line"/>
      <point x="275" y="668"/>
      <point x="275" y="650" type="line"/>
      <point x="275" y="636"/>
      <point x="257" y="587" type="line"/>
      <point x="239" y="538"/>
      <point x="241" y="457" type="line"/>
      <point x="291" y="459"/>
      <point x="328" y="478" type="line"/>
      <point x="364" y="497"/>
      <point x="381" y="497" type="line"/>
      <point x="415" y="497"/>
    </contour>
  </outline>
</glyph>
<glyph name="uni0087" format="2">
  <advance width="500"/>
  <unicode hex="0087"/>
  <unicode hex="2021"/>
  <outline>
    <contour>
      <point x="415" y="456" type="line"/>
      <point x="415" y="414"/>
      <point x="381" y="414" type="line"/>
      <point x="363" y="414"/>
      <point x="328" y="430" type="line"/>
      <point x="289" y="448"/>
      <point x="239" y="451" type="line"/>
      <point x="239" y="383"/>
      <point x="242" y="357" type="line"/>
      <point x="249" y="291"/>
      <point x="277" y="254" type="line"/>
      <point x="249" y="219"/>
      <point x="241" y="154" type="line"/>
      <point x="238" y="127"/>
      <point x="238" y="60" type="line"/>
      <point x="288" y="63"/>
      <point x="327" y="81" type="line"/>
      <point x="363" y="97"/>
      <point x="380" y="97" type="line"/>
      <point x="414" y="97"/>
      <point x="414" y="55" type="line"/>
      <point x="414" y="13"/>
      <point x="380" y="13" type="line"/>
      <point x="363" y="13"/>
      <point x="326" y="33" type="line"/>
      <point x="289" y="52"/>
      <point x="240" y="55" type="line"/>
      <point x="238" y="-27"/>
      <point x="256" y="-74" type="line"/>
      <point x="274" y="-120"/>
      <point x="274" y="-136" type="line"/>
      <point x="274" y="-153"/>
      <point x="262" y="-167" type="line"/>
      <point x="250" y="-182"/>
      <point x="235" y="-182" type="line"/>
      <point x="219" y="-182"/>
      <point x="207" y="-167" type="line"/>
      <point x="195" y="-153"/>
      <point x="195" y="-136" type="line"/>
      <point x="195" y="-120"/>
      <point x="213" y="-73" type="line"/>
      <point x="231" y="-27"/>
      <point x="230" y="55" type="line"/>
      <point x="180" y="52"/>
      <point x="143" y="32" type="line"/>
      <point x="106" y="13"/>
      <point x="89" y="13" type="line"/>
      <point x="54" y="13"/>
      <point x="54" y="55" type="line"/>
      <point x="54" y="97"/>
      <point x="89" y="97" type="line"/>
      <point x="106" y="97"/>
      <point x="143" y="80" type="line"/>
      <point x="180" y="63"/>
      <point x="230" y="60" type="line"/>
      <point x="230" y="213"/>
      <point x="193" y="254" type="line"/>
      <point x="231" y="313"/>
      <point x="231" y="451" type="line"/>
      <point x="181" y="448"/>
      <point x="144" y="431" type="line"/>
      <point x="107" y="414"/>
      <point x="90" y="414" type="line"/>
      <point x="55" y="414"/>
      <point x="55" y="456" type="line"/>
      <point x="55" y="498"/>
      <point x="90" y="498" type="line"/>
      <point x="106" y="498"/>
      <point x="143" y="479" type="line"/>
      <point x="180" y="460"/>
      <point x="231" y="458" type="line"/>
      <point x="232" y="539"/>
      <point x="214" y="588" type="line"/>
      <point x="196" y="637"/>
      <point x="196" y="652" type="line"/>
      <point x="196" y="670"/>
      <point x="208" y="684" type="line"/>
      <point x="220" y="697"/>
      <point x="236" y="697" type="line"/>
      <point x="251" y="697"/>
      <point x="263" y="683" type="line"/>
      <point x="275" y="670"/>
      <point x="275" y="652" type="line"/>
      <point x="275" y="638"/>
      <point x="257" y="588" type="line"/>
      <point x="239" y="539"/>
      <point x="241" y="458" type="line"/>
      <point x="291" y="460"/>
      <point x="328" y="479" type="line"/>
      <point x="364" y="498"/>
      <point x="381" y="498" type="line"/>
      <point x="415" y="498"/>
    </contour>
  </outline>
</glyph>
<glyph name="uni0088" format="2">
  <advance width="500"/>
  <unicode hex="0088"/>
  <unicode hex="02C6"/>
  <outline>
    <contour>
      <point x="402" y="687" type="line"/>
      <point x="344" y="687" type="line"/>
      <point x="250" y="742" type="line"/>
      <point x="156" y="687" type="line"/>
      <point x="98" y="687" type="line"/>
      <point x="211" y="776" type="line"/>
      <point x="289" y="776" type="line"/>
    </contour>
  </outline>
</glyph>
<glyph name="uni0089" format="2">
  <advance width="500"/>
  <unicode hex="0089"/>
  <unicode hex="2030"/>
  <outline>
    <contour>
      <point x="495" y="193" type="line"/>
      <point x="495" y="85"/>
      <point x="466" y="10" type="line"/>
      <point x="437" y="-62"/>
      <point x="400" y="-62" type="line"/>
      <point x="376" y="-62"/>
      <point x="356" y="-30" type="line"/>
      <point x="329" y="11"/>
      <point x="329" y="89" type="line"/>
      <point x="329" y="170"/>
      <point x="363" y="239" type="line"/>
      <point x="396" y="308"/>
      <point x="437" y="308" type="line"/>
      <point x="465" y="308"/>
      <point x="480" y="273" type="line"/>
      <point x="495" y="241"/>
    </contour>
    <contour>
      <point x="312" y="706" type="line"/>
      <point x="47" y="-61" type="line"/>
      <point x="20" y="-61" type="line"/>
      <point x="259" y="628" type="line"/>
      <point x="238" y="591"/>
      <point x="202" y="587" type="line"/>
      <point x="185" y="585"/>
      <point x="169" y="594" type="line"/>
      <point x="170" y="563"/>
      <point x="170" y="550" type="line"/>
      <point x="170" y="464"/>
      <point x="145" y="390" type="line"/>
      <point x="116" y="305"/>
      <point x="73" y="305" type="line"/>
      <point x="52" y="305"/>
      <point x="34" y="331" type="line"/>
      <point x="6" y="371"/>
      <point x="6" y="462" type="line"/>
      <point x="6" y="535"/>
      <point x="37" y="602" type="line"/>
      <point x="70" y="675"/>
      <point x="116" y="675" type="line"/>
      <point x="136" y="675"/>
      <point x="156" y="638" type="line"/>
      <point x="175" y="602"/>
      <point x="201" y="603" type="line"/>
      <point x="219" y="604"/>
      <point x="237" y="626" type="line"/>
      <point x="249" y="641"/>
      <point x="258" y="656" type="line"/>
      <point x="271" y="679"/>
      <point x="286" y="706" type="line"/>
    </contour>
    <contour>
      <point x="312" y="193" type="line"/>
      <point x="312" y="86"/>
      <point x="282" y="10" type="line"/>
      <point x="254" y="-62"/>
      <point x="217" y="-62" type="line"/>
      <point x="193" y="-62"/>
      <point x="173" y="-30" type="line"/>
      <point x="146" y="11"/>
      <point x="146" y="89" type="line"/>
      <point x="146" y="170"/>
      <point x="180" y="239" type="line"/>
      <point x="213" y="308"/>
      <point x="254" y="308" type="line"/>
      <point x="282" y="308"/>
      <point x="297" y="273" type="line"/>
      <point x="312" y="241"/>
    </contour>
    <contour>
      <point x="156" y="547" type="line"/>
      <point x="156" y="579"/>
      <point x="155" y="583" type="line"/>
      <point x="153" y="603"/>
      <point x="138" y="615" type="line"/>
      <point x="124" y="626"/>
      <point x="113" y="646" type="line"/>
      <point x="81" y="623"/>
      <point x="61" y="533" type="line"/>
      <point x="46" y="463"/>
      <point x="46" y="413" type="line"/>
      <point x="46" y="332"/>
      <point x="81" y="332" type="line"/>
      <point x="109" y="332"/>
      <point x="133" y="406" type="line"/>
      <point x="156" y="475"/>
    </contour>
    <contour>
      <point x="481" y="180" type="line"/>
      <point x="481" y="229"/>
      <point x="469" y="257" type="line"/>
      <point x="459" y="281"/>
      <point x="445" y="281" type="line"/>
      <point x="416" y="281"/>
      <point x="392" y="186" type="line"/>
      <point x="372" y="104"/>
      <point x="372" y="45" type="line"/>
      <point x="372" y="-35"/>
      <point x="401" y="-35" type="line"/>
      <point x="435" y="-35"/>
      <point x="460" y="47" type="line"/>
      <point x="481" y="116"/>
    </contour>
    <contour>
      <point x="298" y="180" type="line"/>
      <point x="298" y="229"/>
      <point x="286" y="257" type="line"/>
      <point x="276" y="281"/>
      <point x="261" y="281" type="line"/>
      <point x="233" y="281"/>
      <point x="209" y="186" type="line"/>
      <point x="189" y="104"/>
      <point x="189" y="45" type="line"/>
      <point x="189" y="-35"/>
      <point x="218" y="-35" type="line"/>
      <point x="251" y="-35"/>
      <point x="276" y="47" type="line"/>
      <point x="298" y="117"/>
    </contour>
  </outline>
</glyph>
<glyph name="uni008A" format="2">
  <advance width="500"/>
  <unicode hex="008A"/>
  <unicode hex="0160"/>
  <outline>
    <contour>
      <point x="340" y="800" type="line"/>
      <point x="280" y="700" type="line"/>
      <point x="231" y="700" type="line"/>
      <point x="169" y="800" type="line"/>
      <point x="194" y="801" type="line"/>
      <point x="256" y="739" type="line"/>
      <point x="319" y="800" type="line"/>
    </contour>
    <contour>
      <point x="461" y="120" type="line"/>
      <point x="461" y="46"/>
      <point x="414" y="-10" type="line"/>
      <point x="358" y="-72"/>
      <point x="263" y="-72" type="line"/>
      <point x="221" y="-72"/>
      <point x="178" y="-53" type="line"/>
      <point x="136" y="-35"/>
      <point x="127" y="-35" type="line"/>
      <point x="94" y="-35"/>
      <point x="90" y="-71" type="line"/>
      <point x="68" y="-71" type="line"/>
      <point x="39" y="150" type="line"/>
      <point x="62" y="150" type="line"/>
      <point x="118" y="-42"/>
      <point x="254" y="-42" type="line"/>
      <point x="313" y="-42"/>
      <point x="355" y="-1" type="line"/>
      <point x="397" y="39"/>
      <point x="397" y="87" type="line"/>
      <point x="397" y="138"/>
      <point x="366" y="178" type="line"/>
      <point x="331" y="223"/>
      <point x="227" y="293" type="line"/>
      <point x="134" y="355"/>
      <point x="115" y="376" type="line"/>
      <point x="67" y="424"/>
      <point x="67" y="494" type="line"/>
      <point x="67" y="580"/>
      <point x="119" y="630" type="line"/>
      <point x="166" y="676"/>
      <point x="235" y="676" type="line"/>
      <point x="268" y="676"/>
      <point x="315" y="657" type="line"/>
      <point x="362" y="639"/>
      <point x="369" y="639" type="line"/>
      <point x="388" y="639"/>
      <point x="392" y="652" type="line"/>
      <point x="394" y="664"/>
      <point x="396" y="676" type="line"/>
      <point x="418" y="676" type="line"/>
      <point x="439" y="453" type="line"/>
      <point x="416" y="453" type="line"/>
      <point x="400" y="533"/>
      <point x="360" y="585" type="line"/>
      <point x="311" y="647"/>
      <point x="240" y="647" type="line"/>
      <point x="198" y="647"/>
      <point x="164" y="620" type="line"/>
      <point x="124" y="586"/>
      <point x="124" y="532" type="line"/>
      <point x="124" y="463"/>
      <point x="209" y="397" type="line"/>
      <point x="288" y="341"/>
      <point x="368" y="283" type="line"/>
      <point x="456" y="209"/>
    </contour>
  </outline>
</glyph>
<glyph name="uni008B" format="2">
  <advance width="500"/>
  <unicode hex="008B"/>
  <unicode hex="2039"/>
  <outline>
    <contour>
      <point x="351" y="-17" type="line"/>
      <point x="351" y="-21"/>
      <point x="347" y="-21" type="line"/>
      <point x="343" y="-21"/>
      <point x="306" y="21" type="line"/>
      <point x="253" y="81"/>
      <point x="227" y="107" type="line"/>
      <point x="194" y="141"/>
      <point x="149" y="188" type="line"/>
      <point x="176" y="215" type="line"/>
      <point x="225" y="263"/>
      <point x="336" y="381" type="line"/>
      <point x="346" y="395"/>
      <point x="347" y="395" type="line"/>
      <point x="350" y="395"/>
      <point x="350" y="386" type="line"/>
      <point x="350" y="365"/>
      <point x="225" y="188" type="line"/>
      <point x="307" y="66" type="line"/>
      <point x="351" y="2"/>
    </contour>
  </outline>
</glyph>
<glyph name="uni008C" format="2">
  <advance width="500"/>
  <unicode hex="008C"/>
  <unicode hex="0152"/>
  <outline>
    <contour>
      <point x="498" y="81" type="line"/>
      <point x="472" y="-64" type="line"/>
      <point x="271" y="-64" type="line"/>
      <point x="254" y="-64"/>
      <point x="219" y="-67" type="line"/>
      <point x="184" y="-69"/>
      <point x="167" y="-69" type="line"/>
      <point x="96" y="-69"/>
      <point x="50" y="3" type="line"/>
      <point x="1" y="80"/>
      <point x="1" y="209" type="line"/>
      <point x="1" y="362"/>
      <point x="54" y="441" type="line"/>
      <point x="103" y="515"/>
      <point x="190" y="515" type="line"/>
      <point x="205" y="515"/>
      <point x="236" y="512" type="line"/>
      <point x="267" y="510"/>
      <point x="283" y="510" type="line"/>
      <point x="475" y="510" type="line"/>
      <point x="475" y="388" type="line"/>
      <point x="462" y="388" type="line"/>
      <point x="456" y="449"/>
      <point x="434" y="468" type="line"/>
      <point x="413" y="486"/>
      <point x="362" y="486" type="line"/>
      <point x="328" y="486" type="line"/>
      <point x="305" y="486"/>
      <point x="301" y="484" type="line"/>
      <point x="291" y="480"/>
      <point x="291" y="463" type="line"/>
      <point x="291" y="250" type="line"/>
      <point x="383" y="250"/>
      <point x="404" y="263" type="line"/>
      <point x="424" y="275"/>
      <point x="430" y="337" type="line"/>
      <point x="443" y="337" type="line"/>
      <point x="443" y="134" type="line"/>
      <point x="430" y="134" type="line"/>
      <point x="424" y="205"/>
      <point x="401" y="217" type="line"/>
      <point x="384" y="226"/>
      <point x="291" y="226" type="line"/>
      <point x="291" y="2" type="line"/>
      <point x="291" y="-26"/>
      <point x="299" y="-34" type="line"/>
      <point x="304" y="-39"/>
      <point x="322" y="-39" type="line"/>
      <point x="396" y="-37" type="line"/>
      <point x="442" y="-36"/>
      <point x="484" y="81" type="line"/>
    </contour>
    <contour>
      <point x="240" y="50" type="line"/>
      <point x="240" y="393" type="line"/>
      <point x="240" y="486"/>
      <point x="179" y="486" type="line"/>
      <point x="124" y="486"/>
      <point x="90" y="408" type="line"/>
      <point x="59" y="333"/>
      <point x="59" y="222" type="line"/>
      <point x="59" y="104"/>
      <point x="89" y="34" type="line"/>
      <point x="121" y="-40"/>
      <point x="179" y="-40" type="line"/>
      <point x="240" y="-40"/>
    </contour>
  </outline>
</glyph>
<glyph name="uni0091" format="2">
  <advance width="500"/>
  <unicode hex="0091"/>
  <outline>
    <contour>
      <point x="467" y="473" type="line"/>
      <point x="467" y="413"/>
      <point x="416" y="413" type="line"/>
      <point x="392" y="413"/>
      <point x="373" y="431" type="line"/>
      <point x="344" y="459"/>
      <point x="344" y="517" type="line"/>
      <point x="344" y="566"/>
      <point x="382" y="619" type="line"/>
      <point x="413" y="660"/>
      <point x="443" y="676" type="line"/>
      <point x="448" y="666" type="line"/>
      <point x="369" y="604"/>
      <point x="369" y="541" type="line"/>
      <point x="369" y="519"/>
      <point x="390" y="519" type="line"/>
      <point x="392" y="519"/>
      <point x="400" y="521" type="line"/>
      <point x="407" y="523"/>
      <point x="413" y="523" type="line"/>
      <point x="467" y="523"/>
    </contour>
  </outline>
</glyph>
<glyph name="uni0093" format="2">
  <advance width="500"/>
  <unicode hex="0093"/>
  <outline>
    <contour>
      <point x="463" y="473" type="line"/>
      <point x="463" y="413"/>
      <point x="412" y="413" type="line"/>
      <point x="388" y="413"/>
      <point x="369" y="431" type="line"/>
      <point x="340" y="458"/>
      <point x="340" y="517" type="line"/>
      <point x="340" y="566"/>
      <point x="378" y="619" type="line"/>
      <point x="408" y="660"/>
      <point x="438" y="676" type="line"/>
      <point x="442" y="666" type="line"/>
      <point x="365" y="604"/>
      <point x="365" y="541" type="line"/>
      <point x="365" y="519"/>
      <point x="384" y="519" type="line"/>
      <point x="388" y="519"/>
      <point x="396" y="521" type="line"/>
      <point x="404" y="523"/>
      <point x="409" y="523" type="line"/>
      <point x="463" y="523"/>
    </contour>
    <contour>
      <point x="237" y="473" type="line"/>
      <point x="237" y="413"/>
      <point x="186" y="413" type="line"/>
      <point x="162" y="413"/>
      <point x="143" y="431" type="line"/>
      <point x="114" y="459"/>
      <point x="114" y="517" type="line"/>
      <point x="114" y="566"/>
      <point x="152" y="619" type="line"/>
      <point x="183" y="660"/>
      <point x="213" y="676" type="line"/>
      <point x="218" y="666" type="line"/>
      <point x="139" y="604"/>
      <point x="139" y="541" type="line"/>
      <point x="139" y="519"/>
      <point x="160" y="519" type="line"/>
      <point x="162" y="519"/>
      <point x="170" y="521" type="line"/>
      <point x="177" y="523"/>
      <point x="183" y="523" type="line"/>
      <point x="237" y="523"/>
    </contour>
  </outline>
</glyph>
<glyph name="uni0094" format="2">
  <advance width="500"/>
  <unicode hex="0094"/>
  <outline>
    <contour>
      <point x="383" y="572" type="line"/>
      <point x="383" y="521"/>
      <point x="344" y="470" type="line"/>
      <point x="313" y="429"/>
      <point x="283" y="413" type="line"/>
      <point x="279" y="424" type="line"/>
      <point x="356" y="484"/>
      <point x="356" y="548" type="line"/>
      <point x="356" y="568"/>
      <point x="337" y="568" type="line"/>
      <point x="334" y="568"/>
      <point x="325" y="566" type="line"/>
      <point x="317" y="565"/>
      <point x="312" y="565" type="line"/>
      <point x="258" y="565"/>
      <point x="258" y="615" type="line"/>
      <point x="258" y="676"/>
      <point x="309" y="676" type="line"/>
      <point x="334" y="676"/>
      <point x="354" y="658" type="line"/>
      <point x="383" y="631"/>
    </contour>
    <contour>
      <point x="157" y="572" type="line"/>
      <point x="157" y="521"/>
      <point x="118" y="470" type="line"/>
      <point x="88" y="430"/>
      <point x="58" y="413" type="line"/>
      <point x="53" y="424" type="line"/>
      <point x="130" y="484"/>
      <point x="130" y="548" type="line"/>
      <point x="130" y="568"/>
      <point x="111" y="568" type="line"/>
      <point x="108" y="568"/>
      <point x="100" y="566" type="line"/>
      <point x="93" y="565"/>
      <point x="87" y="565" type="line"/>
      <point x="34" y="565"/>
      <point x="34" y="615" type="line"/>
      <point x="34" y="676"/>
      <point x="83" y="676" type="line"/>
      <point x="108" y="676"/>
      <point x="128" y="658" type="line"/>
      <point x="157" y="631"/>
    </contour>
  </outline>
</glyph>
<glyph name="uni0096" format="2">
  <advance width="500"/>
  <unicode hex="0096"/>
  <outline>
    <contour>
      <point x="312" y="285" type="line"/>
      <point x="1" y="285" type="line"/>
      <point x="1" y="324" type="line"/>
      <point x="312" y="324" type="line"/>
    </contour>
  </outline>
</glyph>
<glyph name="uni0097" format="2">
  <advance width="500"/>
  <unicode hex="0097"/>
  <outline>
    <contour>
      <point x="467" y="281" type="line"/>
      <point x="2" y="281" type="line"/>
      <point x="2" y="319" type="line"/>
      <point x="467" y="319" type="line"/>
    </contour>
  </outline>
</glyph>
<glyph name="uni0098" format="2">
  <advance width="500"/>
  <unicode hex="0098"/>
  <unicode hex="02DC"/>
  <outline>
    <contour>
      <point x="389" y="719" type="line"/>
      <point x="351" y="654"/>
      <point x="316" y="654" type="line"/>
      <point x="289" y="654"/>
      <point x="254" y="681" type="line"/>
      <point x="215" y="710"/>
      <point x="180" y="710" type="line"/>
      <point x="150" y="710"/>
      <point x="128" y="658" type="line"/>
      <point x="111" y="688" type="line"/>
      <point x="136" y="752"/>
      <point x="184" y="752" type="line"/>
      <point x="206" y="752"/>
      <point x="251" y="727" type="line"/>
      <point x="303" y="698"/>
      <point x="316" y="698" type="line"/>
      <point x="341" y="698"/>
      <point x="373" y="754" type="line"/>
    </contour>
  </outline>
</glyph>
<glyph name="uni0099" format="2">
  <advance width="500"/>
  <unicode hex="0099"/>
  <unicode hex="2122"/>
  <outline>
    <contour>
      <point x="498" y="624" type="line"/>
      <point x="464" y="619"/>
      <point x="464" y="568" type="line"/>
      <point x="464" y="319" type="line"/>
      <point x="464" y="283"/>
      <point x="469" y="273" type="line"/>
      <point x="474" y="265"/>
      <point x="494" y="264" type="line"/>
      <point x="494" y="244" type="line"/>
      <point x="404" y="244" type="line"/>
      <point x="404" y="264" type="line"/>
      <point x="426" y="266"/>
      <point x="431" y="274" type="line"/>
      <point x="435" y="283"/>
      <point x="435" y="319" type="line"/>
      <point x="435" y="565" type="line"/>
      <point x="346" y="243" type="line"/>
      <point x="259" y="563" type="line"/>
      <point x="259" y="337" type="line"/>
      <point x="259" y="298"/>
      <point x="263" y="284" type="line"/>
      <point x="270" y="265"/>
      <point x="290" y="264" type="line"/>
      <point x="290" y="244" type="line"/>
      <point x="212" y="244" type="line"/>
      <point x="212" y="263" type="line"/>
      <point x="235" y="263"/>
      <point x="239" y="285" type="line"/>
      <point x="241" y="294"/>
      <point x="241" y="310" type="line"/>
      <point x="241" y="337" type="line"/>
      <point x="241" y="574" type="line"/>
      <point x="241" y="617"/>
      <point x="211" y="624" type="line"/>
      <point x="211" y="643" type="line"/>
      <point x="271" y="643" type="line"/>
      <point x="353" y="339" type="line"/>
      <point x="434" y="643" type="line"/>
      <point x="498" y="643" type="line"/>
    </contour>
    <contour>
      <point x="186" y="559" type="line"/>
      <point x="173" y="559" type="line"/>
      <point x="165" y="616"/>
      <point x="139" y="616" type="line"/>
      <point x="109" y="616" type="line"/>
      <point x="109" y="326" type="line"/>
      <point x="109" y="296" type="line"/>
      <point x="110" y="277"/>
      <point x="116" y="271" type="line"/>
      <point x="122" y="266"/>
      <point x="141" y="264" type="line"/>
      <point x="141" y="244" type="line"/>
      <point x="45" y="244" type="line"/>
      <point x="45" y="264" type="line"/>
      <point x="70" y="264"/>
      <point x="77" y="284" type="line"/>
      <point x="80" y="294"/>
      <point x="80" y="326" type="line"/>
      <point x="80" y="616" type="line"/>
      <point x="52" y="616" type="line"/>
      <point x="24" y="616"/>
      <point x="16" y="559" type="line"/>
      <point x="2" y="559" type="line"/>
      <point x="2" y="643" type="line"/>
      <point x="186" y="643" type="line"/>
    </contour>
  </outline>
</glyph>
<glyph name="uni009A" format="2">
  <advance width="500"/>
  <unicode hex="009A"/>
  <unicode hex="0161"/>
  <outline>
    <contour>
      <point x="402" y="563" type="line"/>
      <point x="289" y="473" type="line"/>
      <point x="211" y="473" type="line"/>
      <point x="98" y="563" type="line"/>
      <point x="156" y="563" type="line"/>
      <point x="250" y="508" type="line"/>
      <point x="344" y="563" type="line"/>
    </contour>
    <contour>
      <point x="390" y="35" type="line"/>
      <point x="390" y="-30"/>
      <point x="345" y="-69" type="line"/>
      <point x="305" y="-103"/>
      <point x="254" y="-103" type="line"/>
      <point x="229" y="-103"/>
      <point x="190" y="-90" type="line"/>
      <point x="152" y="-78"/>
      <point x="141" y="-78" type="line"/>
      <point x="129" y="-78"/>
      <point x="125" y="-98" type="line"/>
      <point x="112" y="-98" type="line"/>
      <point x="112" y="64" type="line"/>
      <point x="127" y="64" type="line"/>
      <point x="142" y="-6"/>
      <point x="156" y="-28" type="line"/>
      <point x="184" y="-77"/>
      <point x="248" y="-77" type="line"/>
      <point x="341" y="-77"/>
      <point x="341" y="3" type="line"/>
      <point x="341" y="52"/>
      <point x="288" y="89" type="line"/>
      <point x="232" y="128" type="line"/>
      <point x="157" y="180"/>
      <point x="149" y="187" type="line"/>
      <point x="111" y="224"/>
      <point x="111" y="275" type="line"/>
      <point x="111" y="327"/>
      <point x="142" y="364" type="line"/>
      <point x="179" y="407"/>
      <point x="242" y="407" type="line"/>
      <point x="267" y="407"/>
      <point x="294" y="394" type="line"/>
      <point x="320" y="382"/>
      <point x="326" y="382" type="line"/>
      <point x="336" y="382"/>
      <point x="338" y="397" type="line"/>
      <point x="353" y="397" type="line"/>
      <point x="359" y="257" type="line"/>
      <point x="343" y="257" type="line"/>
      <point x="329" y="336"/>
      <point x="303" y="364" type="line"/>
      <point x="282" y="386"/>
      <point x="241" y="386" type="line"/>
      <point x="201" y="386"/>
      <point x="175" y="358" type="line"/>
      <point x="153" y="335"/>
      <point x="153" y="306" type="line"/>
      <point x="153" y="258"/>
      <point x="200" y="226" type="line"/>
      <point x="305" y="154" type="line"/>
      <point x="350" y="124"/>
      <point x="365" y="106" type="line"/>
      <point x="390" y="77"/>
    </contour>
  </outline>
</glyph>
<glyph name="uni009B" format="2">
  <advance width="500"/>
  <unicode hex="009B"/>
  <unicode hex="203A"/>
  <outline>
    <contour>
      <point x="351" y="188" type="line"/>
      <point x="316" y="152"/>
      <point x="273" y="107" type="line"/>
      <point x="247" y="81"/>
      <point x="194" y="21" type="line"/>
      <point x="157" y="-21"/>
      <point x="153" y="-21" type="line"/>
      <point x="149" y="-21"/>
      <point x="149" y="-17" type="line"/>
      <point x="149" y="2"/>
      <point x="193" y="66" type="line"/>
      <point x="223" y="108"/>
      <point x="275" y="188" type="line"/>
      <point x="150" y="365"/>
      <point x="150" y="386" type="line"/>
      <point x="150" y="395"/>
      <point x="153" y="395" type="line"/>
      <point x="154" y="395"/>
      <point x="164" y="381" type="line"/>
      <point x="218" y="320"/>
      <point x="324" y="215" type="line"/>
    </contour>
  </outline>
</glyph>
<glyph name="uni009C" format="2">
  <advance width="500"/>
  <unicode hex="009C"/>
  <unicode hex="0153"/>
  <outline>
    <contour>
      <point x="498" y="118" type="line"/>
      <point x="463" y="-62"/>
      <point x="372" y="-62" type="line"/>
      <point x="289" y="-62"/>
      <point x="263" y="78" type="line"/>
      <point x="225" y="-60"/>
      <point x="144" y="-58" type="line"/>
      <point x="83" y="-56"/>
      <point x="45" y="18" type="line"/>
      <point x="8" y="91"/>
      <point x="8" y="202" type="line"/>
      <point x="8" y="305"/>
      <point x="46" y="379" type="line"/>
      <point x="85" y="457"/>
      <point x="146" y="457" type="line"/>
      <point x="237" y="457"/>
      <point x="268" y="315" type="line"/>
      <point x="301" y="451"/>
      <point x="382" y="453" type="line"/>
      <point x="426" y="454"/>
      <point x="454" y="409" type="line"/>
      <point x="486" y="358"/>
      <point x="491" y="260" type="line"/>
      <point x="292" y="260" type="line"/>
      <point x="294" y="114"/>
      <point x="328" y="48" type="line"/>
      <point x="356" y="-5"/>
      <point x="396" y="3" type="line"/>
      <point x="430" y="10"/>
      <point x="453" y="50" type="line"/>
      <point x="465" y="72"/>
      <point x="483" y="128" type="line"/>
    </contour>
    <contour>
      <point x="446" y="297" type="line"/>
      <point x="437" y="411"/>
      <point x="377" y="412" type="line"/>
      <point x="324" y="413"/>
      <point x="302" y="297" type="line"/>
    </contour>
    <contour>
      <point x="238" y="198" type="line"/>
      <point x="238" y="302"/>
      <point x="211" y="366" type="line"/>
      <point x="185" y="430"/>
      <point x="147" y="430" type="line"/>
      <point x="110" y="430"/>
      <point x="81" y="361" type="line"/>
      <point x="52" y="295"/>
      <point x="52" y="201" type="line"/>
      <point x="52" y="94"/>
      <point x="84" y="27" type="line"/>
      <point x="111" y="-28"/>
      <point x="145" y="-30" type="line"/>
      <point x="178" y="-32"/>
      <point x="206" y="25" type="line"/>
      <point x="238" y="93"/>
    </contour>
  </outline>
</glyph>
<glyph name="uni009F" format="2">
  <advance width="500"/>
  <unicode hex="009F"/>
  <unicode hex="0178"/>
  <outline>
    <contour>
      <point x="390" y="749" type="line"/>
      <point x="390" y="729"/>
      <point x="376" y="715" type="line"/>
      <point x="362" y="702"/>
      <point x="342" y="702" type="line"/>
      <point x="322" y="702"/>
      <point x="308" y="716" type="line"/>
      <point x="295" y="729"/>
      <point x="295" y="749" type="line"/>
      <point x="295" y="769"/>
      <point x="309" y="783" type="line"/>
      <point x="322" y="797"/>
      <point x="342" y="797" type="line"/>
      <point x="362" y="797"/>
      <point x="376" y="783" type="line"/>
      <point x="390" y="769"/>
    </contour>
    <contour>
      <point x="205" y="749" type="line"/>
      <point x="205" y="729"/>
      <point x="191" y="715" type="line"/>
      <point x="178" y="701"/>
      <point x="158" y="701" type="line"/>
      <point x="138" y="701"/>
      <point x="124" y="715" type="line"/>
      <point x="110" y="729"/>
      <point x="110" y="749" type="line"/>
      <point x="110" y="769"/>
      <point x="124" y="783" type="line"/>
      <point x="138" y="796"/>
      <point x="158" y="796" type="line"/>
      <point x="178" y="796"/>
      <point x="192" y="782" type="line"/>
      <point x="205" y="769"/>
    </contour>
    <contour>
      <point x="500" y="637" type="line"/>
      <point x="471" y="635"/>
      <point x="455" y="620" type="line"/>
      <point x="434" y="600"/>
      <point x="403" y="533" type="line"/>
      <point x="279" y="267" type="line"/>
      <point x="279" y="68" type="line"/>
      <point x="279" y="7"/>
      <point x="296" y="-17" type="line"/>
      <point x="313" y="-38"/>
      <point x="365" y="-40" type="line"/>
      <point x="365" y="-60" type="line"/>
      <point x="137" y="-60" type="line"/>
      <point x="137" y="-40" type="line"/>
      <point x="196" y="-36"/>
      <point x="213" y="-3" type="line"/>
      <point x="223" y="18"/>
      <point x="223" y="82" type="line"/>
      <point x="223" y="266" type="line"/>
      <point x="113" y="499" type="line"/>
      <point x="67" y="596"/>
      <point x="44" y="621" type="line"/>
      <point x="29" y="637"/>
      <point x="0.0" y="637" type="line"/>
      <point x="0.0" y="659" type="line"/>
      <point x="195" y="659" type="line"/>
      <point x="195" y="637" type="line"/>
      <point x="133" y="632"/>
      <point x="133" y="599" type="line"/>
      <point x="133" y="581"/>
      <point x="147" y="553" type="line"/>
      <point x="265" y="313" type="line"/>
      <point x="383" y="563" type="line"/>
      <point x="394" y="586"/>
      <point x="394" y="605" type="line"/>
      <point x="394" y="637"/>
      <point x="344" y="637" type="line"/>
      <point x="344" y="659" type="line"/>
      <point x="500" y="659" type="line"/>
    </contour>
  </outline>
</glyph>
<glyph name="uni00A1" format="2">
  <advance width="269.0"/>
  <unicode hex="00A1"/>
  <outline>
    <contour>
      <point x="196.0" y="478.0" type="line"/>
      <point x="196.0" y="441.0"/>
      <point x="160.0" y="411.0"/>
      <point x="134.0" y="411.0" type="line"/>
      <point x="109.0" y="411.0"/>
      <point x="72.0" y="441.0"/>
      <point x="72.0" y="478.0" type="line"/>
      <point x="72.0" y="514.0"/>
      <point x="109.0" y="546.0"/>
      <point x="134.0" y="546.0" type="line"/>
      <point x="160.0" y="546.0"/>
      <point x="196.0" y="514.0"/>
    </contour>
    <contour>
      <point x="104.0" y="330.0" type="line"/>
      <point x="162.0" y="330.0" type="line"/>
      <point x="187.0" y="-182.0" type="line"/>
      <point x="79.0" y="-182.0" type="line"/>
    </contour>
  </outline>
</glyph>
<glyph name="uni00A2" format="2">
  <advance width="572.0"/>
  <unicode hex="00A2"/>
  <outline>
    <contour>
      <point x="353.0" y="644.0" type="line"/>
      <point x="391.0" y="643.0"/>
      <point x="460.0" y="626.0"/>
      <point x="485.0" y="615.0" type="line"/>
      <point x="459.0" y="542.0" type="line"/>
      <point x="433.0" y="552.0"/>
      <point x="367.0" y="568.0"/>
      <point x="340.0" y="568.0" type="line"/>
      <point x="258.0" y="568.0"/>
      <point x="181.0" y="467.0"/>
      <point x="181.0" y="363.0" type="line"/>
      <point x="181.0" y="259.0"/>
      <point x="260.0" y="164.0"/>
      <point x="336.0" y="164.0" type="line"/>
      <point x="380.0" y="164.0"/>
      <point x="445.0" y="181.0"/>
      <point x="476.0" y="194.0" type="line"/>
      <point x="476.0" y="117.0" type="line"/>
      <point x="449.0" y="104.0"/>
      <point x="391.0" y="89.0"/>
      <point x="352.0" y="87.0" type="line"/>
      <point x="352.0" y="-10.0" type="line"/>
      <point x="285.0" y="-10.0" type="line"/>
      <point x="285.0" y="90.0" type="line"/>
      <point x="226.0" y="99.0"/>
      <point x="139.0" y="159.0"/>
      <point x="91.0" y="273.0"/>
      <point x="91.0" y="362.0" type="line"/>
      <point x="91.0" y="453.0"/>
      <point x="139.0" y="569.0"/>
      <point x="227.0" y="631.0"/>
      <point x="285.0" y="640.0" type="line"/>
      <point x="285.0" y="724.0" type="line"/>
      <point x="353.0" y="724.0" type="line"/>
    </contour>
  </outline>
</glyph>
<glyph name="uni00A3" format="2">
  <advance width="572.0"/>
  <unicode hex="00A3"/>
  <outline>
    <contour>
      <point x="334.0" y="723.0" type="line"/>
      <point x="389.0" y="723.0"/>
      <point x="477.0" y="699.0"/>
      <point x="511.0" y="682.0" type="line"/>
      <point x="480.0" y="612.0" type="line"/>
      <point x="450.0" y="626.0"/>
      <point x="377.0" y="650.0"/>
      <point x="336.0" y="650.0" type="line"/>
      <point x="279.0" y="650.0"/>
      <point x="219.0" y="591.0"/>
      <point x="219.0" y="525.0" type="line"/>
      <point x="219.0" y="386.0" type="line"/>
      <point x="423.0" y="386.0" type="line"/>
      <point x="423.0" y="320.0" type="line"/>
      <point x="219.0" y="320.0" type="line"/>
      <point x="219.0" y="216.0" type="line"/>
      <point x="219.0" y="155.0"/>
      <point x="177.0" y="96.0"/>
      <point x="151.0" y="80.0" type="line"/>
      <point x="535.0" y="80.0" type="line"/>
      <point x="535.0" y="0.0" type="line"/>
      <point x="32.0" y="0.0" type="line"/>
      <point x="32.0" y="74.0" type="line"/>
      <point x="75.0" y="85.0"/>
      <point x="131.0" y="149.0"/>
      <point x="131.0" y="215.0" type="line"/>
      <point x="131.0" y="320.0" type="line"/>
      <point x="35.0" y="320.0" type="line"/>
      <point x="35.0" y="386.0" type="line"/>
      <point x="131.0" y="386.0" type="line"/>
      <point x="131.0" y="534.0" type="line"/>
      <point x="131.0" y="623.0"/>
      <point x="242.0" y="723.0"/>
    </contour>
  </outline>
</glyph>
<glyph name="uni00A4" format="2">
  <advance width="572.0"/>
  <unicode hex="00A4"/>
  <outline>
    <contour>
      <point x="90.0" y="353.0" type="line"/>
      <point x="90.0" y="383.0"/>
      <point x="109.0" y="440.0"/>
      <point x="125.0" y="463.0" type="line"/>
      <point x="59.0" y="531.0" type="line"/>
      <point x="108.0" y="578.0" type="line"/>
      <point x="174.0" y="514.0" type="line"/>
      <point x="197.0" y="531.0"/>
      <point x="255.0" y="549.0"/>
      <point x="286.0" y="549.0" type="line"/>
      <point x="317.0" y="549.0"/>
      <point x="372.0" y="531.0"/>
      <point x="396.0" y="514.0" type="line"/>
      <point x="463.0" y="578.0" type="line"/>
      <point x="511.0" y="531.0" type="line"/>
      <point x="447.0" y="464.0" type="line"/>
      <point x="462.0" y="441.0"/>
      <point x="482.0" y="384.0"/>
      <point x="482.0" y="353.0" type="line"/>
      <point x="482.0" y="290.0"/>
      <point x="447.0" y="241.0" type="line"/>
      <point x="510.0" y="175.0" type="line"/>
      <point x="463.0" y="128.0" type="line"/>
      <point x="396.0" y="192.0" type="line"/>
      <point x="373.0" y="176.0"/>
      <point x="317.0" y="158.0"/>
      <point x="286.0" y="158.0" type="line"/>
      <point x="222.0" y="158.0"/>
      <point x="174.0" y="193.0" type="line"/>
      <point x="108.0" y="129.0" type="line"/>
      <point x="60.0" y="176.0" type="line"/>
      <point x="125.0" y="242.0" type="line"/>
      <point x="109.0" y="265.0"/>
      <point x="90.0" y="322.0"/>
    </contour>
    <contour>
      <point x="157.0" y="353.0" type="line"/>
      <point x="157.0" y="317.0"/>
      <point x="191.0" y="259.0"/>
      <point x="250.0" y="224.0"/>
      <point x="286.0" y="224.0" type="line"/>
      <point x="323.0" y="224.0"/>
      <point x="381.0" y="259.0"/>
      <point x="416.0" y="317.0"/>
      <point x="416.0" y="353.0" type="line"/>
      <point x="416.0" y="390.0"/>
      <point x="381.0" y="449.0"/>
      <point x="323.0" y="484.0"/>
      <point x="286.0" y="484.0" type="line"/>
      <point x="250.0" y="484.0"/>
      <point x="191.0" y="449.0"/>
      <point x="157.0" y="390.0"/>
    </contour>
  </outline>
</glyph>
<glyph name="uni00A5" format="2">
  <advance width="572.0"/>
  <unicode hex="00A5"/>
  <outline>
    <contour>
      <point x="285.0" y="365.0" type="line"/>
      <point x="464.0" y="714.0" type="line"/>
      <point x="556.0" y="714.0" type="line"/>
      <point x="355.0" y="339.0" type="line"/>
      <point x="479.0" y="339.0" type="line"/>
      <point x="479.0" y="275.0" type="line"/>
      <point x="328.0" y="275.0" type="line"/>
      <point x="328.0" y="193.0" type="line"/>
      <point x="479.0" y="193.0" type="line"/>
      <point x="479.0" y="129.0" type="line"/>
      <point x="328.0" y="129.0" type="line"/>
      <point x="328.0" y="0.0" type="line"/>
      <point x="242.0" y="0.0" type="line"/>
      <point x="242.0" y="129.0" type="line"/>
      <point x="91.0" y="129.0" type="line"/>
      <point x="91.0" y="193.0" type="line"/>
      <point x="242.0" y="193.0" type="line"/>
      <point x="242.0" y="275.0" type="line"/>
      <point x="91.0" y="275.0" type="line"/>
      <point x="91.0" y="339.0" type="line"/>
      <point x="213.0" y="339.0" type="line"/>
      <point x="14.0" y="714.0" type="line"/>
      <point x="107.0" y="714.0" type="line"/>
    </contour>
  </outline>
</glyph>
<glyph name="uni00A6" format="2">
  <advance width="551.0"/>
  <unicode hex="00A6"/>
  <outline>
    <contour>
      <point x="239.0" y="760.0" type="line"/>
      <point x="312.0" y="760.0" type="line"/>
      <point x="312.0" y="379.0" type="line"/>
      <point x="239.0" y="379.0" type="line"/>
    </contour>
    <contour>
      <point x="239.0" y="140.0" type="line"/>
      <point x="312.0" y="140.0" type="line"/>
      <point x="312.0" y="-241.0" type="line"/>
      <point x="239.0" y="-241.0" type="line"/>
    </contour>
  </outline>
</glyph>
<glyph name="uni00A7" format="2">
  <advance width="513.0"/>
  <unicode hex="00A7"/>
  <outline>
    <contour>
      <point x="67.0" y="395.0" type="line"/>
      <point x="67.0" y="445.0"/>
      <point x="115.0" y="506.0"/>
      <point x="146.0" y="521.0" type="line"/>
      <point x="110.0" y="541.0"/>
      <point x="70.0" y="596.0"/>
      <point x="70.0" y="636.0" type="line"/>
      <point x="70.0" y="696.0"/>
      <point x="172.0" y="765.0"/>
      <point x="267.0" y="765.0" type="line"/>
      <point x="323.0" y="765.0"/>
      <point x="401.0" y="746.0"/>
      <point x="438.0" y="731.0" type="line"/>
      <point x="411.0" y="664.0" type="line"/>
      <point x="377.0" y="678.0"/>
      <point x="309.0" y="697.0"/>
      <point x="261.0" y="697.0" type="line"/>
      <point x="201.0" y="697.0"/>
      <point x="152.0" y="666.0"/>
      <point x="152.0" y="638.0" type="line"/>
      <point x="152.0" y="610.0"/>
      <point x="208.0" y="571.0"/>
      <point x="284.0" y="543.0" type="line"/>
      <point x="361.0" y="515.0"/>
      <point x="447.0" y="443.0"/>
      <point x="447.0" y="383.0" type="line"/>
      <point x="447.0" y="332.0"/>
      <point x="401.0" y="267.0"/>
      <point x="372.0" y="250.0" type="line"/>
      <point x="407.0" y="231.0"/>
      <point x="446.0" y="178.0"/>
      <point x="446.0" y="140.0" type="line"/>
      <point x="446.0" y="71.0"/>
      <point x="331.0" y="-5.0"/>
      <point x="228.0" y="-5.0" type="line"/>
      <point x="173.0" y="-5.0"/>
      <point x="91.0" y="12.0"/>
      <point x="59.0" y="28.0" type="line"/>
      <point x="59.0" y="103.0" type="line"/>
      <point x="91.0" y="88.0"/>
      <point x="185.0" y="62.0"/>
      <point x="232.0" y="62.0" type="line"/>
      <point x="306.0" y="62.0"/>
      <point x="362.0" y="105.0"/>
      <point x="362.0" y="133.0" type="line"/>
      <point x="362.0" y="152.0"/>
      <point x="343.0" y="180.0"/>
      <point x="288.0" y="211.0"/>
      <point x="233.0" y="231.0" type="line"/>
      <point x="181.0" y="251.0"/>
      <point x="106.0" y="293.0"/>
      <point x="67.0" y="351.0"/>
    </contour>
    <contour>
      <point x="142.0" y="405.0" type="line"/>
      <point x="142.0" y="368.0"/>
      <point x="205.0" y="317.0"/>
      <point x="285.0" y="287.0" type="line"/>
      <point x="307.0" y="279.0" type="line"/>
      <point x="330.0" y="293.0"/>
      <point x="371.0" y="336.0"/>
      <point x="371.0" y="370.0" type="line"/>
      <point x="371.0" y="395.0"/>
      <point x="344.0" y="435.0"/>
      <point x="276.0" y="472.0"/>
      <point x="214.0" y="491.0" type="line"/>
      <point x="186.0" y="484.0"/>
      <point x="142.0" y="438.0"/>
    </contour>
  </outline>
</glyph>
<glyph name="uni00A8" format="2">
  <advance width="580.0"/>
  <unicode hex="00A8"/>
  <outline>
    <contour>
      <point x="149.0" y="681.0" type="line"/>
      <point x="149.0" y="707.0"/>
      <point x="177.0" y="730.0"/>
      <point x="196.0" y="730.0" type="line"/>
      <point x="215.0" y="730.0"/>
      <point x="243.0" y="707.0"/>
      <point x="243.0" y="681.0" type="line"/>
      <point x="243.0" y="656.0"/>
      <point x="215.0" y="631.0"/>
      <point x="196.0" y="631.0" type="line"/>
      <point x="177.0" y="631.0"/>
      <point x="149.0" y="656.0"/>
    </contour>
    <contour>
      <point x="337.0" y="681.0" type="line"/>
      <point x="337.0" y="707.0"/>
      <point x="364.0" y="730.0"/>
      <point x="383.0" y="730.0" type="line"/>
      <point x="402.0" y="730.0"/>
      <point x="430.0" y="707.0"/>
      <point x="430.0" y="681.0" type="line"/>
      <point x="430.0" y="656.0"/>
      <point x="402.0" y="631.0"/>
      <point x="383.0" y="631.0" type="line"/>
      <point x="364.0" y="631.0"/>
      <point x="337.0" y="656.0"/>
    </contour>
  </outline>
</glyph>
<glyph name="uni00A9" format="2">
  <advance width="832.0"/>
  <unicode hex="00A9"/>
  <outline>
    <contour>
      <point x="416.0" y="-10.0" type="line"/>
      <point x="336.0" y="-10.0"/>
      <point x="202.0" y="44.0"/>
      <point x="103.0" y="143.0"/>
      <point x="49.0" y="277.0"/>
      <point x="49.0" y="357.0" type="line"/>
      <point x="49.0" y="437.0"/>
      <point x="103.0" y="571.0"/>
      <point x="202.0" y="670.0"/>
      <point x="336.0" y="724.0"/>
      <point x="416.0" y="724.0" type="line"/>
      <point x="492.0" y="724.0"/>
      <point x="625.0" y="670.0"/>
      <point x="726.0" y="571.0"/>
      <point x="783.0" y="437.0"/>
      <point x="783.0" y="357.0" type="line"/>
      <point x="783.0" y="277.0"/>
      <point x="729.0" y="143.0"/>
      <point x="630.0" y="44.0"/>
      <point x="496.0" y="-10.0"/>
    </contour>
    <contour>
      <point x="416.0" y="43.0" type="line"/>
      <point x="480.0" y="43.0"/>
      <point x="592.0" y="89.0"/>
      <point x="678.0" y="174.0"/>
      <point x="726.0" y="288.0"/>
      <point x="726.0" y="357.0" type="line"/>
      <point x="726.0" y="422.0"/>
      <point x="680.0" y="536.0"/>
      <point x="597.0" y="622.0"/>
      <point x="484.0" y="671.0"/>
      <point x="416.0" y="671.0" type="line"/>
      <point x="326.0" y="671.0"/>
      <point x="185.0" y="590.0"/>
      <point x="105.0" y="449.0"/>
      <point x="105.0" y="357.0" type="line"/>
      <point x="105.0" y="292.0"/>
      <point x="151.0" y="178.0"/>
      <point x="234.0" y="92.0"/>
      <point x="348.0" y="43.0"/>
    </contour>
    <contour>
      <point x="431.0" y="133.0" type="line"/>
      <point x="332.0" y="133.0"/>
      <point x="234.0" y="256.0"/>
      <point x="234.0" y="357.0" type="line"/>
      <point x="234.0" y="422.0"/>
      <point x="280.0" y="523.0"/>
      <point x="370.0" y="580.0"/>
      <point x="435.0" y="580.0" type="line"/>
      <point x="500.0" y="580.0"/>
      <point x="558.0" y="550.0" type="line"/>
      <point x="529.0" y="489.0" type="line"/>
      <point x="479.0" y="515.0"/>
      <point x="436.0" y="515.0" type="line"/>
      <point x="377.0" y="515.0"/>
      <point x="312.0" y="431.0"/>
      <point x="312.0" y="357.0" type="line"/>
      <point x="312.0" y="281.0"/>
      <point x="369.0" y="198.0"/>
      <point x="435.0" y="198.0" type="line"/>
      <point x="458.0" y="198.0"/>
      <point x="515.0" y="211.0"/>
      <point x="540.0" y="221.0" type="line"/>
      <point x="540.0" y="157.0" type="line"/>
      <point x="516.0" y="147.0"/>
      <point x="466.0" y="133.0"/>
    </contour>
  </outline>
</glyph>
<glyph name="uni00AA" format="2">
  <advance width="357.0"/>
  <unicode hex="00AA"/>
  <outline>
    <contour>
      <point x="177.0" y="722.0" type="line"/>
      <point x="242.0" y="722.0"/>
      <point x="308.0" y="668.0"/>
      <point x="308.0" y="609.0" type="line"/>
      <point x="308.0" y="389.0" type="line"/>
      <point x="261.0" y="389.0" type="line"/>
      <point x="249.0" y="431.0" type="line"/>
      <point x="229.0" y="410.0"/>
      <point x="173.0" y="383.0"/>
      <point x="135.0" y="383.0" type="line"/>
      <point x="88.0" y="383.0"/>
      <point x="32.0" y="432.0"/>
      <point x="32.0" y="482.0" type="line"/>
      <point x="32.0" y="581.0"/>
      <point x="190.0" y="587.0" type="line"/>
      <point x="246.0" y="589.0" type="line"/>
      <point x="246.0" y="611.0" type="line"/>
      <point x="246.0" y="644.0"/>
      <point x="204.0" y="670.0"/>
      <point x="175.0" y="670.0" type="line"/>
      <point x="147.0" y="670.0"/>
      <point x="97.0" y="655.0"/>
      <point x="74.0" y="644.0" type="line"/>
      <point x="52.0" y="693.0" type="line"/>
      <point x="78.0" y="706.0"/>
      <point x="143.0" y="722.0"/>
    </contour>
    <contour>
      <point x="198.0" y="542.0" type="line"/>
      <point x="138.0" y="540.0"/>
      <point x="96.0" y="509.0"/>
      <point x="96.0" y="482.0" type="line"/>
      <point x="96.0" y="457.0"/>
      <point x="125.0" y="434.0"/>
      <point x="150.0" y="434.0" type="line"/>
      <point x="201.0" y="434.0"/>
      <point x="246.0" y="481.0"/>
      <point x="246.0" y="521.0" type="line"/>
      <point x="246.0" y="544.0" type="line"/>
    </contour>
  </outline>
</glyph>
<glyph name="uni00AB" format="2">
  <advance width="509.0"/>
  <unicode hex="00AB"/>
  <outline>
    <contour>
      <point x="40.0" y="270.0" type="line"/>
      <point x="208.0" y="471.0" type="line"/>
      <point x="271.0" y="435.0" type="line"/>
      <point x="131.0" y="264.0" type="line"/>
      <point x="271.0" y="93.0" type="line"/>
      <point x="208.0" y="56.0" type="line"/>
      <point x="40.0" y="257.0" type="line"/>
    </contour>
    <contour>
      <point x="238.0" y="270.0" type="line"/>
      <point x="408.0" y="471.0" type="line"/>
      <point x="470.0" y="435.0" type="line"/>
      <point x="330.0" y="264.0" type="line"/>
      <point x="470.0" y="93.0" type="line"/>
      <point x="408.0" y="56.0" type="line"/>
      <point x="238.0" y="257.0" type="line"/>
    </contour>
  </outline>
</glyph>
<glyph name="uni00AC" format="2">
  <advance width="572.0"/>
  <unicode hex="00AC"/>
  <outline>
    <contour>
      <point x="520.0" y="388.0" type="line"/>
      <point x="520.0" y="128.0" type="line"/>
      <point x="449.0" y="128.0" type="line"/>
      <point x="449.0" y="317.0" type="line"/>
      <point x="50.0" y="317.0" type="line"/>
      <point x="50.0" y="388.0" type="line"/>
    </contour>
  </outline>
</glyph>
<glyph name="uni00AD" format="2">
  <advance width="322.0"/>
  <unicode hex="00AD"/>
  <outline>
    <contour>
      <point x="40.0" y="229.0" type="line"/>
      <point x="40.0" y="307.0" type="line"/>
      <point x="282.0" y="307.0" type="line"/>
      <point x="282.0" y="229.0" type="line"/>
    </contour>
  </outline>
</glyph>
<glyph name="uni00AE" format="2">
  <advance width="832.0"/>
  <unicode hex="00AE"/>
  <outline>
    <contour>
      <point x="416.0" y="-10.0" type="line"/>
      <point x="336.0" y="-10.0"/>
      <point x="202.0" y="44.0"/>
      <point x="103.0" y="143.0"/>
      <point x="49.0" y="277.0"/>
      <point x="49.0" y="357.0" type="line"/>
      <point x="49.0" y="437.0"/>
      <point x="103.0" y="571.0"/>
      <point x="202.0" y="670.0"/>
      <point x="336.0" y="724.0"/>
      <point x="416.0" y="724.0" type="line"/>
      <point x="492.0" y="724.0"/>
      <point x="625.0" y="670.0"/>
      <point x="726.0" y="571.0"/>
      <point x="783.0" y="437.0"/>
      <point x="783.0" y="357.0" type="line"/>
      <point x="783.0" y="277.0"/>
      <point x="729.0" y="143.0"/>
      <point x="630.0" y="44.0"/>
      <point x="496.0" y="-10.0"/>
    </contour>
    <contour>
      <point x="416.0" y="43.0" type="line"/>
      <point x="480.0" y="43.0"/>
      <point x="592.0" y="89.0"/>
      <point x="678.0" y="174.0"/>
      <point x="726.0" y="288.0"/>
      <point x="726.0" y="357.0" type="line"/>
      <point x="726.0" y="422.0"/>
      <point x="680.0" y="536.0"/>
      <point x="597.0" y="622.0"/>
      <point x="484.0" y="671.0"/>
      <point x="416.0" y="671.0" type="line"/>
      <point x="326.0" y="671.0"/>
      <point x="185.0" y="590.0"/>
      <point x="105.0" y="449.0"/>
      <point x="105.0" y="357.0" type="line"/>
      <point x="105.0" y="292.0"/>
      <point x="151.0" y="178.0"/>
      <point x="234.0" y="92.0"/>
      <point x="348.0" y="43.0"/>
    </contour>
    <contour>
      <point x="279.0" y="138.0" type="line"/>
      <point x="279.0" y="575.0" type="line"/>
      <point x="407.0" y="575.0" type="line"/>
      <point x="489.0" y="575.0"/>
      <point x="565.0" y="511.0"/>
      <point x="565.0" y="446.0" type="line"/>
      <point x="565.0" y="399.0"/>
      <point x="517.0" y="344.0"/>
      <point x="487.0" y="332.0" type="line"/>
      <point x="603.0" y="138.0" type="line"/>
      <point x="517.0" y="138.0" type="line"/>
      <point x="417.0" y="311.0" type="line"/>
      <point x="355.0" y="311.0" type="line"/>
      <point x="355.0" y="138.0" type="line"/>
    </contour>
    <contour>
      <point x="405.0" y="373.0" type="line"/>
      <point x="444.0" y="373.0"/>
      <point x="488.0" y="413.0"/>
      <point x="488.0" y="444.0" type="line"/>
      <point x="488.0" y="479.0"/>
      <point x="448.0" y="511.0"/>
      <point x="404.0" y="511.0" type="line"/>
      <point x="355.0" y="511.0" type="line"/>
      <point x="355.0" y="373.0" type="line"/>
    </contour>
  </outline>
</glyph>
<glyph name="uni00AF" format="2">
  <advance width="500.0"/>
  <unicode hex="00AF"/>
  <outline>
    <contour>
      <point x="503.0" y="760.0" type="line"/>
      <point x="-3.0" y="760.0" type="line"/>
      <point x="-3.0" y="826.0" type="line"/>
      <point x="503.0" y="826.0" type="line"/>
    </contour>
  </outline>
</glyph>
<glyph name="uni00B1" format="2">
  <advance width="572.0"/>
  <unicode hex="00B1"/>
  <outline>
    <contour>
      <point x="321.0" y="391.0" type="line"/>
      <point x="520.0" y="391.0" type="line"/>
      <point x="520.0" y="320.0" type="line"/>
      <point x="321.0" y="320.0" type="line"/>
      <point x="321.0" y="114.0" type="line"/>
      <point x="249.0" y="114.0" type="line"/>
      <point x="249.0" y="320.0" type="line"/>
      <point x="50.0" y="320.0" type="line"/>
      <point x="50.0" y="391.0" type="line"/>
      <point x="249.0" y="391.0" type="line"/>
      <point x="249.0" y="598.0" type="line"/>
      <point x="321.0" y="598.0" type="line"/>
    </contour>
    <contour>
      <point x="50.0" y="0.0" type="line"/>
      <point x="50.0" y="71.0" type="line"/>
      <point x="521.0" y="71.0" type="line"/>
      <point x="521.0" y="0.0" type="line"/>
    </contour>
  </outline>
</glyph>
<glyph name="uni00B2" format="2">
  <advance width="350.0"/>
  <unicode hex="00B2"/>
  <outline>
    <contour>
      <point x="306.0" y="416.0" type="line"/>
      <point x="24.0" y="416.0" type="line"/>
      <point x="24.0" y="470.0" type="line"/>
      <point x="139.0" y="582.0" type="line"/>
      <point x="180.0" y="621.0"/>
      <point x="221.0" y="670.0"/>
      <point x="236.0" y="709.0"/>
      <point x="236.0" y="731.0" type="line"/>
      <point x="236.0" y="763.0"/>
      <point x="199.0" y="795.0"/>
      <point x="169.0" y="795.0" type="line"/>
      <point x="139.0" y="795.0"/>
      <point x="90.0" y="772.0"/>
      <point x="64.0" y="752.0" type="line"/>
      <point x="29.0" y="798.0" type="line"/>
      <point x="58.0" y="823.0"/>
      <point x="127.0" y="853.0"/>
      <point x="170.0" y="853.0" type="line"/>
      <point x="234.0" y="853.0"/>
      <point x="307.0" y="790.0"/>
      <point x="307.0" y="735.0" type="line"/>
      <point x="307.0" y="686.0"/>
      <point x="248.0" y="608.0"/>
      <point x="192.0" y="555.0" type="line"/>
      <point x="111.0" y="478.0" type="line"/>
      <point x="306.0" y="478.0" type="line"/>
    </contour>
  </outline>
</glyph>
<glyph name="uni00B3" format="2">
  <advance width="350.0"/>
  <unicode hex="00B3"/>
  <outline>
    <contour>
      <point x="165.0" y="853.0" type="line"/>
      <point x="236.0" y="853.0"/>
      <point x="308.0" y="791.0"/>
      <point x="308.0" y="743.0" type="line"/>
      <point x="308.0" y="703.0"/>
      <point x="265.0" y="651.0"/>
      <point x="235.0" y="641.0" type="line"/>
      <point x="235.0" y="638.0" type="line"/>
      <point x="274.0" y="631.0"/>
      <point x="321.0" y="580.0"/>
      <point x="321.0" y="539.0" type="line"/>
      <point x="321.0" y="481.0"/>
      <point x="237.0" y="408.0"/>
      <point x="148.0" y="408.0" type="line"/>
      <point x="111.0" y="408.0"/>
      <point x="47.0" y="421.0"/>
      <point x="17.0" y="436.0" type="line"/>
      <point x="17.0" y="499.0" type="line"/>
      <point x="87.0" y="465.0"/>
      <point x="149.0" y="465.0" type="line"/>
      <point x="201.0" y="465.0"/>
      <point x="249.0" y="506.0"/>
      <point x="249.0" y="541.0" type="line"/>
      <point x="249.0" y="577.0"/>
      <point x="191.0" y="610.0"/>
      <point x="139.0" y="610.0" type="line"/>
      <point x="82.0" y="610.0" type="line"/>
      <point x="82.0" y="665.0" type="line"/>
      <point x="139.0" y="665.0" type="line"/>
      <point x="189.0" y="665.0"/>
      <point x="236.0" y="704.0"/>
      <point x="236.0" y="735.0" type="line"/>
      <point x="236.0" y="767.0"/>
      <point x="195.0" y="796.0"/>
      <point x="166.0" y="796.0" type="line"/>
      <point x="135.0" y="796.0"/>
      <point x="82.0" y="775.0"/>
      <point x="55.0" y="758.0" type="line"/>
      <point x="19.0" y="804.0" type="line"/>
      <point x="50.0" y="827.0"/>
      <point x="119.0" y="853.0"/>
    </contour>
  </outline>
</glyph>
<glyph name="uni00B5" format="2">
  <advance width="623.0"/>
  <unicode hex="00B5"/>
  <outline>
    <contour>
      <point x="538.0" y="536.0" type="line"/>
      <point x="538.0" y="0.0" type="line"/>
      <point x="467.0" y="0.0" type="line"/>
      <point x="453.0" y="72.0" type="line"/>
      <point x="448.0" y="72.0" type="line"/>
      <point x="423.0" y="32.0"/>
      <point x="343.0" y="-10.0"/>
      <point x="287.0" y="-10.0" type="line"/>
      <point x="248.0" y="-10.0"/>
      <point x="192.0" y="15.0"/>
      <point x="172.0" y="35.0" type="line"/>
      <point x="168.0" y="35.0" type="line"/>
      <point x="170.0" y="17.0"/>
      <point x="173.0" y="-43.0"/>
      <point x="173.0" y="-84.0" type="line"/>
      <point x="173.0" y="-240.0" type="line"/>
      <point x="85.0" y="-240.0" type="line"/>
      <point x="85.0" y="536.0" type="line"/>
      <point x="173.0" y="536.0" type="line"/>
      <point x="173.0" y="190.0" type="line"/>
      <point x="173.0" y="63.0"/>
      <point x="293.0" y="63.0" type="line"/>
      <point x="382.0" y="63.0"/>
      <point x="450.0" y="163.0"/>
      <point x="450.0" y="257.0" type="line"/>
      <point x="450.0" y="536.0" type="line"/>
    </contour>
  </outline>
</glyph>
<glyph name="uni00B6" format="2">
  <advance width="655.0"/>
  <unicode hex="00B6"/>
  <outline>
    <contour>
      <point x="549.0" y="-127.0" type="line"/>
      <point x="491.0" y="-127.0" type="line"/>
      <point x="491.0" y="704.0" type="line"/>
      <point x="389.0" y="704.0" type="line"/>
      <point x="389.0" y="-127.0" type="line"/>
      <point x="331.0" y="-127.0" type="line"/>
      <point x="331.0" y="273.0" type="line"/>
      <point x="316.0" y="269.0"/>
      <point x="277.0" y="264.0"/>
      <point x="260.0" y="264.0" type="line"/>
      <point x="198.0" y="264.0"/>
      <point x="106.0" y="310.0"/>
      <point x="55.0" y="418.0"/>
      <point x="55.0" y="509.0" type="line"/>
      <point x="55.0" y="605.0"/>
      <point x="110.0" y="714.0"/>
      <point x="210.0" y="760.0"/>
      <point x="275.0" y="760.0" type="line"/>
      <point x="549.0" y="760.0" type="line"/>
    </contour>
  </outline>
</glyph>
<glyph name="uni00B7" format="2">
  <advance width="268.0"/>
  <unicode hex="00B7"/>
  <outline>
    <contour>
      <point x="72.0" y="353.0" type="line"/>
      <point x="72.0" y="390.0"/>
      <point x="108.0" y="420.0"/>
      <point x="133.0" y="420.0" type="line"/>
      <point x="159.0" y="420.0"/>
      <point x="196.0" y="390.0"/>
      <point x="196.0" y="353.0" type="line"/>
      <point x="196.0" y="317.0"/>
      <point x="159.0" y="285.0"/>
      <point x="133.0" y="285.0" type="line"/>
      <point x="108.0" y="285.0"/>
      <point x="72.0" y="317.0"/>
    </contour>
  </outline>
</glyph>
<glyph name="uni00B8" format="2">
  <advance width="225.0"/>
  <unicode hex="00B8"/>
  <outline>
    <contour>
      <point x="212.0" y="-139.0" type="line"/>
      <point x="212.0" y="-187.0"/>
      <point x="138.0" y="-240.0"/>
      <point x="64.0" y="-240.0" type="line"/>
      <point x="32.0" y="-240.0"/>
      <point x="14.0" y="-235.0" type="line"/>
      <point x="14.0" y="-180.0" type="line"/>
      <point x="23.0" y="-182.0"/>
      <point x="53.0" y="-185.0"/>
      <point x="67.0" y="-185.0" type="line"/>
      <point x="103.0" y="-185.0"/>
      <point x="141.0" y="-166.0"/>
      <point x="141.0" y="-141.0" type="line"/>
      <point x="141.0" y="-115.0"/>
      <point x="88.0" y="-91.0"/>
      <point x="50.0" y="-86.0" type="line"/>
      <point x="93.0" y="0.0" type="line"/>
      <point x="151.0" y="0.0" type="line"/>
      <point x="125.0" y="-53.0" type="line"/>
      <point x="161.0" y="-61.0"/>
      <point x="212.0" y="-101.0"/>
    </contour>
  </outline>
</glyph>
<glyph name="uni00B9" format="2">
  <advance width="350.0"/>
  <unicode hex="00B9"/>
  <outline>
    <contour>
      <point x="240.0" y="844.0" type="line"/>
      <point x="240.0" y="416.0" type="line"/>
      <point x="169.0" y="416.0" type="line"/>
      <point x="169.0" y="692.0" type="line"/>
      <point x="169.0" y="718.0"/>
      <point x="172.0" y="760.0"/>
      <point x="173.0" y="781.0" type="line"/>
      <point x="163.0" y="772.0"/>
      <point x="139.0" y="751.0"/>
      <point x="126.0" y="742.0" type="line"/>
      <point x="72.0" y="703.0" type="line"/>
      <point x="37.0" y="752.0" type="line"/>
      <point x="167.0" y="844.0" type="line"/>
    </contour>
  </outline>
</glyph>
<glyph name="uni00BA" format="2">
  <advance width="376.0"/>
  <unicode hex="00BA"/>
  <outline>
    <contour>
      <point x="345.0" y="553.0" type="line"/>
      <point x="345.0" y="472.0"/>
      <point x="259.0" y="383.0"/>
      <point x="187.0" y="383.0" type="line"/>
      <point x="120.0" y="383.0"/>
      <point x="32.0" y="470.0"/>
      <point x="32.0" y="553.0" type="line"/>
      <point x="32.0" y="635.0"/>
      <point x="116.0" y="722.0"/>
      <point x="189.0" y="722.0" type="line"/>
      <point x="260.0" y="722.0"/>
      <point x="345.0" y="636.0"/>
    </contour>
    <contour>
      <point x="95.0" y="553.0" type="line"/>
      <point x="95.0" y="495.0"/>
      <point x="139.0" y="436.0"/>
      <point x="188.0" y="436.0" type="line"/>
      <point x="237.0" y="436.0"/>
      <point x="281.0" y="495.0"/>
      <point x="281.0" y="553.0" type="line"/>
      <point x="281.0" y="612.0"/>
      <point x="237.0" y="669.0"/>
      <point x="188.0" y="669.0" type="line"/>
      <point x="139.0" y="669.0"/>
      <point x="95.0" y="612.0"/>
    </contour>
  </outline>
</glyph>
<glyph name="uni00BB" format="2">
  <advance width="509.0"/>
  <unicode hex="00BB"/>
  <outline>
    <contour>
      <point x="469.0" y="257.0" type="line"/>
      <point x="299.0" y="56.0" type="line"/>
      <point x="237.0" y="93.0" type="line"/>
      <point x="377.0" y="264.0" type="line"/>
      <point x="237.0" y="435.0" type="line"/>
      <point x="299.0" y="471.0" type="line"/>
      <point x="469.0" y="270.0" type="line"/>
    </contour>
    <contour>
      <point x="270.0" y="257.0" type="line"/>
      <point x="101.0" y="56.0" type="line"/>
      <point x="39.0" y="93.0" type="line"/>
      <point x="179.0" y="264.0" type="line"/>
      <point x="39.0" y="435.0" type="line"/>
      <point x="101.0" y="471.0" type="line"/>
      <point x="270.0" y="270.0" type="line"/>
    </contour>
  </outline>
</glyph>
<glyph name="uni00BC" format="2">
  <advance width="745.0"/>
  <unicode hex="00BC"/>
  <outline>
    <contour>
      <point x="126.0" y="0.0" type="line"/>
      <point x="562.0" y="714.0" type="line"/>
      <point x="637.0" y="714.0" type="line"/>
      <point x="201.0" y="0.0" type="line"/>
    </contour>
    <contour>
      <point x="166.0" y="562.0" type="line"/>
      <point x="166.0" y="588.0"/>
      <point x="169.0" y="630.0"/>
      <point x="170.0" y="651.0" type="line"/>
      <point x="160.0" y="642.0"/>
      <point x="136.0" y="621.0"/>
      <point x="123.0" y="612.0" type="line"/>
      <point x="69.0" y="573.0" type="line"/>
      <point x="34.0" y="622.0" type="line"/>
      <point x="164.0" y="714.0" type="line"/>
      <point x="237.0" y="714.0" type="line"/>
      <point x="237.0" y="286.0" type="line"/>
      <point x="166.0" y="286.0" type="line"/>
    </contour>
    <contour>
      <point x="600.0" y="0.0" type="line"/>
      <point x="600.0" y="96.0" type="line"/>
      <point x="405.0" y="96.0" type="line"/>
      <point x="405.0" y="148.0" type="line"/>
      <point x="602.0" y="431.0" type="line"/>
      <point x="675.0" y="431.0" type="line"/>
      <point x="675.0" y="156.0" type="line"/>
      <point x="736.0" y="156.0" type="line"/>
      <point x="736.0" y="96.0" type="line"/>
      <point x="675.0" y="96.0" type="line"/>
      <point x="675.0" y="0.0" type="line"/>
    </contour>
    <contour>
      <point x="475.0" y="156.0" type="line"/>
      <point x="600.0" y="156.0" type="line"/>
      <point x="600.0" y="249.0" type="line"/>
      <point x="600.0" y="270.0"/>
      <point x="602.0" y="326.0"/>
      <point x="603.0" y="350.0" type="line"/>
      <point x="598.0" y="339.0"/>
      <point x="566.0" y="290.0"/>
      <point x="555.0" y="273.0" type="line"/>
    </contour>
  </outline>
</glyph>
<glyph name="uni00BD" format="2">
  <advance width="771.0"/>
  <unicode hex="00BD"/>
  <outline>
    <contour>
      <point x="96.0" y="0.0" type="line"/>
      <point x="532.0" y="714.0" type="line"/>
      <point x="607.0" y="714.0" type="line"/>
      <point x="171.0" y="0.0" type="line"/>
    </contour>
    <contour>
      <point x="154.0" y="562.0" type="line"/>
      <point x="154.0" y="588.0"/>
      <point x="157.0" y="630.0"/>
      <point x="158.0" y="651.0" type="line"/>
      <point x="148.0" y="642.0"/>
      <point x="124.0" y="621.0"/>
      <point x="111.0" y="612.0" type="line"/>
      <point x="57.0" y="573.0" type="line"/>
      <point x="22.0" y="622.0" type="line"/>
      <point x="152.0" y="714.0" type="line"/>
      <point x="225.0" y="714.0" type="line"/>
      <point x="225.0" y="286.0" type="line"/>
      <point x="154.0" y="286.0" type="line"/>
    </contour>
    <contour>
      <point x="445.0" y="0.0" type="line"/>
      <point x="445.0" y="54.0" type="line"/>
      <point x="560.0" y="166.0" type="line"/>
      <point x="601.0" y="205.0"/>
      <point x="642.0" y="254.0"/>
      <point x="657.0" y="293.0"/>
      <point x="657.0" y="315.0" type="line"/>
      <point x="657.0" y="347.0"/>
      <point x="620.0" y="379.0"/>
      <point x="590.0" y="379.0" type="line"/>
      <point x="560.0" y="379.0"/>
      <point x="511.0" y="356.0"/>
      <point x="485.0" y="336.0" type="line"/>
      <point x="450.0" y="382.0" type="line"/>
      <point x="479.0" y="407.0"/>
      <point x="548.0" y="437.0"/>
      <point x="591.0" y="437.0" type="line"/>
      <point x="655.0" y="437.0"/>
      <point x="728.0" y="374.0"/>
      <point x="728.0" y="319.0" type="line"/>
      <point x="728.0" y="270.0"/>
      <point x="669.0" y="192.0"/>
      <point x="613.0" y="139.0" type="line"/>
      <point x="532.0" y="62.0" type="line"/>
      <point x="727.0" y="62.0" type="line"/>
      <point x="727.0" y="0.0" type="line"/>
    </contour>
  </outline>
</glyph>
<glyph name="uni00BE" format="2">
  <advance width="781.0"/>
  <unicode hex="00BE"/>
  <outline>
    <contour>
      <point x="146.0" y="278.0" type="line"/>
      <point x="109.0" y="278.0"/>
      <point x="45.0" y="291.0"/>
      <point x="15.0" y="306.0" type="line"/>
      <point x="15.0" y="369.0" type="line"/>
      <point x="85.0" y="335.0"/>
      <point x="147.0" y="335.0" type="line"/>
      <point x="199.0" y="335.0"/>
      <point x="247.0" y="376.0"/>
      <point x="247.0" y="411.0" type="line"/>
      <point x="247.0" y="447.0"/>
      <point x="189.0" y="480.0"/>
      <point x="137.0" y="480.0" type="line"/>
      <point x="80.0" y="480.0" type="line"/>
      <point x="80.0" y="535.0" type="line"/>
      <point x="137.0" y="535.0" type="line"/>
      <point x="187.0" y="535.0"/>
      <point x="234.0" y="574.0"/>
      <point x="234.0" y="605.0" type="line"/>
      <point x="234.0" y="637.0"/>
      <point x="193.0" y="666.0"/>
      <point x="164.0" y="666.0" type="line"/>
      <point x="133.0" y="666.0"/>
      <point x="80.0" y="645.0"/>
      <point x="53.0" y="628.0" type="line"/>
      <point x="17.0" y="674.0" type="line"/>
      <point x="48.0" y="697.0"/>
      <point x="117.0" y="723.0"/>
      <point x="163.0" y="723.0" type="line"/>
      <point x="234.0" y="723.0"/>
      <point x="306.0" y="661.0"/>
      <point x="306.0" y="613.0" type="line"/>
      <point x="306.0" y="573.0"/>
      <point x="263.0" y="521.0"/>
      <point x="233.0" y="511.0" type="line"/>
      <point x="233.0" y="508.0" type="line"/>
      <point x="272.0" y="501.0"/>
      <point x="319.0" y="450.0"/>
      <point x="319.0" y="409.0" type="line"/>
      <point x="319.0" y="351.0"/>
      <point x="235.0" y="278.0"/>
    </contour>
    <contour>
      <point x="170.0" y="0.0" type="line"/>
      <point x="606.0" y="714.0" type="line"/>
      <point x="681.0" y="714.0" type="line"/>
      <point x="245.0" y="0.0" type="line"/>
    </contour>
    <contour>
      <point x="636.0" y="0.0" type="line"/>
      <point x="636.0" y="96.0" type="line"/>
      <point x="441.0" y="96.0" type="line"/>
      <point x="441.0" y="148.0" type="line"/>
      <point x="638.0" y="431.0" type="line"/>
      <point x="711.0" y="431.0" type="line"/>
      <point x="711.0" y="156.0" type="line"/>
      <point x="772.0" y="156.0" type="line"/>
      <point x="772.0" y="96.0" type="line"/>
      <point x="711.0" y="96.0" type="line"/>
      <point x="711.0" y="0.0" type="line"/>
    </contour>
    <contour>
      <point x="511.0" y="156.0" type="line"/>
      <point x="636.0" y="156.0" type="line"/>
      <point x="636.0" y="249.0" type="line"/>
      <point x="636.0" y="270.0"/>
      <point x="638.0" y="326.0"/>
      <point x="639.0" y="350.0" type="line"/>
      <point x="634.0" y="339.0"/>
      <point x="602.0" y="290.0"/>
      <point x="591.0" y="273.0" type="line"/>
    </contour>
  </outline>
</glyph>
<glyph name="uni00BF" format="2">
  <advance width="434.0"/>
  <unicode hex="00BF"/>
  <outline>
    <contour>
      <point x="315.0" y="478.0" type="line"/>
      <point x="315.0" y="441.0"/>
      <point x="280.0" y="411.0"/>
      <point x="253.0" y="411.0" type="line"/>
      <point x="228.0" y="411.0"/>
      <point x="192.0" y="441.0"/>
      <point x="192.0" y="478.0" type="line"/>
      <point x="192.0" y="514.0"/>
      <point x="228.0" y="546.0"/>
      <point x="253.0" y="546.0" type="line"/>
      <point x="280.0" y="546.0"/>
      <point x="315.0" y="514.0"/>
    </contour>
    <contour>
      <point x="292.0" y="304.0" type="line"/>
      <point x="292.0" y="267.0"/>
      <point x="277.0" y="211.0"/>
      <point x="241.0" y="162.0"/>
      <point x="208.0" y="134.0" type="line"/>
      <point x="170.0" y="102.0"/>
      <point x="126.0" y="57.0"/>
      <point x="108.0" y="15.0"/>
      <point x="108.0" y="-15.0" type="line"/>
      <point x="108.0" y="-63.0"/>
      <point x="171.0" y="-115.0"/>
      <point x="229.0" y="-115.0" type="line"/>
      <point x="279.0" y="-115.0"/>
      <point x="355.0" y="-89.0"/>
      <point x="389.0" y="-73.0" type="line"/>
      <point x="420.0" y="-143.0" type="line"/>
      <point x="380.0" y="-164.0"/>
      <point x="283.0" y="-192.0"/>
      <point x="223.0" y="-192.0" type="line"/>
      <point x="128.0" y="-192.0"/>
      <point x="24.0" y="-98.0"/>
      <point x="24.0" y="-17.0" type="line"/>
      <point x="24.0" y="28.0"/>
      <point x="53.0" y="91.0"/>
      <point x="106.0" y="144.0"/>
      <point x="142.0" y="174.0" type="line"/>
      <point x="176.0" y="203.0"/>
      <point x="210.0" y="244.0"/>
      <point x="222.0" y="286.0"/>
      <point x="222.0" y="314.0" type="line"/>
      <point x="222.0" y="331.0" type="line"/>
      <point x="292.0" y="331.0" type="line"/>
    </contour>
  </outline>
</glyph>
<glyph name="uni00C1" format="2">
  <advance width="639.0"/>
  <unicode hex="00C1"/>
  <outline>
    <contour>
      <point x="545.0" y="0.0" type="line"/>
      <point x="459.0" y="221.0" type="line"/>
      <point x="176.0" y="221.0" type="line"/>
      <point x="91.0" y="0.0" type="line"/>
      <point x="0.0" y="0.0" type="line"/>
      <point x="279.0" y="717.0" type="line"/>
      <point x="360.0" y="717.0" type="line"/>
      <point x="638.0" y="0.0" type="line"/>
    </contour>
    <contour>
      <point x="352.0" y="517.0" type="line"/>
      <point x="349.0" y="525.0"/>
      <point x="335.0" y="567.0"/>
      <point x="322.0" y="612.0"/>
      <point x="318.0" y="624.0" type="line"/>
      <point x="311.0" y="593.0"/>
      <point x="293.0" y="534.0"/>
      <point x="287.0" y="517.0" type="line"/>
      <point x="206.0" y="301.0" type="line"/>
      <point x="432.0" y="301.0" type="line"/>
    </contour>
    <contour>
      <point x="466.0" y="934.0" type="line"/>
      <point x="454.0" y="916.0"/>
      <point x="404.0" y="859.0"/>
      <point x="347.0" y="802.0"/>
      <point x="323.0" y="784.0" type="line"/>
      <point x="265.0" y="784.0" type="line"/>
      <point x="265.0" y="796.0" type="line"/>
      <point x="280.0" y="815.0"/>
      <point x="315.0" y="867.0"/>
      <point x="349.0" y="922.0"/>
      <point x="360.0" y="944.0" type="line"/>
      <point x="466.0" y="944.0" type="line"/>
    </contour>
  </outline>
</glyph>
<glyph name="uni00C3" format="2">
  <advance width="639.0"/>
  <unicode hex="00C3"/>
  <outline>
    <contour>
      <point x="545.0" y="0.0" type="line"/>
      <point x="459.0" y="221.0" type="line"/>
      <point x="176.0" y="221.0" type="line"/>
      <point x="91.0" y="0.0" type="line"/>
      <point x="0.0" y="0.0" type="line"/>
      <point x="279.0" y="717.0" type="line"/>
      <point x="360.0" y="717.0" type="line"/>
      <point x="638.0" y="0.0" type="line"/>
    </contour>
    <contour>
      <point x="352.0" y="517.0" type="line"/>
      <point x="349.0" y="525.0"/>
      <point x="335.0" y="567.0"/>
      <point x="322.0" y="612.0"/>
      <point x="318.0" y="624.0" type="line"/>
      <point x="311.0" y="593.0"/>
      <point x="293.0" y="534.0"/>
      <point x="287.0" y="517.0" type="line"/>
      <point x="206.0" y="301.0" type="line"/>
      <point x="432.0" y="301.0" type="line"/>
    </contour>
    <contour>
      <point x="135.0" y="784.0" type="line"/>
      <point x="141.0" y="843.0"/>
      <point x="198.0" y="912.0"/>
      <point x="245.0" y="912.0" type="line"/>
      <point x="275.0" y="912.0"/>
      <point x="328.0" y="883.0"/>
      <point x="376.0" y="855.0"/>
      <point x="397.0" y="855.0" type="line"/>
      <point x="420.0" y="855.0"/>
      <point x="445.0" y="884.0"/>
      <point x="452.0" y="913.0" type="line"/>
      <point x="502.0" y="913.0" type="line"/>
      <point x="496.0" y="855.0"/>
      <point x="440.0" y="785.0"/>
      <point x="393.0" y="785.0" type="line"/>
      <point x="365.0" y="785.0"/>
      <point x="312.0" y="813.0"/>
      <point x="263.0" y="842.0"/>
      <point x="241.0" y="842.0" type="line"/>
      <point x="217.0" y="842.0"/>
      <point x="193.0" y="813.0"/>
      <point x="186.0" y="784.0" type="line"/>
    </contour>
  </outline>
</glyph>
<glyph name="uni00C5" format="2">
  <advance width="639.0"/>
  <unicode hex="00C5"/>
  <outline>
    <contour>
      <point x="545.0" y="0.0" type="line"/>
      <point x="459.0" y="221.0" type="line"/>
      <point x="176.0" y="221.0" type="line"/>
      <point x="91.0" y="0.0" type="line"/>
      <point x="0.0" y="0.0" type="line"/>
      <point x="279.0" y="717.0" type="line"/>
      <point x="360.0" y="717.0" type="line"/>
      <point x="638.0" y="0.0" type="line"/>
    </contour>
    <contour>
      <point x="352.0" y="517.0" type="line"/>
      <point x="349.0" y="525.0"/>
      <point x="335.0" y="567.0"/>
      <point x="322.0" y="612.0"/>
      <point x="318.0" y="624.0" type="line"/>
      <point x="311.0" y="593.0"/>
      <point x="293.0" y="534.0"/>
      <point x="287.0" y="517.0" type="line"/>
      <point x="206.0" y="301.0" type="line"/>
      <point x="432.0" y="301.0" type="line"/>
    </contour>
    <contour>
      <point x="317.0" y="667.0" type="line"/>
      <point x="268.0" y="667.0"/>
      <point x="208.0" y="723.0"/>
      <point x="208.0" y="773.0" type="line"/>
      <point x="208.0" y="823.0"/>
      <point x="268.0" y="878.0"/>
      <point x="317.0" y="878.0" type="line"/>
      <point x="364.0" y="878.0"/>
      <point x="428.0" y="823.0"/>
      <point x="428.0" y="774.0" type="line"/>
      <point x="428.0" y="723.0"/>
      <point x="365.0" y="667.0"/>
    </contour>
    <contour>
      <point x="317.0" y="717.0" type="line"/>
      <point x="342.0" y="717.0"/>
      <point x="373.0" y="747.0"/>
      <point x="373.0" y="773.0" type="line"/>
      <point x="373.0" y="799.0"/>
      <point x="341.0" y="829.0"/>
      <point x="317.0" y="829.0" type="line"/>
      <point x="293.0" y="829.0"/>
      <point x="261.0" y="799.0"/>
      <point x="261.0" y="773.0" type="line"/>
      <point x="261.0" y="747.0"/>
      <point x="290.0" y="717.0"/>
    </contour>
  </outline>
</glyph>
<glyph name="uni00C6" format="2">
  <advance width="881.0"/>
  <unicode hex="00C6"/>
  <outline>
    <contour>
      <point x="821.0" y="0.0" type="line"/>
      <point x="449.0" y="0.0" type="line"/>
      <point x="449.0" y="221.0" type="line"/>
      <point x="199.0" y="221.0" type="line"/>
      <point x="92.0" y="0.0" type="line"/>
      <point x="-1.0" y="0.0" type="line"/>
      <point x="338.0" y="714.0" type="line"/>
      <point x="821.0" y="714.0" type="line"/>
      <point x="821.0" y="635.0" type="line"/>
      <point x="539.0" y="635.0" type="line"/>
      <point x="539.0" y="412.0" type="line"/>
      <point x="802.0" y="412.0" type="line"/>
      <point x="802.0" y="334.0" type="line"/>
      <point x="539.0" y="334.0" type="line"/>
      <point x="539.0" y="79.0" type="line"/>
      <point x="821.0" y="79.0" type="line"/>
    </contour>
    <contour>
      <point x="234.0" y="301.0" type="line"/>
      <point x="449.0" y="301.0" type="line"/>
      <point x="449.0" y="634.0" type="line"/>
      <point x="391.0" y="634.0" type="line"/>
    </contour>
  </outline>
</glyph>
<glyph name="uni00C7" format="2">
  <advance width="632.0"/>
  <unicode hex="00C7"/>
  <outline>
    <contour>
      <point x="403.0" y="645.0" type="line"/>
      <point x="288.0" y="645.0"/>
      <point x="156.0" y="491.0"/>
      <point x="156.0" y="357.0" type="line"/>
      <point x="156.0" y="224.0"/>
      <point x="279.0" y="69.0"/>
      <point x="402.0" y="69.0" type="line"/>
      <point x="449.0" y="69.0"/>
      <point x="533.0" y="85.0"/>
      <point x="573.0" y="97.0" type="line"/>
      <point x="573.0" y="19.0" type="line"/>
      <point x="533.0" y="4.0"/>
      <point x="448.0" y="-10.0"/>
      <point x="389.0" y="-10.0" type="line"/>
      <point x="280.0" y="-10.0"/>
      <point x="134.0" y="80.0"/>
      <point x="61.0" y="246.0"/>
      <point x="61.0" y="358.0" type="line"/>
      <point x="61.0" y="466.0"/>
      <point x="140.0" y="631.0"/>
      <point x="294.0" y="724.0"/>
      <point x="404.0" y="724.0" type="line"/>
      <point x="517.0" y="724.0"/>
      <point x="601.0" y="682.0" type="line"/>
      <point x="565.0" y="606.0" type="line"/>
      <point x="532.0" y="621.0"/>
      <point x="451.0" y="645.0"/>
    </contour>
    <contour>
      <point x="473.0" y="-139.0" type="line"/>
      <point x="473.0" y="-187.0"/>
      <point x="399.0" y="-240.0"/>
      <point x="325.0" y="-240.0" type="line"/>
      <point x="293.0" y="-240.0"/>
      <point x="275.0" y="-235.0" type="line"/>
      <point x="275.0" y="-180.0" type="line"/>
      <point x="284.0" y="-182.0"/>
      <point x="314.0" y="-185.0"/>
      <point x="328.0" y="-185.0" type="line"/>
      <point x="364.0" y="-185.0"/>
      <point x="402.0" y="-166.0"/>
      <point x="402.0" y="-141.0" type="line"/>
      <point x="402.0" y="-115.0"/>
      <point x="349.0" y="-91.0"/>
      <point x="311.0" y="-86.0" type="line"/>
      <point x="354.0" y="0.0" type="line"/>
      <point x="412.0" y="0.0" type="line"/>
      <point x="386.0" y="-53.0" type="line"/>
      <point x="422.0" y="-61.0"/>
      <point x="473.0" y="-101.0"/>
    </contour>
  </outline>
</glyph>
<glyph name="uni00C8" format="2">
  <advance width="556.0"/>
  <unicode hex="00C8"/>
  <outline>
    <contour>
      <point x="496.0" y="0.0" type="line"/>
      <point x="97.0" y="0.0" type="line"/>
      <point x="97.0" y="714.0" type="line"/>
      <point x="496.0" y="714.0" type="line"/>
      <point x="496.0" y="635.0" type="line"/>
      <point x="187.0" y="635.0" type="line"/>
      <point x="187.0" y="412.0" type="line"/>
      <point x="478.0" y="412.0" type="line"/>
      <point x="478.0" y="334.0" type="line"/>
      <point x="187.0" y="334.0" type="line"/>
      <point x="187.0" y="79.0" type="line"/>
      <point x="496.0" y="79.0" type="line"/>
    </contour>
    <contour>
      <point x="280.0" y="944.0" type="line"/>
      <point x="291.0" y="922.0"/>
      <point x="324.0" y="867.0"/>
      <point x="361.0" y="815.0"/>
      <point x="376.0" y="796.0" type="line"/>
      <point x="376.0" y="784.0" type="line"/>
      <point x="317.0" y="784.0" type="line"/>
      <point x="294.0" y="802.0"/>
      <point x="236.0" y="859.0"/>
      <point x="187.0" y="916.0"/>
      <point x="175.0" y="934.0" type="line"/>
      <point x="175.0" y="944.0" type="line"/>
    </contour>
  </outline>
</glyph>
<glyph name="uni00C9" format="2">
  <advance width="556.0"/>
  <unicode hex="00C9"/>
  <outline>
    <contour>
      <point x="496.0" y="0.0" type="line"/>
      <point x="97.0" y="0.0" type="line"/>
      <point x="97.0" y="714.0" type="line"/>
      <point x="496.0" y="714.0" type="line"/>
      <point x="496.0" y="635.0" type="line"/>
      <point x="187.0" y="635.0" type="line"/>
      <point x="187.0" y="412.0" type="line"/>
      <point x="478.0" y="412.0" type="line"/>
      <point x="478.0" y="334.0" type="line"/>
      <point x="187.0" y="334.0" type="line"/>
      <point x="187.0" y="79.0" type="line"/>
      <point x="496.0" y="79.0" type="line"/>
    </contour>
    <contour>
      <point x="453.0" y="934.0" type="line"/>
      <point x="441.0" y="916.0"/>
      <point x="391.0" y="859.0"/>
      <point x="334.0" y="802.0"/>
      <point x="310.0" y="784.0" type="line"/>
      <point x="252.0" y="784.0" type="line"/>
      <point x="252.0" y="796.0" type="line"/>
      <point x="267.0" y="815.0"/>
      <point x="302.0" y="867.0"/>
      <point x="336.0" y="922.0"/>
      <point x="347.0" y="944.0" type="line"/>
      <point x="453.0" y="944.0" type="line"/>
    </contour>
  </outline>
</glyph>
<glyph name="uni00CA" format="2">
  <advance width="556.0"/>
  <unicode hex="00CA"/>
  <outline>
    <contour>
      <point x="496.0" y="0.0" type="line"/>
      <point x="97.0" y="0.0" type="line"/>
      <point x="97.0" y="714.0" type="line"/>
      <point x="496.0" y="714.0" type="line"/>
      <point x="496.0" y="635.0" type="line"/>
      <point x="187.0" y="635.0" type="line"/>
      <point x="187.0" y="412.0" type="line"/>
      <point x="478.0" y="412.0" type="line"/>
      <point x="478.0" y="334.0" type="line"/>
      <point x="187.0" y="334.0" type="line"/>
      <point x="187.0" y="79.0" type="line"/>
      <point x="496.0" y="79.0" type="line"/>
    </contour>
    <contour>
      <point x="349.0" y="944.0" type="line"/>
      <point x="361.0" y="922.0"/>
      <point x="406.0" y="867.0"/>
      <point x="455.0" y="814.0"/>
      <point x="474.0" y="795.0" type="line"/>
      <point x="474.0" y="784.0" type="line"/>
      <point x="412.0" y="784.0" type="line"/>
      <point x="386.0" y="800.0"/>
      <point x="330.0" y="847.0"/>
      <point x="303.0" y="874.0" type="line"/>
      <point x="276.0" y="847.0"/>
      <point x="222.0" y="801.0"/>
      <point x="196.0" y="784.0" type="line"/>
      <point x="136.0" y="784.0" type="line"/>
      <point x="136.0" y="795.0" type="line"/>
      <point x="155.0" y="815.0"/>
      <point x="202.0" y="867.0"/>
      <point x="246.0" y="922.0"/>
      <point x="259.0" y="944.0" type="line"/>
    </contour>
  </outline>
</glyph>
<glyph name="uni00CB" format="2">
  <advance width="556.0"/>
  <unicode hex="00CB"/>
  <outline>
    <contour>
      <point x="496.0" y="0.0" type="line"/>
      <point x="97.0" y="0.0" type="line"/>
      <point x="97.0" y="714.0" type="line"/>
      <point x="496.0" y="714.0" type="line"/>
      <point x="496.0" y="635.0" type="line"/>
      <point x="187.0" y="635.0" type="line"/>
      <point x="187.0" y="412.0" type="line"/>
      <point x="478.0" y="412.0" type="line"/>
      <point x="478.0" y="334.0" type="line"/>
      <point x="187.0" y="334.0" type="line"/>
      <point x="187.0" y="79.0" type="line"/>
      <point x="496.0" y="79.0" type="line"/>
    </contour>
    <contour>
      <point x="165.0" y="859.0" type="line"/>
      <point x="165.0" y="885.0"/>
      <point x="193.0" y="908.0"/>
      <point x="212.0" y="908.0" type="line"/>
      <point x="231.0" y="908.0"/>
      <point x="259.0" y="885.0"/>
      <point x="259.0" y="859.0" type="line"/>
      <point x="259.0" y="834.0"/>
      <point x="231.0" y="809.0"/>
      <point x="212.0" y="809.0" type="line"/>
      <point x="193.0" y="809.0"/>
      <point x="165.0" y="834.0"/>
    </contour>
    <contour>
      <point x="353.0" y="859.0" type="line"/>
      <point x="353.0" y="885.0"/>
      <point x="380.0" y="908.0"/>
      <point x="399.0" y="908.0" type="line"/>
      <point x="418.0" y="908.0"/>
      <point x="446.0" y="885.0"/>
      <point x="446.0" y="859.0" type="line"/>
      <point x="446.0" y="834.0"/>
      <point x="418.0" y="809.0"/>
      <point x="399.0" y="809.0" type="line"/>
      <point x="380.0" y="809.0"/>
      <point x="353.0" y="834.0"/>
    </contour>
  </outline>
</glyph>
<glyph name="uni00CC" format="2">
  <advance width="339.0"/>
  <unicode hex="00CC"/>
  <outline>
    <contour>
      <point x="298.0" y="0.0" type="line"/>
      <point x="40.0" y="0.0" type="line"/>
      <point x="40.0" y="52.0" type="line"/>
      <point x="124.0" y="71.0" type="line"/>
      <point x="124.0" y="642.0" type="line"/>
      <point x="40.0" y="662.0" type="line"/>
      <point x="40.0" y="714.0" type="line"/>
      <point x="298.0" y="714.0" type="line"/>
      <point x="298.0" y="662.0" type="line"/>
      <point x="214.0" y="642.0" type="line"/>
      <point x="214.0" y="71.0" type="line"/>
      <point x="298.0" y="52.0" type="line"/>
    </contour>
    <contour>
      <point x="145.0" y="944.0" type="line"/>
      <point x="156.0" y="922.0"/>
      <point x="189.0" y="867.0"/>
      <point x="226.0" y="815.0"/>
      <point x="241.0" y="796.0" type="line"/>
      <point x="241.0" y="784.0" type="line"/>
      <point x="182.0" y="784.0" type="line"/>
      <point x="159.0" y="802.0"/>
      <point x="101.0" y="859.0"/>
      <point x="52.0" y="916.0"/>
      <point x="40.0" y="934.0" type="line"/>
      <point x="40.0" y="944.0" type="line"/>
    </contour>
  </outline>
</glyph>
<glyph name="uni00CD" format="2">
  <advance width="339.0"/>
  <unicode hex="00CD"/>
  <outline>
    <contour>
      <point x="298.0" y="0.0" type="line"/>
      <point x="40.0" y="0.0" type="line"/>
      <point x="40.0" y="52.0" type="line"/>
      <point x="124.0" y="71.0" type="line"/>
      <point x="124.0" y="642.0" type="line"/>
      <point x="40.0" y="662.0" type="line"/>
      <point x="40.0" y="714.0" type="line"/>
      <point x="298.0" y="714.0" type="line"/>
      <point x="298.0" y="662.0" type="line"/>
      <point x="214.0" y="642.0" type="line"/>
      <point x="214.0" y="71.0" type="line"/>
      <point x="298.0" y="52.0" type="line"/>
    </contour>
    <contour>
      <point x="318.0" y="934.0" type="line"/>
      <point x="306.0" y="916.0"/>
      <point x="256.0" y="859.0"/>
      <point x="199.0" y="802.0"/>
      <point x="175.0" y="784.0" type="line"/>
      <point x="117.0" y="784.0" type="line"/>
      <point x="117.0" y="796.0" type="line"/>
      <point x="132.0" y="815.0"/>
      <point x="167.0" y="867.0"/>
      <point x="201.0" y="922.0"/>
      <point x="212.0" y="944.0" type="line"/>
      <point x="318.0" y="944.0" type="line"/>
    </contour>
  </outline>
</glyph>
<glyph name="uni00CE" format="2">
  <advance width="339.0"/>
  <unicode hex="00CE"/>
  <outline>
    <contour>
      <point x="298.0" y="0.0" type="line"/>
      <point x="40.0" y="0.0" type="line"/>
      <point x="40.0" y="52.0" type="line"/>
      <point x="124.0" y="71.0" type="line"/>
      <point x="124.0" y="642.0" type="line"/>
      <point x="40.0" y="662.0" type="line"/>
      <point x="40.0" y="714.0" type="line"/>
      <point x="298.0" y="714.0" type="line"/>
      <point x="298.0" y="662.0" type="line"/>
      <point x="214.0" y="642.0" type="line"/>
      <point x="214.0" y="71.0" type="line"/>
      <point x="298.0" y="52.0" type="line"/>
    </contour>
    <contour>
      <point x="214.0" y="944.0" type="line"/>
      <point x="226.0" y="922.0"/>
      <point x="271.0" y="867.0"/>
      <point x="320.0" y="814.0"/>
      <point x="339.0" y="795.0" type="line"/>
      <point x="339.0" y="784.0" type="line"/>
      <point x="277.0" y="784.0" type="line"/>
      <point x="251.0" y="800.0"/>
      <point x="195.0" y="847.0"/>
      <point x="168.0" y="874.0" type="line"/>
      <point x="141.0" y="847.0"/>
      <point x="87.0" y="801.0"/>
      <point x="61.0" y="784.0" type="line"/>
      <point x="1.0" y="784.0" type="line"/>
      <point x="1.0" y="795.0" type="line"/>
      <point x="20.0" y="815.0"/>
      <point x="67.0" y="867.0"/>
      <point x="111.0" y="922.0"/>
      <point x="124.0" y="944.0" type="line"/>
    </contour>
  </outline>
</glyph>
<glyph name="uni00CF" format="2">
  <advance width="339.0"/>
  <unicode hex="00CF"/>
  <outline>
    <contour>
      <point x="298.0" y="0.0" type="line"/>
      <point x="40.0" y="0.0" type="line"/>
      <point x="40.0" y="52.0" type="line"/>
      <point x="124.0" y="71.0" type="line"/>
      <point x="124.0" y="642.0" type="line"/>
      <point x="40.0" y="662.0" type="line"/>
      <point x="40.0" y="714.0" type="line"/>
      <point x="298.0" y="714.0" type="line"/>
      <point x="298.0" y="662.0" type="line"/>
      <point x="214.0" y="642.0" type="line"/>
      <point x="214.0" y="71.0" type="line"/>
      <point x="298.0" y="52.0" type="line"/>
    </contour>
    <contour>
      <point x="30.0" y="859.0" type="line"/>
      <point x="30.0" y="885.0"/>
      <point x="58.0" y="908.0"/>
      <point x="77.0" y="908.0" type="line"/>
      <point x="96.0" y="908.0"/>
      <point x="124.0" y="885.0"/>
      <point x="124.0" y="859.0" type="line"/>
      <point x="124.0" y="834.0"/>
      <point x="96.0" y="809.0"/>
      <point x="77.0" y="809.0" type="line"/>
      <point x="58.0" y="809.0"/>
      <point x="30.0" y="834.0"/>
    </contour>
    <contour>
      <point x="218.0" y="859.0" type="line"/>
      <point x="218.0" y="885.0"/>
      <point x="245.0" y="908.0"/>
      <point x="264.0" y="908.0" type="line"/>
      <point x="283.0" y="908.0"/>
      <point x="311.0" y="885.0"/>
      <point x="311.0" y="859.0" type="line"/>
      <point x="311.0" y="834.0"/>
      <point x="283.0" y="809.0"/>
      <point x="264.0" y="809.0" type="line"/>
      <point x="245.0" y="809.0"/>
      <point x="218.0" y="834.0"/>
    </contour>
  </outline>
</glyph>
<glyph name="uni00D1" format="2">
  <advance width="760.0"/>
  <unicode hex="00D1"/>
  <outline>
    <contour>
      <point x="663.0" y="0.0" type="line"/>
      <point x="558.0" y="0.0" type="line"/>
      <point x="176.0" y="593.0" type="line"/>
      <point x="172.0" y="593.0" type="line"/>
      <point x="174.0" y="558.0"/>
      <point x="180.0" y="454.0"/>
      <point x="180.0" y="399.0" type="line"/>
      <point x="180.0" y="0.0" type="line"/>
      <point x="97.0" y="0.0" type="line"/>
      <point x="97.0" y="714.0" type="line"/>
      <point x="201.0" y="714.0" type="line"/>
      <point x="582.0" y="123.0" type="line"/>
      <point x="586.0" y="123.0" type="line"/>
      <point x="585.0" y="139.0"/>
      <point x="582.0" y="203.0"/>
      <point x="579.0" y="279.0"/>
      <point x="579.0" y="311.0" type="line"/>
      <point x="579.0" y="714.0" type="line"/>
      <point x="663.0" y="714.0" type="line"/>
    </contour>
    <contour>
      <point x="197.0" y="784.0" type="line"/>
      <point x="203.0" y="843.0"/>
      <point x="260.0" y="912.0"/>
      <point x="307.0" y="912.0" type="line"/>
      <point x="337.0" y="912.0"/>
      <point x="390.0" y="883.0"/>
      <point x="438.0" y="855.0"/>
      <point x="459.0" y="855.0" type="line"/>
      <point x="482.0" y="855.0"/>
      <point x="507.0" y="884.0"/>
      <point x="514.0" y="913.0" type="line"/>
      <point x="564.0" y="913.0" type="line"/>
      <point x="558.0" y="855.0"/>
      <point x="502.0" y="785.0"/>
      <point x="455.0" y="785.0" type="line"/>
      <point x="427.0" y="785.0"/>
      <point x="374.0" y="813.0"/>
      <point x="325.0" y="842.0"/>
      <point x="303.0" y="842.0" type="line"/>
      <point x="279.0" y="842.0"/>
      <point x="255.0" y="813.0"/>
      <point x="248.0" y="784.0" type="line"/>
    </contour>
  </outline>
</glyph>
<glyph name="uni00D4" format="2">
  <advance width="781.0"/>
  <unicode hex="00D4"/>
  <outline>
    <contour>
      <point x="720.0" y="358.0" type="line"/>
      <point x="720.0" y="247.0"/>
      <point x="645.0" y="82.0"/>
      <point x="499.0" y="-10.0"/>
      <point x="391.0" y="-10.0" type="line"/>
      <point x="280.0" y="-10.0"/>
      <point x="133.0" y="82.0"/>
      <point x="61.0" y="248.0"/>
      <point x="61.0" y="359.0" type="line"/>
      <point x="61.0" y="469.0"/>
      <point x="133.0" y="633.0"/>
      <point x="280.0" y="725.0"/>
      <point x="392.0" y="725.0" type="line"/>
      <point x="499.0" y="725.0"/>
      <point x="645.0" y="634.0"/>
      <point x="720.0" y="469.0"/>
    </contour>
    <contour>
      <point x="156.0" y="358.0" type="line"/>
      <point x="156.0" y="223.0"/>
      <point x="270.0" y="68.0"/>
      <point x="391.0" y="68.0" type="line"/>
      <point x="513.0" y="68.0"/>
      <point x="625.0" y="223.0"/>
      <point x="625.0" y="358.0" type="line"/>
      <point x="625.0" y="493.0"/>
      <point x="513.0" y="646.0"/>
      <point x="392.0" y="646.0" type="line"/>
      <point x="271.0" y="646.0"/>
      <point x="156.0" y="493.0"/>
    </contour>
    <contour>
      <point x="435.0" y="944.0" type="line"/>
      <point x="447.0" y="922.0"/>
      <point x="492.0" y="867.0"/>
      <point x="541.0" y="814.0"/>
      <point x="560.0" y="795.0" type="line"/>
      <point x="560.0" y="784.0" type="line"/>
      <point x="498.0" y="784.0" type="line"/>
      <point x="472.0" y="800.0"/>
      <point x="416.0" y="847.0"/>
      <point x="389.0" y="874.0" type="line"/>
      <point x="362.0" y="847.0"/>
      <point x="308.0" y="801.0"/>
      <point x="282.0" y="784.0" type="line"/>
      <point x="222.0" y="784.0" type="line"/>
      <point x="222.0" y="795.0" type="line"/>
      <point x="241.0" y="815.0"/>
      <point x="288.0" y="867.0"/>
      <point x="332.0" y="922.0"/>
      <point x="345.0" y="944.0" type="line"/>
    </contour>
  </outline>
</glyph>
<glyph name="uni00D5" format="2">
  <advance width="781.0"/>
  <unicode hex="00D5"/>
  <outline>
    <contour>
      <point x="720.0" y="358.0" type="line"/>
      <point x="720.0" y="247.0"/>
      <point x="645.0" y="82.0"/>
      <point x="499.0" y="-10.0"/>
      <point x="391.0" y="-10.0" type="line"/>
      <point x="280.0" y="-10.0"/>
      <point x="133.0" y="82.0"/>
      <point x="61.0" y="248.0"/>
      <point x="61.0" y="359.0" type="line"/>
      <point x="61.0" y="469.0"/>
      <point x="133.0" y="633.0"/>
      <point x="280.0" y="725.0"/>
      <point x="392.0" y="725.0" type="line"/>
      <point x="499.0" y="725.0"/>
      <point x="645.0" y="634.0"/>
      <point x="720.0" y="469.0"/>
    </contour>
    <contour>
      <point x="156.0" y="358.0" type="line"/>
      <point x="156.0" y="223.0"/>
      <point x="270.0" y="68.0"/>
      <point x="391.0" y="68.0" type="line"/>
      <point x="513.0" y="68.0"/>
      <point x="625.0" y="223.0"/>
      <point x="625.0" y="358.0" type="line"/>
      <point x="625.0" y="493.0"/>
      <point x="513.0" y="646.0"/>
      <point x="392.0" y="646.0" type="line"/>
      <point x="271.0" y="646.0"/>
      <point x="156.0" y="493.0"/>
    </contour>
    <contour>
      <point x="208.0" y="784.0" type="line"/>
      <point x="214.0" y="843.0"/>
      <point x="271.0" y="912.0"/>
      <point x="318.0" y="912.0" type="line"/>
      <point x="348.0" y="912.0"/>
      <point x="401.0" y="883.0"/>
      <point x="449.0" y="855.0"/>
      <point x="470.0" y="855.0" type="line"/>
      <point x="493.0" y="855.0"/>
      <point x="518.0" y="884.0"/>
      <point x="525.0" y="913.0" type="line"/>
      <point x="575.0" y="913.0" type="line"/>
      <point x="569.0" y="855.0"/>
      <point x="513.0" y="785.0"/>
      <point x="466.0" y="785.0" type="line"/>
      <point x="438.0" y="785.0"/>
      <point x="385.0" y="813.0"/>
      <point x="336.0" y="842.0"/>
      <point x="314.0" y="842.0" type="line"/>
      <point x="290.0" y="842.0"/>
      <point x="266.0" y="813.0"/>
      <point x="259.0" y="784.0" type="line"/>
    </contour>
  </outline>
</glyph>
<glyph name="uni00D6" format="2">
  <advance width="781.0"/>
  <unicode hex="00D6"/>
  <outline>
    <contour>
      <point x="720.0" y="358.0" type="line"/>
      <point x="720.0" y="247.0"/>
      <point x="645.0" y="82.0"/>
      <point x="499.0" y="-10.0"/>
      <point x="391.0" y="-10.0" type="line"/>
      <point x="280.0" y="-10.0"/>
      <point x="133.0" y="82.0"/>
      <point x="61.0" y="248.0"/>
      <point x="61.0" y="359.0" type="line"/>
      <point x="61.0" y="469.0"/>
      <point x="133.0" y="633.0"/>
      <point x="280.0" y="725.0"/>
      <point x="392.0" y="725.0" type="line"/>
      <point x="499.0" y="725.0"/>
      <point x="645.0" y="634.0"/>
      <point x="720.0" y="469.0"/>
    </contour>
    <contour>
      <point x="156.0" y="358.0" type="line"/>
      <point x="156.0" y="223.0"/>
      <point x="270.0" y="68.0"/>
      <point x="391.0" y="68.0" type="line"/>
      <point x="513.0" y="68.0"/>
      <point x="625.0" y="223.0"/>
      <point x="625.0" y="358.0" type="line"/>
      <point x="625.0" y="493.0"/>
      <point x="513.0" y="646.0"/>
      <point x="392.0" y="646.0" type="line"/>
      <point x="271.0" y="646.0"/>
      <point x="156.0" y="493.0"/>
    </contour>
    <contour>
      <point x="251.0" y="859.0" type="line"/>
      <point x="251.0" y="885.0"/>
      <point x="279.0" y="908.0"/>
      <point x="298.0" y="908.0" type="line"/>
      <point x="317.0" y="908.0"/>
      <point x="345.0" y="885.0"/>
      <point x="345.0" y="859.0" type="line"/>
      <point x="345.0" y="834.0"/>
      <point x="317.0" y="809.0"/>
      <point x="298.0" y="809.0" type="line"/>
      <point x="279.0" y="809.0"/>
      <point x="251.0" y="834.0"/>
    </contour>
    <contour>
      <point x="439.0" y="859.0" type="line"/>
      <point x="439.0" y="885.0"/>
      <point x="466.0" y="908.0"/>
      <point x="485.0" y="908.0" type="line"/>
      <point x="504.0" y="908.0"/>
      <point x="532.0" y="885.0"/>
      <point x="532.0" y="859.0" type="line"/>
      <point x="532.0" y="834.0"/>
      <point x="504.0" y="809.0"/>
      <point x="485.0" y="809.0" type="line"/>
      <point x="466.0" y="809.0"/>
      <point x="439.0" y="834.0"/>
    </contour>
  </outline>
</glyph>
<glyph name="uni00D7" format="2">
  <advance width="572.0"/>
  <unicode hex="00D7"/>
  <outline>
    <contour>
      <point x="456.0" y="574.0" type="line"/>
      <point x="506.0" y="523.0" type="line"/>
      <point x="336.0" y="353.0" type="line"/>
      <point x="505.0" y="183.0" type="line"/>
      <point x="455.0" y="132.0" type="line"/>
      <point x="284.0" y="301.0" type="line"/>
      <point x="117.0" y="132.0" type="line"/>
      <point x="65.0" y="183.0" type="line"/>
      <point x="234.0" y="353.0" type="line"/>
      <point x="64.0" y="522.0" type="line"/>
      <point x="116.0" y="574.0" type="line"/>
      <point x="285.0" y="403.0" type="line"/>
    </contour>
  </outline>
</glyph>
<glyph name="uni00D8" format="2">
  <advance width="781.0"/>
  <unicode hex="00D8"/>
  <outline>
    <contour>
      <point x="720.0" y="358.0" type="line"/>
      <point x="720.0" y="247.0"/>
      <point x="645.0" y="82.0"/>
      <point x="499.0" y="-10.0"/>
      <point x="391.0" y="-10.0" type="line"/>
      <point x="279.0" y="-10.0"/>
      <point x="206.0" y="37.0" type="line"/>
      <point x="158.0" y="-31.0" type="line"/>
      <point x="97.0" y="9.0" type="line"/>
      <point x="149.0" y="83.0" type="line"/>
      <point x="105.0" y="132.0"/>
      <point x="61.0" y="272.0"/>
      <point x="61.0" y="359.0" type="line"/>
      <point x="61.0" y="469.0"/>
      <point x="133.0" y="633.0"/>
      <point x="280.0" y="725.0"/>
      <point x="392.0" y="725.0" type="line"/>
      <point x="444.0" y="725.0"/>
      <point x="533.0" y="701.0"/>
      <point x="570.0" y="680.0" type="line"/>
      <point x="616.0" y="746.0" type="line"/>
      <point x="677.0" y="705.0" type="line"/>
      <point x="626.0" y="634.0" type="line"/>
      <point x="720.0" y="535.0"/>
    </contour>
    <contour>
      <point x="156.0" y="358.0" type="line"/>
      <point x="156.0" y="297.0"/>
      <point x="179.0" y="197.0"/>
      <point x="203.0" y="160.0" type="line"/>
      <point x="522.0" y="611.0" type="line"/>
      <point x="470.0" y="646.0"/>
      <point x="392.0" y="646.0" type="line"/>
      <point x="271.0" y="646.0"/>
      <point x="156.0" y="493.0"/>
    </contour>
    <contour>
      <point x="625.0" y="358.0" type="line"/>
      <point x="625.0" y="487.0"/>
      <point x="574.0" y="560.0" type="line"/>
      <point x="254.0" y="106.0" type="line"/>
      <point x="280.0" y="88.0"/>
      <point x="349.0" y="68.0"/>
      <point x="391.0" y="68.0" type="line"/>
      <point x="513.0" y="68.0"/>
      <point x="625.0" y="223.0"/>
    </contour>
  </outline>
</glyph>
<glyph name="uni00D9" format="2">
  <advance width="731.0"/>
  <unicode hex="00D9"/>
  <outline>
    <contour>
      <point x="640.0" y="252.0" type="line"/>
      <point x="640.0" y="178.0"/>
      <point x="580.0" y="59.0"/>
      <point x="457.0" y="-10.0"/>
      <point x="362.0" y="-10.0" type="line"/>
      <point x="229.0" y="-10.0"/>
      <point x="90.0" y="135.0"/>
      <point x="90.0" y="254.0" type="line"/>
      <point x="90.0" y="714.0" type="line"/>
      <point x="180.0" y="714.0" type="line"/>
      <point x="180.0" y="251.0" type="line"/>
      <point x="180.0" y="164.0"/>
      <point x="273.0" y="68.0"/>
      <point x="367.0" y="68.0" type="line"/>
      <point x="464.0" y="68.0"/>
      <point x="551.0" y="171.0"/>
      <point x="551.0" y="252.0" type="line"/>
      <point x="551.0" y="714.0" type="line"/>
      <point x="640.0" y="714.0" type="line"/>
    </contour>
    <contour>
      <point x="341.0" y="944.0" type="line"/>
      <point x="352.0" y="922.0"/>
      <point x="385.0" y="867.0"/>
      <point x="422.0" y="815.0"/>
      <point x="437.0" y="796.0" type="line"/>
      <point x="437.0" y="784.0" type="line"/>
      <point x="378.0" y="784.0" type="line"/>
      <point x="355.0" y="802.0"/>
      <point x="297.0" y="859.0"/>
      <point x="248.0" y="916.0"/>
      <point x="236.0" y="934.0" type="line"/>
      <point x="236.0" y="944.0" type="line"/>
    </contour>
  </outline>
</glyph>
<glyph name="uni00DA" format="2">
  <advance width="731.0"/>
  <unicode hex="00DA"/>
  <outline>
    <contour>
      <point x="640.0" y="252.0" type="line"/>
      <point x="640.0" y="178.0"/>
      <point x="580.0" y="59.0"/>
      <point x="457.0" y="-10.0"/>
      <point x="362.0" y="-10.0" type="line"/>
      <point x="229.0" y="-10.0"/>
      <point x="90.0" y="135.0"/>
      <point x="90.0" y="254.0" type="line"/>
      <point x="90.0" y="714.0" type="line"/>
      <point x="180.0" y="714.0" type="line"/>
      <point x="180.0" y="251.0" type="line"/>
      <point x="180.0" y="164.0"/>
      <point x="273.0" y="68.0"/>
      <point x="367.0" y="68.0" type="line"/>
      <point x="464.0" y="68.0"/>
      <point x="551.0" y="171.0"/>
      <point x="551.0" y="252.0" type="line"/>
      <point x="551.0" y="714.0" type="line"/>
      <point x="640.0" y="714.0" type="line"/>
    </contour>
    <contour>
      <point x="514.0" y="934.0" type="line"/>
      <point x="502.0" y="916.0"/>
      <point x="452.0" y="859.0"/>
      <point x="395.0" y="802.0"/>
      <point x="371.0" y="784.0" type="line"/>
      <point x="313.0" y="784.0" type="line"/>
      <point x="313.0" y="796.0" type="line"/>
      <point x="328.0" y="815.0"/>
      <point x="363.0" y="867.0"/>
      <point x="397.0" y="922.0"/>
      <point x="408.0" y="944.0" type="line"/>
      <point x="514.0" y="944.0" type="line"/>
    </contour>
  </outline>
</glyph>
<glyph name="uni00DB" format="2">
  <advance width="731.0"/>
  <unicode hex="00DB"/>
  <outline>
    <contour>
      <point x="640.0" y="252.0" type="line"/>
      <point x="640.0" y="178.0"/>
      <point x="580.0" y="59.0"/>
      <point x="457.0" y="-10.0"/>
      <point x="362.0" y="-10.0" type="line"/>
      <point x="229.0" y="-10.0"/>
      <point x="90.0" y="135.0"/>
      <point x="90.0" y="254.0" type="line"/>
      <point x="90.0" y="714.0" type="line"/>
      <point x="180.0" y="714.0" type="line"/>
      <point x="180.0" y="251.0" type="line"/>
      <point x="180.0" y="164.0"/>
      <point x="273.0" y="68.0"/>
      <point x="367.0" y="68.0" type="line"/>
      <point x="464.0" y="68.0"/>
      <point x="551.0" y="171.0"/>
      <point x="551.0" y="252.0" type="line"/>
      <point x="551.0" y="714.0" type="line"/>
      <point x="640.0" y="714.0" type="line"/>
    </contour>
    <contour>
      <point x="410.0" y="944.0" type="line"/>
      <point x="422.0" y="922.0"/>
      <point x="467.0" y="867.0"/>
      <point x="516.0" y="814.0"/>
      <point x="535.0" y="795.0" type="line"/>
      <point x="535.0" y="784.0" type="line"/>
      <point x="473.0" y="784.0" type="line"/>
      <point x="447.0" y="800.0"/>
      <point x="391.0" y="847.0"/>
      <point x="364.0" y="874.0" type="line"/>
      <point x="337.0" y="847.0"/>
      <point x="283.0" y="801.0"/>
      <point x="257.0" y="784.0" type="line"/>
      <point x="197.0" y="784.0" type="line"/>
      <point x="197.0" y="795.0" type="line"/>
      <point x="216.0" y="815.0"/>
      <point x="263.0" y="867.0"/>
      <point x="307.0" y="922.0"/>
      <point x="320.0" y="944.0" type="line"/>
    </contour>
  </outline>
</glyph>
<glyph name="uni00DC" format="2">
  <advance width="731.0"/>
  <unicode hex="00DC"/>
  <outline>
    <contour>
      <point x="640.0" y="252.0" type="line"/>
      <point x="640.0" y="178.0"/>
      <point x="580.0" y="59.0"/>
      <point x="457.0" y="-10.0"/>
      <point x="362.0" y="-10.0" type="line"/>
      <point x="229.0" y="-10.0"/>
      <point x="90.0" y="135.0"/>
      <point x="90.0" y="254.0" type="line"/>
      <point x="90.0" y="714.0" type="line"/>
      <point x="180.0" y="714.0" type="line"/>
      <point x="180.0" y="251.0" type="line"/>
      <point x="180.0" y="164.0"/>
      <point x="273.0" y="68.0"/>
      <point x="367.0" y="68.0" type="line"/>
      <point x="464.0" y="68.0"/>
      <point x="551.0" y="171.0"/>
      <point x="551.0" y="252.0" type="line"/>
      <point x="551.0" y="714.0" type="line"/>
      <point x="640.0" y="714.0" type="line"/>
    </contour>
    <contour>
      <point x="226.0" y="859.0" type="line"/>
      <point x="226.0" y="885.0"/>
      <point x="254.0" y="908.0"/>
      <point x="273.0" y="908.0" type="line"/>
      <point x="292.0" y="908.0"/>
      <point x="320.0" y="885.0"/>
      <point x="320.0" y="859.0" type="line"/>
      <point x="320.0" y="834.0"/>
      <point x="292.0" y="809.0"/>
      <point x="273.0" y="809.0" type="line"/>
      <point x="254.0" y="809.0"/>
      <point x="226.0" y="834.0"/>
    </contour>
    <contour>
      <point x="414.0" y="859.0" type="line"/>
      <point x="414.0" y="885.0"/>
      <point x="441.0" y="908.0"/>
      <point x="460.0" y="908.0" type="line"/>
      <point x="479.0" y="908.0"/>
      <point x="507.0" y="885.0"/>
      <point x="507.0" y="859.0" type="line"/>
      <point x="507.0" y="834.0"/>
      <point x="479.0" y="809.0"/>
      <point x="460.0" y="809.0" type="line"/>
      <point x="441.0" y="809.0"/>
      <point x="414.0" y="834.0"/>
    </contour>
  </outline>
</glyph>
<glyph name="uni00DD" format="2">
  <advance width="566.0"/>
  <unicode hex="00DD"/>
  <outline>
    <contour>
      <point x="283.0" y="363.0" type="line"/>
      <point x="469.0" y="714.0" type="line"/>
      <point x="566.0" y="714.0" type="line"/>
      <point x="328.0" y="277.0" type="line"/>
      <point x="328.0" y="0.0" type="line"/>
      <point x="238.0" y="0.0" type="line"/>
      <point x="238.0" y="273.0" type="line"/>
      <point x="0.0" y="714.0" type="line"/>
      <point x="98.0" y="714.0" type="line"/>
    </contour>
    <contour>
      <point x="431.0" y="934.0" type="line"/>
      <point x="419.0" y="916.0"/>
      <point x="369.0" y="859.0"/>
      <point x="312.0" y="802.0"/>
      <point x="288.0" y="784.0" type="line"/>
      <point x="230.0" y="784.0" type="line"/>
      <point x="230.0" y="796.0" type="line"/>
      <point x="245.0" y="815.0"/>
      <point x="280.0" y="867.0"/>
      <point x="314.0" y="922.0"/>
      <point x="325.0" y="944.0" type="line"/>
      <point x="431.0" y="944.0" type="line"/>
    </contour>
  </outline>
</glyph>
<glyph name="uni00DE" format="2">
  <advance width="605.0"/>
  <unicode hex="00DE"/>
  <outline>
    <contour>
      <point x="554.0" y="382.0" type="line"/>
      <point x="554.0" y="322.0"/>
      <point x="502.0" y="219.0"/>
      <point x="377.0" y="155.0"/>
      <point x="268.0" y="155.0" type="line"/>
      <point x="187.0" y="155.0" type="line"/>
      <point x="187.0" y="0.0" type="line"/>
      <point x="97.0" y="0.0" type="line"/>
      <point x="97.0" y="714.0" type="line"/>
      <point x="187.0" y="714.0" type="line"/>
      <point x="187.0" y="590.0" type="line"/>
      <point x="283.0" y="590.0" type="line"/>
      <point x="428.0" y="590.0"/>
      <point x="554.0" y="480.0"/>
    </contour>
    <contour>
      <point x="259.0" y="231.0" type="line"/>
      <point x="364.0" y="231.0"/>
      <point x="461.0" y="298.0"/>
      <point x="461.0" y="377.0" type="line"/>
      <point x="461.0" y="446.0"/>
      <point x="374.0" y="513.0"/>
      <point x="276.0" y="513.0" type="line"/>
      <point x="187.0" y="513.0" type="line"/>
      <point x="187.0" y="231.0" type="line"/>
    </contour>
  </outline>
</glyph>
<glyph name="uni00DF" format="2">
  <advance width="631.0"/>
  <unicode hex="00DF"/>
  <outline>
    <contour>
      <point x="522.0" y="617.0" type="line"/>
      <point x="522.0" y="583.0"/>
      <point x="494.0" y="532.0"/>
      <point x="452.0" y="493.0"/>
      <point x="410.0" y="461.0"/>
      <point x="382.0" y="430.0"/>
      <point x="382.0" y="412.0" type="line"/>
      <point x="382.0" y="399.0"/>
      <point x="395.0" y="377.0"/>
      <point x="433.0" y="348.0"/>
      <point x="470.0" y="323.0" type="line"/>
      <point x="524.0" y="287.0"/>
      <point x="586.0" y="212.0"/>
      <point x="586.0" y="153.0" type="line"/>
      <point x="586.0" y="68.0"/>
      <point x="483.0" y="-10.0"/>
      <point x="400.0" y="-10.0" type="line"/>
      <point x="353.0" y="-10.0"/>
      <point x="281.0" y="8.0"/>
      <point x="255.0" y="24.0" type="line"/>
      <point x="255.0" y="103.0" type="line"/>
      <point x="281.0" y="87.0"/>
      <point x="357.0" y="61.0"/>
      <point x="397.0" y="61.0" type="line"/>
      <point x="452.0" y="61.0"/>
      <point x="500.0" y="107.0"/>
      <point x="500.0" y="147.0" type="line"/>
      <point x="500.0" y="183.0"/>
      <point x="459.0" y="233.0"/>
      <point x="406.0" y="267.0" type="line"/>
      <point x="343.0" y="308.0"/>
      <point x="297.0" y="367.0"/>
      <point x="297.0" y="407.0" type="line"/>
      <point x="297.0" y="438.0"/>
      <point x="324.0" y="482.0"/>
      <point x="365.0" y="515.0"/>
      <point x="406.0" y="547.0"/>
      <point x="433.0" y="585.0"/>
      <point x="433.0" y="612.0" type="line"/>
      <point x="433.0" y="654.0"/>
      <point x="362.0" y="692.0"/>
      <point x="306.0" y="692.0" type="line"/>
      <point x="271.0" y="692.0"/>
      <point x="210.0" y="673.0"/>
      <point x="173.0" y="627.0"/>
      <point x="173.0" y="584.0" type="line"/>
      <point x="173.0" y="0.0" type="line"/>
      <point x="85.0" y="0.0" type="line"/>
      <point x="85.0" y="584.0" type="line"/>
      <point x="85.0" y="651.0"/>
      <point x="143.0" y="730.0"/>
      <point x="243.0" y="765.0"/>
      <point x="306.0" y="765.0" type="line"/>
      <point x="403.0" y="765.0"/>
      <point x="522.0" y="691.0"/>
    </contour>
  </outline>
</glyph>
<glyph name="uni00E2" format="2">
  <advance width="561.0"/>
  <unicode hex="00E2"/>
  <outline>
    <contour>
      <point x="288.0" y="545.0" type="line"/>
      <point x="386.0" y="545.0"/>
      <point x="480.0" y="459.0"/>
      <point x="480.0" y="365.0" type="line"/>
      <point x="480.0" y="0.0" type="line"/>
      <point x="416.0" y="0.0" type="line"/>
      <point x="399.0" y="76.0" type="line"/>
      <point x="395.0" y="76.0" type="line"/>
      <point x="360.0" y="32.0"/>
      <point x="283.0" y="-10.0"/>
      <point x="215.0" y="-10.0" type="line"/>
      <point x="142.0" y="-10.0"/>
      <point x="46.0" y="67.0"/>
      <point x="46.0" y="149.0" type="line"/>
      <point x="46.0" y="229.0"/>
      <point x="172.0" y="316.0"/>
      <point x="303.0" y="320.0" type="line"/>
      <point x="394.0" y="323.0" type="line"/>
      <point x="394.0" y="355.0" type="line"/>
      <point x="394.0" y="422.0"/>
      <point x="336.0" y="474.0"/>
      <point x="283.0" y="474.0" type="line"/>
      <point x="241.0" y="474.0"/>
      <point x="165.0" y="449.0"/>
      <point x="132.0" y="433.0" type="line"/>
      <point x="105.0" y="499.0" type="line"/>
      <point x="140.0" y="518.0"/>
      <point x="236.0" y="545.0"/>
    </contour>
    <contour>
      <point x="314.0" y="259.0" type="line"/>
      <point x="214.0" y="255.0"/>
      <point x="137.0" y="199.0"/>
      <point x="137.0" y="148.0" type="line"/>
      <point x="137.0" y="103.0"/>
      <point x="192.0" y="61.0"/>
      <point x="235.0" y="61.0" type="line"/>
      <point x="303.0" y="61.0"/>
      <point x="393.0" y="136.0"/>
      <point x="393.0" y="214.0" type="line"/>
      <point x="393.0" y="262.0" type="line"/>
    </contour>
    <contour>
      <point x="325.0" y="766.0" type="line"/>
      <point x="337.0" y="744.0"/>
      <point x="382.0" y="689.0"/>
      <point x="431.0" y="636.0"/>
      <point x="450.0" y="617.0" type="line"/>
      <point x="450.0" y="606.0" type="line"/>
      <point x="388.0" y="606.0" type="line"/>
      <point x="362.0" y="622.0"/>
      <point x="306.0" y="669.0"/>
      <point x="279.0" y="696.0" type="line"/>
      <point x="252.0" y="669.0"/>
      <point x="198.0" y="623.0"/>
      <point x="172.0" y="606.0" type="line"/>
      <point x="112.0" y="606.0" type="line"/>
      <point x="112.0" y="617.0" type="line"/>
      <point x="131.0" y="637.0"/>
      <point x="178.0" y="689.0"/>
      <point x="222.0" y="744.0"/>
      <point x="235.0" y="766.0" type="line"/>
    </contour>
  </outline>
</glyph>
<glyph name="uni00E3" format="2">
  <advance width="561.0"/>
  <unicode hex="00E3"/>
  <outline>
    <contour>
      <point x="288.0" y="545.0" type="line"/>
      <point x="386.0" y="545.0"/>
      <point x="480.0" y="459.0"/>
      <point x="480.0" y="365.0" type="line"/>
      <point x="480.0" y="0.0" type="line"/>
      <point x="416.0" y="0.0" type="line"/>
      <point x="399.0" y="76.0" type="line"/>
      <point x="395.0" y="76.0" type="line"/>
      <point x="360.0" y="32.0"/>
      <point x="283.0" y="-10.0"/>
      <point x="215.0" y="-10.0" type="line"/>
      <point x="142.0" y="-10.0"/>
      <point x="46.0" y="67.0"/>
      <point x="46.0" y="149.0" type="line"/>
      <point x="46.0" y="229.0"/>
      <point x="172.0" y="316.0"/>
      <point x="303.0" y="320.0" type="line"/>
      <point x="394.0" y="323.0" type="line"/>
      <point x="394.0" y="355.0" type="line"/>
      <point x="394.0" y="422.0"/>
      <point x="336.0" y="474.0"/>
      <point x="283.0" y="474.0" type="line"/>
      <point x="241.0" y="474.0"/>
      <point x="165.0" y="449.0"/>
      <point x="132.0" y="433.0" type="line"/>
      <point x="105.0" y="499.0" type="line"/>
      <point x="140.0" y="518.0"/>
      <point x="236.0" y="545.0"/>
    </contour>
    <contour>
      <point x="314.0" y="259.0" type="line"/>
      <point x="214.0" y="255.0"/>
      <point x="137.0" y="199.0"/>
      <point x="137.0" y="148.0" type="line"/>
      <point x="137.0" y="103.0"/>
      <point x="192.0" y="61.0"/>
      <point x="235.0" y="61.0" type="line"/>
      <point x="303.0" y="61.0"/>
      <point x="393.0" y="136.0"/>
      <point x="393.0" y="214.0" type="line"/>
      <point x="393.0" y="262.0" type="line"/>
    </contour>
    <contour>
      <point x="98.0" y="606.0" type="line"/>
      <point x="104.0" y="665.0"/>
      <point x="161.0" y="734.0"/>
      <point x="208.0" y="734.0" type="line"/>
      <point x="238.0" y="734.0"/>
      <point x="291.0" y="705.0"/>
      <point x="339.0" y="677.0"/>
      <point x="360.0" y="677.0" type="line"/>
      <point x="383.0" y="677.0"/>
      <point x="408.0" y="706.0"/>
      <point x="415.0" y="735.0" type="line"/>
      <point x="465.0" y="735.0" type="line"/>
      <point x="459.0" y="677.0"/>
      <point x="403.0" y="607.0"/>
      <point x="356.0" y="607.0" type="line"/>
      <point x="328.0" y="607.0"/>
      <point x="275.0" y="635.0"/>
      <point x="226.0" y="664.0"/>
      <point x="204.0" y="664.0" type="line"/>
      <point x="180.0" y="664.0"/>
      <point x="156.0" y="635.0"/>
      <point x="149.0" y="606.0" type="line"/>
    </contour>
  </outline>
</glyph>
<glyph name="uni00E7" format="2">
  <advance width="480.0"/>
  <unicode hex="00E7"/>
  <outline>
    <contour>
      <point x="300.0" y="-10.0" type="line"/>
      <point x="229.0" y="-10.0"/>
      <point x="118.0" y="48.0"/>
      <point x="55.0" y="170.0"/>
      <point x="55.0" y="265.0" type="line"/>
      <point x="55.0" y="364.0"/>
      <point x="121.0" y="488.0"/>
      <point x="234.0" y="546.0"/>
      <point x="306.0" y="546.0" type="line"/>
      <point x="347.0" y="546.0"/>
      <point x="423.0" y="529.0"/>
      <point x="447.0" y="517.0" type="line"/>
      <point x="420.0" y="444.0" type="line"/>
      <point x="396.0" y="453.0"/>
      <point x="332.0" y="469.0"/>
      <point x="304.0" y="469.0" type="line"/>
      <point x="146.0" y="469.0"/>
      <point x="146.0" y="266.0" type="line"/>
      <point x="146.0" y="169.0"/>
      <point x="223.0" y="66.0"/>
      <point x="299.0" y="66.0" type="line"/>
      <point x="343.0" y="66.0"/>
      <point x="410.0" y="84.0"/>
      <point x="438.0" y="97.0" type="line"/>
      <point x="438.0" y="19.0" type="line"/>
      <point x="411.0" y="5.0"/>
      <point x="346.0" y="-10.0"/>
    </contour>
    <contour>
      <point x="382.0" y="-139.0" type="line"/>
      <point x="382.0" y="-187.0"/>
      <point x="308.0" y="-240.0"/>
      <point x="234.0" y="-240.0" type="line"/>
      <point x="202.0" y="-240.0"/>
      <point x="184.0" y="-235.0" type="line"/>
      <point x="184.0" y="-180.0" type="line"/>
      <point x="193.0" y="-182.0"/>
      <point x="223.0" y="-185.0"/>
      <point x="237.0" y="-185.0" type="line"/>
      <point x="273.0" y="-185.0"/>
      <point x="311.0" y="-166.0"/>
      <point x="311.0" y="-141.0" type="line"/>
      <point x="311.0" y="-115.0"/>
      <point x="258.0" y="-91.0"/>
      <point x="220.0" y="-86.0" type="line"/>
      <point x="263.0" y="0.0" type="line"/>
      <point x="321.0" y="0.0" type="line"/>
      <point x="295.0" y="-53.0" type="line"/>
      <point x="331.0" y="-61.0"/>
      <point x="382.0" y="-101.0"/>
    </contour>
  </outline>
</glyph>
<glyph name="uni00EA" format="2">
  <advance width="564.0"/>
  <unicode hex="00EA"/>
  <outline>
    <contour>
      <point x="292.0" y="546.0" type="line"/>
      <point x="361.0" y="546.0"/>
      <point x="460.0" y="486.0"/>
      <point x="513.0" y="377.0"/>
      <point x="513.0" y="304.0" type="line"/>
      <point x="513.0" y="251.0" type="line"/>
      <point x="146.0" y="251.0" type="line"/>
      <point x="148.0" y="160.0"/>
      <point x="237.0" y="65.0"/>
      <point x="317.0" y="65.0" type="line"/>
      <point x="368.0" y="65.0"/>
      <point x="447.0" y="84.0"/>
      <point x="489.0" y="102.0" type="line"/>
      <point x="489.0" y="25.0" type="line"/>
      <point x="448.0" y="7.0"/>
      <point x="368.0" y="-10.0"/>
      <point x="313.0" y="-10.0" type="line"/>
      <point x="237.0" y="-10.0"/>
      <point x="120.0" y="52.0"/>
      <point x="55.0" y="175.0"/>
      <point x="55.0" y="264.0" type="line"/>
      <point x="55.0" y="352.0"/>
      <point x="114.0" y="478.0"/>
      <point x="221.0" y="546.0"/>
    </contour>
    <contour>
      <point x="291.0" y="474.0" type="line"/>
      <point x="228.0" y="474.0"/>
      <point x="155.0" y="393.0"/>
      <point x="148.0" y="321.0" type="line"/>
      <point x="421.0" y="321.0" type="line"/>
      <point x="420.0" y="389.0"/>
      <point x="358.0" y="474.0"/>
    </contour>
    <contour>
      <point x="329.0" y="766.0" type="line"/>
      <point x="341.0" y="744.0"/>
      <point x="386.0" y="689.0"/>
      <point x="435.0" y="636.0"/>
      <point x="454.0" y="617.0" type="line"/>
      <point x="454.0" y="606.0" type="line"/>
      <point x="392.0" y="606.0" type="line"/>
      <point x="366.0" y="622.0"/>
      <point x="310.0" y="669.0"/>
      <point x="283.0" y="696.0" type="line"/>
      <point x="256.0" y="669.0"/>
      <point x="202.0" y="623.0"/>
      <point x="176.0" y="606.0" type="line"/>
      <point x="116.0" y="606.0" type="line"/>
      <point x="116.0" y="617.0" type="line"/>
      <point x="135.0" y="637.0"/>
      <point x="182.0" y="689.0"/>
      <point x="226.0" y="744.0"/>
      <point x="239.0" y="766.0" type="line"/>
    </contour>
  </outline>
</glyph>
<glyph name="uni00EC" format="2">
  <advance width="258.0"/>
  <unicode hex="00EC"/>
  <outline>
    <contour>
      <point x="173.0" y="0.0" type="line"/>
      <point x="85.0" y="0.0" type="line"/>
      <point x="85.0" y="536.0" type="line"/>
      <point x="173.0" y="536.0" type="line"/>
    </contour>
    <contour>
      <point x="104.0" y="766.0" type="line"/>
      <point x="115.0" y="744.0"/>
      <point x="148.0" y="689.0"/>
      <point x="185.0" y="637.0"/>
      <point x="200.0" y="618.0" type="line"/>
      <point x="200.0" y="606.0" type="line"/>
      <point x="141.0" y="606.0" type="line"/>
      <point x="118.0" y="624.0"/>
      <point x="60.0" y="681.0"/>
      <point x="11.0" y="738.0"/>
      <point x="-1.0" y="756.0" type="line"/>
      <point x="-1.0" y="766.0" type="line"/>
    </contour>
  </outline>
</glyph>
<glyph name="uni00ED" format="2">
  <advance width="258.0"/>
  <unicode hex="00ED"/>
  <outline>
    <contour>
      <point x="173.0" y="0.0" type="line"/>
      <point x="85.0" y="0.0" type="line"/>
      <point x="85.0" y="536.0" type="line"/>
      <point x="173.0" y="536.0" type="line"/>
    </contour>
    <contour>
      <point x="277.0" y="756.0" type="line"/>
      <point x="265.0" y="738.0"/>
      <point x="215.0" y="681.0"/>
      <point x="158.0" y="624.0"/>
      <point x="134.0" y="606.0" type="line"/>
      <point x="76.0" y="606.0" type="line"/>
      <point x="76.0" y="618.0" type="line"/>
      <point x="91.0" y="637.0"/>
      <point x="126.0" y="689.0"/>
      <point x="160.0" y="744.0"/>
      <point x="171.0" y="766.0" type="line"/>
      <point x="277.0" y="766.0" type="line"/>
    </contour>
  </outline>
</glyph>
<glyph name="uni00EE" format="2">
  <advance width="258.0"/>
  <unicode hex="00EE"/>
  <outline>
    <contour>
      <point x="173.0" y="0.0" type="line"/>
      <point x="85.0" y="0.0" type="line"/>
      <point x="85.0" y="536.0" type="line"/>
      <point x="173.0" y="536.0" type="line"/>
    </contour>
    <contour>
      <point x="173.0" y="766.0" type="line"/>
      <point x="185.0" y="744.0"/>
      <point x="230.0" y="689.0"/>
      <point x="279.0" y="636.0"/>
      <point x="298.0" y="617.0" type="line"/>
      <point x="298.0" y="606.0" type="line"/>
      <point x="236.0" y="606.0" type="line"/>
      <point x="210.0" y="622.0"/>
      <point x="154.0" y="669.0"/>
      <point x="127.0" y="696.0" type="line"/>
      <point x="100.0" y="669.0"/>
      <point x="46.0" y="623.0"/>
      <point x="20.0" y="606.0" type="line"/>
      <point x="-40.0" y="606.0" type="line"/>
      <point x="-40.0" y="617.0" type="line"/>
      <point x="-21.0" y="637.0"/>
      <point x="26.0" y="689.0"/>
      <point x="70.0" y="744.0"/>
      <point x="83.0" y="766.0" type="line"/>
    </contour>
  </outline>
</glyph>
<glyph name="uni00EF" format="2">
  <advance width="258.0"/>
  <unicode hex="00EF"/>
  <outline>
    <contour>
      <point x="173.0" y="0.0" type="line"/>
      <point x="85.0" y="0.0" type="line"/>
      <point x="85.0" y="536.0" type="line"/>
      <point x="173.0" y="536.0" type="line"/>
    </contour>
    <contour>
      <point x="-11.0" y="681.0" type="line"/>
      <point x="-11.0" y="707.0"/>
      <point x="17.0" y="730.0"/>
      <point x="36.0" y="730.0" type="line"/>
      <point x="55.0" y="730.0"/>
      <point x="83.0" y="707.0"/>
      <point x="83.0" y="681.0" type="line"/>
      <point x="83.0" y="656.0"/>
      <point x="55.0" y="631.0"/>
      <point x="36.0" y="631.0" type="line"/>
      <point x="17.0" y="631.0"/>
      <point x="-11.0" y="656.0"/>
    </contour>
    <contour>
      <point x="177.0" y="681.0" type="line"/>
      <point x="177.0" y="707.0"/>
      <point x="204.0" y="730.0"/>
      <point x="223.0" y="730.0" type="line"/>
      <point x="242.0" y="730.0"/>
      <point x="270.0" y="707.0"/>
      <point x="270.0" y="681.0" type="line"/>
      <point x="270.0" y="656.0"/>
      <point x="242.0" y="631.0"/>
      <point x="223.0" y="631.0" type="line"/>
      <point x="204.0" y="631.0"/>
      <point x="177.0" y="656.0"/>
    </contour>
  </outline>
</glyph>
<glyph name="uni00F0" format="2">
  <advance width="605.0"/>
  <unicode hex="00F0"/>
  <outline>
    <contour>
      <point x="216.0" y="765.0" type="line"/>
      <point x="248.0" y="750.0"/>
      <point x="313.0" y="714.0"/>
      <point x="342.0" y="693.0" type="line"/>
      <point x="457.0" y="760.0" type="line"/>
      <point x="495.0" y="706.0" type="line"/>
      <point x="396.0" y="649.0" type="line"/>
      <point x="464.0" y="585.0"/>
      <point x="551.0" y="397.0"/>
      <point x="551.0" y="275.0" type="line"/>
      <point x="551.0" y="133.0"/>
      <point x="417.0" y="-10.0"/>
      <point x="301.0" y="-10.0" type="line"/>
      <point x="229.0" y="-10.0"/>
      <point x="118.0" y="49.0"/>
      <point x="55.0" y="158.0"/>
      <point x="55.0" y="233.0" type="line"/>
      <point x="55.0" y="345.0"/>
      <point x="182.0" y="473.0"/>
      <point x="290.0" y="473.0" type="line"/>
      <point x="343.0" y="473.0"/>
      <point x="422.0" y="445.0"/>
      <point x="446.0" y="415.0" type="line"/>
      <point x="450.0" y="417.0" type="line"/>
      <point x="434.0" y="474.0"/>
      <point x="368.0" y="570.0"/>
      <point x="326.0" y="608.0" type="line"/>
      <point x="196.0" y="533.0" type="line"/>
      <point x="158.0" y="588.0" type="line"/>
      <point x="270.0" y="652.0" type="line"/>
      <point x="249.0" y="666.0"/>
      <point x="203.0" y="693.0"/>
      <point x="180.0" y="705.0" type="line"/>
    </contour>
    <contour>
      <point x="303.0" y="402.0" type="line"/>
      <point x="219.0" y="402.0"/>
      <point x="144.0" y="313.0"/>
      <point x="144.0" y="230.0" type="line"/>
      <point x="144.0" y="157.0"/>
      <point x="220.0" y="62.0"/>
      <point x="303.0" y="62.0" type="line"/>
      <point x="386.0" y="62.0"/>
      <point x="462.0" y="159.0"/>
      <point x="462.0" y="251.0" type="line"/>
      <point x="462.0" y="313.0"/>
      <point x="384.0" y="402.0"/>
    </contour>
  </outline>
</glyph>
<glyph name="uni00F1" format="2">
  <advance width="618.0"/>
  <unicode hex="00F1"/>
  <outline>
    <contour>
      <point x="343.0" y="546.0" type="line"/>
      <point x="439.0" y="546.0"/>
      <point x="537.0" y="453.0"/>
      <point x="537.0" y="349.0" type="line"/>
      <point x="537.0" y="0.0" type="line"/>
      <point x="450.0" y="0.0" type="line"/>
      <point x="450.0" y="343.0" type="line"/>
      <point x="450.0" y="472.0"/>
      <point x="330.0" y="472.0" type="line"/>
      <point x="241.0" y="472.0"/>
      <point x="173.0" y="372.0"/>
      <point x="173.0" y="278.0" type="line"/>
      <point x="173.0" y="0.0" type="line"/>
      <point x="85.0" y="0.0" type="line"/>
      <point x="85.0" y="536.0" type="line"/>
      <point x="156.0" y="536.0" type="line"/>
      <point x="169.0" y="463.0" type="line"/>
      <point x="174.0" y="463.0" type="line"/>
      <point x="200.0" y="505.0"/>
      <point x="292.0" y="546.0"/>
    </contour>
    <contour>
      <point x="126.0" y="606.0" type="line"/>
      <point x="132.0" y="665.0"/>
      <point x="189.0" y="734.0"/>
      <point x="236.0" y="734.0" type="line"/>
      <point x="266.0" y="734.0"/>
      <point x="319.0" y="705.0"/>
      <point x="367.0" y="677.0"/>
      <point x="388.0" y="677.0" type="line"/>
      <point x="411.0" y="677.0"/>
      <point x="436.0" y="706.0"/>
      <point x="443.0" y="735.0" type="line"/>
      <point x="493.0" y="735.0" type="line"/>
      <point x="487.0" y="677.0"/>
      <point x="431.0" y="607.0"/>
      <point x="384.0" y="607.0" type="line"/>
      <point x="356.0" y="607.0"/>
      <point x="303.0" y="635.0"/>
      <point x="254.0" y="664.0"/>
      <point x="232.0" y="664.0" type="line"/>
      <point x="208.0" y="664.0"/>
      <point x="184.0" y="635.0"/>
      <point x="177.0" y="606.0" type="line"/>
    </contour>
  </outline>
</glyph>
<glyph name="uni00F2" format="2">
  <advance width="605.0"/>
  <unicode hex="00F2"/>
  <outline>
    <contour>
      <point x="551.0" y="269.0" type="line"/>
      <point x="551.0" y="136.0"/>
      <point x="416.0" y="-10.0"/>
      <point x="301.0" y="-10.0" type="line"/>
      <point x="230.0" y="-10.0"/>
      <point x="119.0" y="55.0"/>
      <point x="55.0" y="180.0"/>
      <point x="55.0" y="269.0" type="line"/>
      <point x="55.0" y="402.0"/>
      <point x="189.0" y="546.0"/>
      <point x="304.0" y="546.0" type="line"/>
      <point x="377.0" y="546.0"/>
      <point x="488.0" y="481.0"/>
      <point x="551.0" y="358.0"/>
    </contour>
    <contour>
      <point x="146.0" y="269.0" type="line"/>
      <point x="146.0" y="174.0"/>
      <point x="221.0" y="63.0"/>
      <point x="303.0" y="63.0" type="line"/>
      <point x="384.0" y="63.0"/>
      <point x="460.0" y="174.0"/>
      <point x="460.0" y="269.0" type="line"/>
      <point x="460.0" y="364.0"/>
      <point x="384.0" y="472.0"/>
      <point x="302.0" y="472.0" type="line"/>
      <point x="220.0" y="472.0"/>
      <point x="146.0" y="364.0"/>
    </contour>
    <contour>
      <point x="278.0" y="766.0" type="line"/>
      <point x="289.0" y="744.0"/>
      <point x="322.0" y="689.0"/>
      <point x="359.0" y="637.0"/>
      <point x="374.0" y="618.0" type="line"/>
      <point x="374.0" y="606.0" type="line"/>
      <point x="315.0" y="606.0" type="line"/>
      <point x="292.0" y="624.0"/>
      <point x="234.0" y="681.0"/>
      <point x="185.0" y="738.0"/>
      <point x="173.0" y="756.0" type="line"/>
      <point x="173.0" y="766.0" type="line"/>
    </contour>
  </outline>
</glyph>
<glyph name="uni00F4" format="2">
  <advance width="605.0"/>
  <unicode hex="00F4"/>
  <outline>
    <contour>
      <point x="551.0" y="269.0" type="line"/>
      <point x="551.0" y="136.0"/>
      <point x="416.0" y="-10.0"/>
      <point x="301.0" y="-10.0" type="line"/>
      <point x="230.0" y="-10.0"/>
      <point x="119.0" y="55.0"/>
      <point x="55.0" y="180.0"/>
      <point x="55.0" y="269.0" type="line"/>
      <point x="55.0" y="402.0"/>
      <point x="189.0" y="546.0"/>
      <point x="304.0" y="546.0" type="line"/>
      <point x="377.0" y="546.0"/>
      <point x="488.0" y="481.0"/>
      <point x="551.0" y="358.0"/>
    </contour>
    <contour>
      <point x="146.0" y="269.0" type="line"/>
      <point x="146.0" y="174.0"/>
      <point x="221.0" y="63.0"/>
      <point x="303.0" y="63.0" type="line"/>
      <point x="384.0" y="63.0"/>
      <point x="460.0" y="174.0"/>
      <point x="460.0" y="269.0" type="line"/>
      <point x="460.0" y="364.0"/>
      <point x="384.0" y="472.0"/>
      <point x="302.0" y="472.0" type="line"/>
      <point x="220.0" y="472.0"/>
      <point x="146.0" y="364.0"/>
    </contour>
    <contour>
      <point x="347.0" y="766.0" type="line"/>
      <point x="359.0" y="744.0"/>
      <point x="404.0" y="689.0"/>
      <point x="453.0" y="636.0"/>
      <point x="472.0" y="617.0" type="line"/>
      <point x="472.0" y="606.0" type="line"/>
      <point x="410.0" y="606.0" type="line"/>
      <point x="384.0" y="622.0"/>
      <point x="328.0" y="669.0"/>
      <point x="301.0" y="696.0" type="line"/>
      <point x="274.0" y="669.0"/>
      <point x="220.0" y="623.0"/>
      <point x="194.0" y="606.0" type="line"/>
      <point x="134.0" y="606.0" type="line"/>
      <point x="134.0" y="617.0" type="line"/>
      <point x="153.0" y="637.0"/>
      <point x="200.0" y="689.0"/>
      <point x="244.0" y="744.0"/>
      <point x="257.0" y="766.0" type="line"/>
    </contour>
  </outline>
</glyph>
<glyph name="uni00F5" format="2">
  <advance width="605.0"/>
  <unicode hex="00F5"/>
  <outline>
    <contour>
      <point x="551.0" y="269.0" type="line"/>
      <point x="551.0" y="136.0"/>
      <point x="416.0" y="-10.0"/>
      <point x="301.0" y="-10.0" type="line"/>
      <point x="230.0" y="-10.0"/>
      <point x="119.0" y="55.0"/>
      <point x="55.0" y="180.0"/>
      <point x="55.0" y="269.0" type="line"/>
      <point x="55.0" y="402.0"/>
      <point x="189.0" y="546.0"/>
      <point x="304.0" y="546.0" type="line"/>
      <point x="377.0" y="546.0"/>
      <point x="488.0" y="481.0"/>
      <point x="551.0" y="358.0"/>
    </contour>
    <contour>
      <point x="146.0" y="269.0" type="line"/>
      <point x="146.0" y="174.0"/>
      <point x="221.0" y="63.0"/>
      <point x="303.0" y="63.0" type="line"/>
      <point x="384.0" y="63.0"/>
      <point x="460.0" y="174.0"/>
      <point x="460.0" y="269.0" type="line"/>
      <point x="460.0" y="364.0"/>
      <point x="384.0" y="472.0"/>
      <point x="302.0" y="472.0" type="line"/>
      <point x="220.0" y="472.0"/>
      <point x="146.0" y="364.0"/>
    </contour>
    <contour>
      <point x="120.0" y="606.0" type="line"/>
      <point x="126.0" y="665.0"/>
      <point x="183.0" y="734.0"/>
      <point x="230.0" y="734.0" type="line"/>
      <point x="260.0" y="734.0"/>
      <point x="313.0" y="705.0"/>
      <point x="361.0" y="677.0"/>
      <point x="382.0" y="677.0" type="line"/>
      <point x="405.0" y="677.0"/>
      <point x="430.0" y="706.0"/>
      <point x="437.0" y="735.0" type="line"/>
      <point x="487.0" y="735.0" type="line"/>
      <point x="481.0" y="677.0"/>
      <point x="425.0" y="607.0"/>
      <point x="378.0" y="607.0" type="line"/>
      <point x="350.0" y="607.0"/>
      <point x="297.0" y="635.0"/>
      <point x="248.0" y="664.0"/>
      <point x="226.0" y="664.0" type="line"/>
      <point x="202.0" y="664.0"/>
      <point x="178.0" y="635.0"/>
      <point x="171.0" y="606.0" type="line"/>
    </contour>
  </outline>
</glyph>
<glyph name="uni00F7" format="2">
  <advance width="572.0"/>
  <unicode hex="00F7"/>
  <outline>
    <contour>
      <point x="285.0" y="462.0" type="line"/>
      <point x="262.0" y="462.0"/>
      <point x="229.0" y="491.0"/>
      <point x="229.0" y="523.0" type="line"/>
      <point x="229.0" y="557.0"/>
      <point x="262.0" y="583.0"/>
      <point x="285.0" y="583.0" type="line"/>
      <point x="308.0" y="583.0"/>
      <point x="340.0" y="557.0"/>
      <point x="340.0" y="523.0" type="line"/>
      <point x="340.0" y="491.0"/>
      <point x="308.0" y="462.0"/>
    </contour>
    <contour>
      <point x="50.0" y="317.0" type="line"/>
      <point x="50.0" y="388.0" type="line"/>
      <point x="521.0" y="388.0" type="line"/>
      <point x="521.0" y="317.0" type="line"/>
    </contour>
    <contour>
      <point x="285.0" y="121.0" type="line"/>
      <point x="262.0" y="121.0"/>
      <point x="229.0" y="150.0"/>
      <point x="229.0" y="182.0" type="line"/>
      <point x="229.0" y="216.0"/>
      <point x="262.0" y="242.0"/>
      <point x="285.0" y="242.0" type="line"/>
      <point x="308.0" y="242.0"/>
      <point x="340.0" y="216.0"/>
      <point x="340.0" y="182.0" type="line"/>
      <point x="340.0" y="150.0"/>
      <point x="308.0" y="121.0"/>
    </contour>
  </outline>
</glyph>
<glyph name="uni00F9" format="2">
  <advance width="618.0"/>
  <unicode hex="00F9"/>
  <outline>
    <contour>
      <point x="533.0" y="536.0" type="line"/>
      <point x="533.0" y="0.0" type="line"/>
      <point x="461.0" y="0.0" type="line"/>
      <point x="448.0" y="71.0" type="line"/>
      <point x="444.0" y="71.0" type="line"/>
      <point x="418.0" y="29.0"/>
      <point x="326.0" y="-10.0"/>
      <point x="274.0" y="-10.0" type="line"/>
      <point x="177.0" y="-10.0"/>
      <point x="79.0" y="83.0"/>
      <point x="79.0" y="185.0" type="line"/>
      <point x="79.0" y="536.0" type="line"/>
      <point x="168.0" y="536.0" type="line"/>
      <point x="168.0" y="191.0" type="line"/>
      <point x="168.0" y="63.0"/>
      <point x="287.0" y="63.0" type="line"/>
      <point x="376.0" y="63.0"/>
      <point x="445.0" y="163.0"/>
      <point x="445.0" y="257.0" type="line"/>
      <point x="445.0" y="536.0" type="line"/>
    </contour>
    <contour>
      <point x="284.0" y="766.0" type="line"/>
      <point x="295.0" y="744.0"/>
      <point x="328.0" y="689.0"/>
      <point x="365.0" y="637.0"/>
      <point x="380.0" y="618.0" type="line"/>
      <point x="380.0" y="606.0" type="line"/>
      <point x="321.0" y="606.0" type="line"/>
      <point x="298.0" y="624.0"/>
      <point x="240.0" y="681.0"/>
      <point x="191.0" y="738.0"/>
      <point x="179.0" y="756.0" type="line"/>
      <point x="179.0" y="766.0" type="line"/>
    </contour>
  </outline>
</glyph>
<glyph name="uni00FB" format="2">
  <advance width="618.0"/>
  <unicode hex="00FB"/>
  <outline>
    <contour>
      <point x="533.0" y="536.0" type="line"/>
      <point x="533.0" y="0.0" type="line"/>
      <point x="461.0" y="0.0" type="line"/>
      <point x="448.0" y="71.0" type="line"/>
      <point x="444.0" y="71.0" type="line"/>
      <point x="418.0" y="29.0"/>
      <point x="326.0" y="-10.0"/>
      <point x="274.0" y="-10.0" type="line"/>
      <point x="177.0" y="-10.0"/>
      <point x="79.0" y="83.0"/>
      <point x="79.0" y="185.0" type="line"/>
      <point x="79.0" y="536.0" type="line"/>
      <point x="168.0" y="536.0" type="line"/>
      <point x="168.0" y="191.0" type="line"/>
      <point x="168.0" y="63.0"/>
      <point x="287.0" y="63.0" type="line"/>
      <point x="376.0" y="63.0"/>
      <point x="445.0" y="163.0"/>
      <point x="445.0" y="257.0" type="line"/>
      <point x="445.0" y="536.0" type="line"/>
    </contour>
    <contour>
      <point x="353.0" y="766.0" type="line"/>
      <point x="365.0" y="744.0"/>
      <point x="410.0" y="689.0"/>
      <point x="459.0" y="636.0"/>
      <point x="478.0" y="617.0" type="line"/>
      <point x="478.0" y="606.0" type="line"/>
      <point x="416.0" y="606.0" type="line"/>
      <point x="390.0" y="622.0"/>
      <point x="334.0" y="669.0"/>
      <point x="307.0" y="696.0" type="line"/>
      <point x="280.0" y="669.0"/>
      <point x="226.0" y="623.0"/>
      <point x="200.0" y="606.0" type="line"/>
      <point x="140.0" y="606.0" type="line"/>
      <point x="140.0" y="617.0" type="line"/>
      <point x="159.0" y="637.0"/>
      <point x="206.0" y="689.0"/>
      <point x="250.0" y="744.0"/>
      <point x="263.0" y="766.0" type="line"/>
    </contour>
  </outline>
</glyph>
<glyph name="uni00FC" format="2">
  <advance width="618.0"/>
  <unicode hex="00FC"/>
  <outline>
    <contour>
      <point x="533.0" y="536.0" type="line"/>
      <point x="533.0" y="0.0" type="line"/>
      <point x="461.0" y="0.0" type="line"/>
      <point x="448.0" y="71.0" type="line"/>
      <point x="444.0" y="71.0" type="line"/>
      <point x="418.0" y="29.0"/>
      <point x="326.0" y="-10.0"/>
      <point x="274.0" y="-10.0" type="line"/>
      <point x="177.0" y="-10.0"/>
      <point x="79.0" y="83.0"/>
      <point x="79.0" y="185.0" type="line"/>
      <point x="79.0" y="536.0" type="line"/>
      <point x="168.0" y="536.0" type="line"/>
      <point x="168.0" y="191.0" type="line"/>
      <point x="168.0" y="63.0"/>
      <point x="287.0" y="63.0" type="line"/>
      <point x="376.0" y="63.0"/>
      <point x="445.0" y="163.0"/>
      <point x="445.0" y="257.0" type="line"/>
      <point x="445.0" y="536.0" type="line"/>
    </contour>
    <contour>
      <point x="169.0" y="681.0" type="line"/>
      <point x="169.0" y="707.0"/>
      <point x="197.0" y="730.0"/>
      <point x="216.0" y="730.0" type="line"/>
      <point x="235.0" y="730.0"/>
      <point x="263.0" y="707.0"/>
      <point x="263.0" y="681.0" type="line"/>
      <point x="263.0" y="656.0"/>
      <point x="235.0" y="631.0"/>
      <point x="216.0" y="631.0" type="line"/>
      <point x="197.0" y="631.0"/>
      <point x="169.0" y="656.0"/>
    </contour>
    <contour>
      <point x="357.0" y="681.0" type="line"/>
      <point x="357.0" y="707.0"/>
      <point x="384.0" y="730.0"/>
      <point x="403.0" y="730.0" type="line"/>
      <point x="422.0" y="730.0"/>
      <point x="450.0" y="707.0"/>
      <point x="450.0" y="681.0" type="line"/>
      <point x="450.0" y="656.0"/>
      <point x="422.0" y="631.0"/>
      <point x="403.0" y="631.0" type="line"/>
      <point x="384.0" y="631.0"/>
      <point x="357.0" y="656.0"/>
    </contour>
  </outline>
</glyph>
<glyph name="uni00FD" format="2">
  <advance width="510.0"/>
  <unicode hex="00FD"/>
  <outline>
    <contour>
      <point x="1.0" y="536.0" type="line"/>
      <point x="95.0" y="536.0" type="line"/>
      <point x="211.0" y="231.0" type="line"/>
      <point x="226.0" y="191.0"/>
      <point x="250.0" y="118.0"/>
      <point x="256.0" y="85.0" type="line"/>
      <point x="260.0" y="85.0" type="line"/>
      <point x="266.0" y="110.0"/>
      <point x="292.0" y="191.0"/>
      <point x="306.0" y="232.0" type="line"/>
      <point x="415.0" y="536.0" type="line"/>
      <point x="510.0" y="536.0" type="line"/>
      <point x="279.0" y="-74.0" type="line"/>
      <point x="251.0" y="-150.0"/>
      <point x="162.0" y="-240.0"/>
      <point x="84.0" y="-240.0" type="line"/>
      <point x="60.0" y="-240.0"/>
      <point x="24.0" y="-235.0"/>
      <point x="11.0" y="-232.0" type="line"/>
      <point x="11.0" y="-162.0" type="line"/>
      <point x="22.0" y="-164.0"/>
      <point x="53.0" y="-168.0"/>
      <point x="70.0" y="-168.0" type="line"/>
      <point x="116.0" y="-168.0"/>
      <point x="173.0" y="-116.0"/>
      <point x="189.0" y="-73.0" type="line"/>
      <point x="217.0" y="-2.0" type="line"/>
    </contour>
    <contour>
      <point x="403.0" y="756.0" type="line"/>
      <point x="391.0" y="738.0"/>
      <point x="341.0" y="681.0"/>
      <point x="284.0" y="624.0"/>
      <point x="260.0" y="606.0" type="line"/>
      <point x="202.0" y="606.0" type="line"/>
      <point x="202.0" y="618.0" type="line"/>
      <point x="217.0" y="637.0"/>
      <point x="252.0" y="689.0"/>
      <point x="286.0" y="744.0"/>
      <point x="297.0" y="766.0" type="line"/>
      <point x="403.0" y="766.0" type="line"/>
    </contour>
  </outline>
</glyph>
